<?xml version="1.0" encoding="utf-8"?>
<!-- Generator: Adobe Illustrator 21.1.0, SVG Export Plug-In . SVG Version: 6.00 Build 0)  -->
<svg version="1.1" id="Layer_1" xmlns="http://www.w3.org/2000/svg" xmlns:xlink="http://www.w3.org/1999/xlink" x="0px" y="0px"
	 viewBox="0 0 3000 150" style="enable-background:new 0 0 3000 150;" xml:space="preserve">
<style type="text/css">
	.st0{fill:#1A1A1A;}
	.st1{fill:#0071BC;}
	.st2{clip-path:url(#SVGID_2_);fill:#39B54A;}
	.st3{clip-path:url(#SVGID_4_);fill:#39B54A;}
	.st4{clip-path:url(#SVGID_6_);fill:#39B54A;}
	.st5{opacity:0.58;clip-path:url(#SVGID_8_);fill:#F2F2F2;enable-background:new    ;}
	.st6{opacity:0.58;clip-path:url(#SVGID_10_);fill:#F2F2F2;enable-background:new    ;}
	.st7{opacity:0.58;clip-path:url(#SVGID_12_);fill:#F2F2F2;enable-background:new    ;}
	.st8{opacity:0.58;clip-path:url(#SVGID_14_);fill:#F2F2F2;enable-background:new    ;}
	.st9{opacity:0.21;fill:#FFFFFF;enable-background:new    ;}
	.st10{opacity:0.1;fill:#00FFFF;enable-background:new    ;}
	.st11{opacity:0.11;clip-path:url(#SVGID_16_);enable-background:new    ;}
	.st12{opacity:0.11;clip-path:url(#SVGID_18_);enable-background:new    ;}
	.st13{opacity:0.11;clip-path:url(#SVGID_20_);enable-background:new    ;}
	.st14{clip-path:url(#SVGID_22_);fill:#999999;}
	.st15{opacity:0.21;clip-path:url(#SVGID_24_);fill:#FFFFFF;enable-background:new    ;}
	.st16{opacity:0.67;clip-path:url(#SVGID_26_);fill:#666666;enable-background:new    ;}
	.st17{opacity:0.67;clip-path:url(#SVGID_28_);fill:#666666;enable-background:new    ;}
	.st18{opacity:0.11;clip-path:url(#SVGID_30_);enable-background:new    ;}
	.st19{opacity:0.11;clip-path:url(#SVGID_32_);enable-background:new    ;}
	.st20{opacity:0.11;clip-path:url(#SVGID_34_);enable-background:new    ;}
	.st21{enable-background:new    ;}
	.st22{fill:#2A291B;}
	.st23{fill:#5B5726;}
	.st24{fill:#7C752E;}
	.st25{fill:#918935;}
	.st26{fill:#A19839;}
	.st27{fill:#ABA13C;}
	.st28{fill:#BABABA;}
	.st29{opacity:0.85;}
	.st30{opacity:0.16;fill:#00FFFF;enable-background:new    ;}
	.st31{fill:url(#SVGID_35_);}
	.st32{fill:#4D4D4D;}
	.st33{fill:#7D6B53;}
	.st34{fill:#655243;}
	.st35{fill:#161616;}
	.st36{fill:#383838;}
	.st37{fill:#4F4034;}
	.st38{fill:#292929;}
	.st39{fill:#808080;}
	.st40{fill:none;stroke:#1A1A1A;stroke-width:0.1837;stroke-miterlimit:10;}
	.st41{fill:#312732;}
	.st42{opacity:0.39;}
	.st43{fill:none;stroke:#F2F2F2;stroke-width:0.197;stroke-miterlimit:10;}
	.st44{fill:#7D0000;}
	.st45{fill:#C40000;}
	.st46{fill:#FF0000;}
	.st47{opacity:0.16;}
	.st48{fill:#00FFFF;}
	.st49{fill:url(#SVGID_36_);}
	.st50{fill:none;stroke:#1A1A1A;stroke-width:0.3056;stroke-miterlimit:10;}
	.st51{fill:none;stroke:#F2F2F2;stroke-width:0.3278;stroke-miterlimit:10;}
	.st52{fill:url(#SVGID_37_);}
	.st53{fill:none;stroke:#1A1A1A;stroke-width:0.6193;stroke-miterlimit:10;}
	.st54{fill:none;stroke:#F2F2F2;stroke-width:0.6644;stroke-miterlimit:10;}
	.st55{fill:#FFFFFF;}
</style>
<rect id="background" class="st0" width="3000" height="150"/>
<g id="earth">
	<circle class="st1" cx="2745" cy="75" r="158.8"/>
	<g>
		<g>
			<defs>
				<circle id="SVGID_1_" cx="2745" cy="75" r="158.8"/>
			</defs>
			<clipPath id="SVGID_2_">
				<use xlink:href="#SVGID_1_"  style="overflow:visible;"/>
			</clipPath>
			<path class="st2" d="M2804.8-81.3c-1.9,2-0.5,4.1-1,6.3c-0.4,2-1,3.1-1.1,5.2c-0.2,4.4-4,9.9-6.8,13.2c-3.5,3.9-7.9,5.7-11.6,9
				c-1.9,1.6-4.8,2.3-6.4,4.2c-2.1,2.4-1.6,6-3.6,8.5c-1.4,1.9-3.3,3.4-4.8,5.3c-1.6,2-3.7,2.7-5.8,4.2c-4.8,3.2-9.8,6.1-13.7,10.5
				c-0.8,0.9-1.4,2.2-2.4,3c-1.4,1.3-2.7,1.5-4,3c-1.8,2-2,4.7-3.1,7.1c-0.9,2.2-3.7,4.2-3.1,6.8c0.4,1.8,3.9,6,5.1,7.4
				c3,3.3,7.4,2.4,11.6,2.3c4.3-0.1,12.1-4.5,15.9-1.7c2,1.5,1.1,5.1,2.1,7.1c1.7,3.2,6,1.4,8.6,2.2c2.5,0.8,4.8,3,7,4.1
				c2.4,1.2,4.7,1.1,7.4,1c12.2-0.3,20.7-10.3,32.1-13.2c5.4-1.3,10.7-3.3,16.1-5c2.3-0.7,5.2-2.5,7.6-2.8c4.2-0.4,5.3,4.2,7.4,7
				c3.8,5,8.8,5.5,14.8,5.5c3.3,0,7.1-0.5,10.4,0.2c3.4,0.8,5.8,2.4,8.9,4c2,1.1,4.2,1.9,6.2,3.1c2.8,1.7,5.2,3.3,7.8,0.5
				c2.3-2.5,4-5.7,5.8-1.1c1.6,3.9,3.2,6.9,3.2,11.2c0,6.2,0,12.4,0,18.5c0,2.3,0.6,3.9,1,6.1c0.5,2.8,0,5.2,1.1,8
				c1.3,3.1,1.7,7.2,0.9,10.6c-0.7,3-4.1,6.1-6.1,8.2c-2.2,2.3-5.3,3.6-8.4,4.2c-1.5,0.3-3,0.1-4.5,0.2c-2.6,0.1-5.1,1-7.7,1.1
				c-5.7,0.3-11.5-0.2-17.2-0.1c-3.3,0.1-4.7,1.6-7.6,3c-2.9,1.3-6.3,2.4-9.4,2.4c-3.4,0-7.1-0.7-9.6-3.2c-2.3-2.3-2.3-5.4-2.8-8.5
				c-0.6-3.8-2.3-6.7-5.3-9.3c-2.2-2-5.4-2.4-7.8-4.3c-2.3-1.8-4.3-4.1-7.4-3.6c-3,0.5-4.7,3.1-8.1,2.5c-3.3-0.6-4.5-5-7.5-5.3
				c-3.8-0.5-3.1,7.4-3.1,9.8c0,5.4,2.5,9.7-1.3,14.5c-1.5,1.9-3.6,2.2-5.6,3.5c-2.2,1.4-3.7,3.1-5.7,4.8c-3.2,2.9-6.1,3.9-7.4,8.1
				c-0.9,3.1-1.3,7.7-3.7,9.8c-2.5,2.1-6.2,1.9-9.2,2.9c-2.7,0.8-5.4,2.1-8.2,2.5c-5,0.6-9.7-0.6-14.7,0.7c-3.9,1-8.2,1-9.4,5.6
				c-0.8,3.2,0,5.8,2.9,7.4c2.9,1.7,5.5,3.3,8.5,4.4c3.4,1.2,3.2,4.1,3.2,7.2c0,1.8-0.3,3.7,0.2,5.5c0.9,3.2,4.8,4.8,7.5,6.1
				c3.1,1.5,5.4,0.6,8.7,0.5c3.2-0.1,5.3,3.3,8.1,4.8c3,1.6,6.6,2.7,9.7,4.2c3.1,1.5,10.2,0.8,12,4.1c-1.6,3.9-4.6,7.5-7.3,10.6
				c-2.3,2.7-6,6.1-7.1,9.7c-1.2,3.9,1.8,7.8,3.1,11.2c1.2,3.2,2.1,6,2,9.4c0,2.1-0.4,4.5,0.2,6.6c0.6,2.3,2.5,3.9,3,6.3
				c0.5,2.4,0.4,6,3.3,7.3c2.9,1.3,5.4-0.4,8.2,2.1c2.9,2.6,2.5,5.2,6.4,6.8c1.9,0.8,3.4,0.7,5.5,0.7c1.8,0,4.3-0.4,6.1-0.1
				c2.6,0.6,4.6,1.1,7.3,1.1c4.9,0,9.9,0,14.8,0c3.4,0,6.5,0.2,9.8-0.8c3.8-1.1,7.4-2.5,11.3-3.5c3.8-1,7.6-1.8,11-3.9
				c5.4-3.3,11.6-2.7,17.6-4.4c3.9-1.2,9-2.4,12.6-4.1c2.2-1.1,3.1-3,4.2-4.9c2.9-4.8,5.1-9.7,8.2-14.4c4.8-7.1,10.5-13.7,14.4-21.4
				c2.7-5.4,5.3-11,7.8-16.5c3.1-6.8,5.6-14,8.5-21c3.3-8.2,6.4-16.5,8.4-25.1c3.6-15.7,9.7-30.8,12.7-46.4
				c1.5-7.6,2.1-14.9,2.2-22.7c0.1-14.7-3.6-28.5-7.4-42.6c-5.7-21.1-20.1-38.1-29.6-57.5c-3.4-7-8.1-14.2-14.6-18.7
				c-6.8-4.8-14.8-5.1-22.5-7.2c-6.1-1.6-11.5-4.4-17.4-6.4c-5.2-1.8-10.5-2.1-15.9-2.1c-10.3,0-20.5-0.1-30.8,0
				c-7.4,0-14.2-2.9-20.9-5.7c-2.6-1.1-5-3.2-8-2.8c-4.3,0.6-4.9,4.7-4.7,8.5"/>
		</g>
		<g>
			<defs>
				<circle id="SVGID_3_" cx="2745" cy="75" r="158.8"/>
			</defs>
			<clipPath id="SVGID_4_">
				<use xlink:href="#SVGID_3_"  style="overflow:visible;"/>
			</clipPath>
			<path class="st3" d="M2604.6-13.8c-0.4,2.1,2.8,4.9,4.2,6.4c0.9,1,1.3,1.1,2.4,1.8c0.5,0.1,1.1,0.3,1.6,0.4
				c1.1,0.6,1.9,1.6,2.4,2.8c3.4,3,7.5,7.1,11.7,8.9c2,0.9,5.2,0.6,6.6,2.5c1.8,2.4-0.2,5.4-1.6,7.5c-2.5,4-2.1,7.2-2.1,11.8
				c0,7.4,0,14.8,0,22.2c0,8.1,3.5,15.7-2.6,22.6c-3.8,4.4-7,6.8-6.9,13.2c0.1,6.6-0.8,13.4,1.3,19.8c1.5,4.3,3.6,7.8,7.1,10.8
				c2.6,2.3,5.3,3,8.5,4.2c3.9,1.5,7.5,0.8,11.6,1c4.7,0.2,4.2,4.8,4.2,8.5c0,3.5,0,7,0,10.5c0,4.4-1.1,9-2.2,13.2
				c-0.6,2.3-2.1,3.8-3.1,5.9c-1.8,3.8-1,8.4-1,12.5c0,2.6-0.5,5.6-0.1,8.2c0.4,2.5,2.1,5.2,3.2,7.6c1.6,3.6,4.8,4,8.6,3
				c1.9-0.5,4.1-2.9,6.2-2.6c2.3,0.3,4.1,4.6,5.5,6c2.6,2.4,3.4,3.3,3.9,7.3c0.4,3.2,0.5,6.3,1,9.5c0.5,3.8-2.9,6.8-3,10.6
				c-0.1,3.4-0.2,6.4,1.3,9.4c1.3,2.5,1.3,4.8,2.1,7.5c0.9,2.8,3,5,4.1,7.6c2.4,5.6-3.1,9.9-7.6,12.5c-5.5,3.1-13.8,0.1-19.1-2.3
				c-2.8-1.3-4.7-3.8-7.1-5.6c-2.5-1.8-3.7-3.6-5.3-6.1c-1.4-2.2-3.3-4.3-5.2-6.1c-2.3-2-5.4-3.1-7.4-5.5c-1.8-2.1-2.7-3.8-5.3-5.1
				c-1.5-0.8-2.8-1.1-4.1-2.3c-1.8-1.6-4.1-4.3-5.5-6.3c-2.9-4.1-3.6-9-7.6-12.4c-2.2-1.9-4.5-3.7-6.6-5.9c-2-2.1-2.6-4.9-3.5-7.6
				c-2.1-6.5-4.5-12.8-7-19.1c-2-5.2-4.2-10.4-4.9-16c-0.8-5.7,0.1-12.1,0.1-17.8c0-8.8,0-17.6,0-26.4c0-3.9,0-7.8,0-11.7
				c0-3.7,0.9-6.7,1.1-10.3c0.3-6.5,2.1-13.1,0.8-19.7c-0.6-3.2-1.5-7.2-2.9-10.1c-1.6-3.3-3-5.9-3.2-9.7c-0.3-6.2,0-12.5,0-18.8
				c0-2.5,0-4.9,0-7.4c0-3.6,1.8-5,3.2-8.4c0.6-1.4,0.7-2.9,1.2-4.3c0.7-1.9,1.7-2.6,2.7-4.2c1.5-2.2,1.4-4.9,2.8-7.3
				c0.8-1.3,1.8-2.1,2.7-3.2c1.3-1.6,1.5-2.7,2.3-4.5c1.3-2.9,3.9-4.9,6.1-7.1"/>
		</g>
		<g>
			<defs>
				<circle id="SVGID_5_" cx="2745" cy="75" r="158.8"/>
			</defs>
			<clipPath id="SVGID_6_">
				<use xlink:href="#SVGID_5_"  style="overflow:visible;"/>
			</clipPath>
			<path class="st4" d="M2695.2,42.1c-4,2.4-6.7,4.6-9.5,8.2c-2.3,2.9-6.5,5.3-7.9,8.8c-1.4,3.4,1.9,7.2,3.7,10
				c0.9,1.4,2.4,2.4,3.2,3.8c1.5,2.5,1,5.6,1,8.4c0,3.7-0.6,7.4-2.8,10.5c-1,1.4-2.2,1.8-3.5,2.8c-2.2,1.7-2.4,3.7-1.8,6.4
				c0.6,3.1,1.8,5.8,3.1,8.6c0.9,2,1.3,3.8,2,5.8c0.5,1.6,1.8,2.8,2.7,4.3c2.1,3.8,2.8,8.3,5.1,12.1c2.2,3.5,4.1,7.2,6.1,10.8
				c1.8,3.5,5,5.7,7.2,9c3.8,5.9,4.2-2.9,4.2-6.1c0-3.4-0.7-7.4,0.2-10.7c0.4-1.6,1.5-4.2,2.5-5.7c1.3-1.8,3.2-2.7,4.1-4.8
				c1.8-4.1,1.6-9.3,1.6-13.7c0-4.7-2.4-7.2-4-11.5c-0.6-1.8-1.1-3.7-2-5.3c-1.2-2.1-1.8-3-0.5-5.4c2-3.5,5.4-6.1,8-9
				s4.1-6.4,6.3-9.5c1.1-1.5,1.4-3.6,2.8-4.7c2.1-1.7,3.7-0.6,5.9-0.1c2.8,0.6,6,0.2,8.9,0.2s6.7,0.7,9.5-0.2
				c3.6-1.1,6.2-5.2,4.1-8.5c-2.3-3.6-8.1-5.5-11.8-7.6c-1.8-1.1-4-1.8-5.7-2.9c-1.5-1-2.8-2.5-4.2-3.6c-1.4-1-2.6-2.4-3.9-3.5
				c-2.5-2-2.5-4-3.9-6.7c-1-2-2.7-3.5-3.7-5.5c-0.9-1.8-1.4-3.1-2.7-4.7c-3.3-4.2-7.8-5.8-12.1-8.9c-3.6-2.6-2.7-6.3-2.7-10.4
				c0-2.2-0.5-5,0.1-7.1c0.5-1.9,2.1-4.3,3.1-6.1c1.1-2,2.1-3.2,2.2-5.6c0.1-1.5,0-3.2-0.1-4.7c0-1.6-0.5-2.3-0.8-3.7
				c-0.4-1.4-0.1-2.8-0.5-4.2c-0.5-1.8-1.9-4-4-3.9c-2.2,0.1-4.3,3.3-5.3,4.9c-1.4,2.2-2.8,4.4-4.2,6.6c-1.7,2.8-3.2,4.2-5.6,6.4
				c-1.8,1.6-2.8,2.7-4.9,3.6c-2.6,1.2-3.4,2-4.6,4.6c-2.1,4.5-3.1,9.7-3.8,14.6c-0.9,6.1,3.3,9,7.7,12.1c2.1,1.4,3.1,2.1,2.1,4.8
				c-0.8,2.2-1.9,4.9-3.1,6.9c-2,3.5-8.6,7.1-5.5,11.5c1.6,2.2,4.3,2.9,6.9,2.8c2.7-0.1,4.8-2.6,7.5-2.2"/>
		</g>
		<g>
			<defs>
				<circle id="SVGID_7_" cx="2745" cy="75" r="158.8"/>
			</defs>
			<clipPath id="SVGID_8_">
				<use xlink:href="#SVGID_7_"  style="overflow:visible;"/>
			</clipPath>
			<path class="st5" d="M2754.2-91.8c3.1,2.8,8.2,3.8,9.3,8.4c0.7,2.6-0.3,3.5-2,5.3s-3,3.8-4.6,5.7c-7,7.8-9.1,16.7-9.1,27
				c0,3.3-0.6,7.2-0.1,10.5c0.7,4.7,6.2,6.1,10.4,6.4c6.4,0.4,12.9-0.1,19.1-1c2.8-0.4,5.7,0,8.5-0.1c3.2-0.1,4.6-0.5,5.2,3.1
				c0.5,2.8-0.5,5.7,0.1,8.4c0.6,2.8,2.4,4.6,4.4,6.4c3.3,3,6.8,4.1,8.5,8.6c1.8,4.9,0.3,9.9-2.9,13.5c-1.4,1.6-3.4,4-5.2,5.2
				c-1.6,1.1-3.7,1.7-5,3.2c-1.4,1.7-2.2,2.7-3.9,4.2c-2.4,2-2.7,4.1-3.4,7.1c-1,4.5-0.9,8.8-2.8,13c-0.9,2-1.4,4.9-2.6,6.7
				c-1.1,1.6-4.3,2.5-4.3,4.8c0,3.5,7.2,5.2,9.6,5.3c5.9,0.3,12-0.1,17.9-0.1c2.3,0,5.8,0.7,7.9-0.6c1.9-1.1,2.7-2.4,4.9-3.2
				c4.5-1.8,8.6-4.3,12.8-6.7c4-2.3,8.2-4.9,12.4-6.6c3.1-1.3,6-3.8,9.5-4c5.7-0.3,12.4,1.2,17.9-0.5c3.9-1.2,8.7-2.2,12.3-4.3
				c4.2-2.6,7.6-8.1,10.8-11.8c5-5.9,5-19.6-0.4-25c-2-2-3.3-3.1-4.7-5.6c-1.2-2.1-2.1-4.7-3.4-6.7c-1.1-1.7-3-2.6-4.1-4.3
				c-1.5-2.6-1.2-6.2-1-9.1c0.2-4.6,2-9.2,2.2-13.8c0.1-4.8,0.3-9.9,0-14.7c-0.3-4.4-3.8-9.4-6.6-12.8c-4.7-5.9-10.3-11.7-17.1-15.2
				c-6.6-3.4-14-6.1-20.9-8.5c-2.3-0.8-4.7-1.6-7-2.5c-3.5-1.4-5.7-4.5-9.2-5.7c-4.8-1.7-9.8-1.8-14.8-1.8c-3.3,0-7.3-0.7-10.5-0.1
				c-2.8,0.5-4.5,2.8-7.4,3.3c-2.8,0.5-5.3,0.9-8.2,1.6c-1.9,0.5-3.7,0.5-5.6,1.2c-3.3,1.3-4.8,2.6-8.7,2.4"/>
		</g>
		<g>
			<defs>
				<circle id="SVGID_9_" cx="2745" cy="75" r="158.8"/>
			</defs>
			<clipPath id="SVGID_10_">
				<use xlink:href="#SVGID_9_"  style="overflow:visible;"/>
			</clipPath>
			<path class="st6" d="M2655.2-2.2c6.8,5.8,12.6,8.5,21.6,8.4c3.2,0,5.8-0.1,8.8-1c4-1.2,8.2-3.7,12.5-3.2
				c3.7,0.4,7.6,2.1,10.5,4.3c3.8,2.8,7.9,4.2,12.7,4.2c2.5,0,5,0,7.5,0c3.2,0,11.5-1.8,8.2,3.6c-2,3.3-6,6.5-9.2,8.5
				c-1.9,1.2-3.8,2.2-5.3,3.9c-0.6,0.7-0.8,1.6-1.5,2.2c-1,0.9-2.4,0.9-3.5,1.6c-3.3,2.3-4.9,7.8-4.5,11.5c0.4,4.5,3.5,7,6,10.3
				c2.7,3.6-1.2,5-4.3,5.6s-6.1,1-9.1,1.9c-3.6,1-6.7,1.4-10.4,1.3c-2.6,0-5.9,0.6-8.4,0.1c-2.3-0.5-3.8-2.2-6.3-2.3
				s-5.3-0.2-7.7,0.3c-4.8,1-6.1,5.1-8.1,9c-2.2,4.3-4.7,8.6-7.8,12.4c-1.8,2.2-3.6,2.9-5.8,4.7c-2.5,1.9-4.4,4.1-6.5,6.4
				c-1.8-0.2-2.9-3.1-4.2-4.3c-1.8-1.8-2.9-2.4-5.5-1.9c-3.2,0.6-5,3-7.2,4.9c-1.8,1.5-3.4,3.3-6.1,2.2c-4.3-1.8-3.4-8.9-3.3-12.6
				c0.1-4.2-0.7-8.5-1.8-12.6c-1.2-4.2-3.1-9.3,0.7-12.6c2.7-2.4,7.5-4.9,5.3-9.5c-1.7-3.5-9.6-2.1-12.8-2.1c-4.3,0-7.5,0-11.6-1.3
				c-2.3-0.7-5.2-0.8-7.2-2.1c-1.7-1-2.3-2.6-3.6-4c-1.6-1.7-4-2.6-5.6-4.1c-1.8-1.8-2.7-4.2-3.2-6.7c-0.3-1.8-0.9-6.3-0.1-8.1
				c1.1-2.6,5.2-2.1,7.3-2.1c2.3,0,4.3-0.5,6.5-1.1c8.2-2.1,17,0.1,25.1-3.4c2.1-0.9,3.8-2,5-3.9c1.2-2,1.1-4.1,3.6-5.2
				c4.4-2,10.7,2,14.6-2.2"/>
		</g>
		<g>
			<defs>
				<circle id="SVGID_11_" cx="2745" cy="75" r="158.8"/>
			</defs>
			<clipPath id="SVGID_12_">
				<use xlink:href="#SVGID_11_"  style="overflow:visible;"/>
			</clipPath>
			<path class="st7" d="M2610.9,205.4c2.1-2.6,10.7-1.1,13.7-1.1c4.1,0,7.6,0,11.5-1.3c2.9-0.9,4.7-1.5,7.7-1.8c2-0.3,4.1-0.8,6-1.2
				c5-1,8.9-3.9,12.2-7.8c2.5-2.9,3.6-6.7,6.3-9.6c3.4-3.6,6-7.7,9.3-11.4c1.8-2,2.7-1.2,5-0.8c2.4,0.4,4.7,0.3,7.2,0.3
				c5.1,0,9.8-0.1,14.8-1.5c3.9-1.1,7-4.3,10.8-5.6c2.1-0.8,3.8-0.5,6-1.7c2.3-1.3,4.5-2.6,6.9-3.8c3.6-1.7,7-4.3,10.9-5.6
				c4.2-1.4,11.7-1.7,16.1-0.6c4.5,1.2,8.8,3,13.5,3.3c4.3,0.3,7.9-3.4,11.5-5.6c3.4-2,7.1-4.1,11-5.1c2.6-0.7,5.4,0.4,8-0.4
				c1.9-0.6,4.7-1.9,6.3-2.9c3.1-2,5.4-6.8,9.8-6.5c2.2,0.2,3.5,2.2,4,4.3c0.6,2.8-1.4,4.7-3,6.6c-1.5,1.8-2.8,3-4.7,4.5
				s-2.7,3.4-4.3,5.2c-1.4,1.6-3.2,2.5-4.8,3.8c-1.5,1.2-4,2.6-5.1,4.1c-1.5,2.1-0.8,4.9-1.1,7.2c-0.5,3-1.8,3.1-4.1,5
				c-2.9,2.5-5.7,5.5-8.8,7.9c-1.9,1.4-4.3,1.7-6.2,3.1c-1.7,1.3-2.3,3.6-4.1,4.7c-3.4,2-10.9,1.1-14.2-0.8
				c-3.8-2.2-7.7-3.8-12.2-3.9c-4.8-0.1-8.9,3.5-11.2,7.5c-2.1,3.5-5.1,6-7,9.7c-2.2,4.6-5.4,4.6-9.9,5.5c-4.1,0.9-7.6,1.8-10.8,4.7
				c-3,2.7-2.9,8.1-2.1,11.9c0.5,2.5,1.6,5.8,0.7,8.4c-1.4,4.4-9.8,7.3-13.6,8.5c-5.3,1.6-10.6,3.4-15.9,5c-4,1.2-8.3,3-12.6,3.2
				c-5.7,0.3-10.9,2.1-16.6,2.1c-4.6,0-11.4,1.3-15.5-1c-3.8-2.1-5.8-5.9-7.1-9.8c-1-3-2.3-5-2.8-8.3c-0.3-2.1-0.5-4-1.8-5.8
				c-1.6-2.1-3.9-2.9-5.5-4.7c-1.7-1.8-1.8-4.4-3.3-6.5c-0.7-0.9-1.5-1.2-2.2-2.2c-0.7-1.1-0.5-2.7-1.2-3.8
				c-0.8-1.3-1.9-1.6-2.8-2.6c-1.1-1.2-1.2-2.9-2.3-4"/>
		</g>
		<g>
			<defs>
				<circle id="SVGID_13_" cx="2745" cy="75" r="158.8"/>
			</defs>
			<clipPath id="SVGID_14_">
				<use xlink:href="#SVGID_13_"  style="overflow:visible;"/>
			</clipPath>
			<path class="st8" d="M2736.3,82.1c-6.9-0.1-12.4,2.4-12.4,9.7c0,2.2,0.3,2.4-1.2,4c-1,1.1-2.9,2.4-4.3,3c-3,1.1-6.2,1.4-9.2,2.6
				c-3.1,1.2-5.6,3.4-8.7,4.8c-3.6,1.6-6.2,2.9-5.3,7.7c1.1,6.2,14.5,7.8,19.2,6.2c3.3-1.1,6.7-1.8,9.9-3.2c1.7-0.7,2.8-1.7,4.7-2
				c2.1-0.4,2.4-0.4,3.8-2.2c1.1-1.5,2.1-2.6,2.5-4.4c0.5-2,0.1-2.4,1.7-3.7c2.6-2.1,7.4-2.4,10.5-3c3.8-0.7,6.6-0.8,8.4-4.7
				c1.2-2.6,0.7-5.5-1-7.8c-2.9-3.9-5.8-2.1-10-2.8C2740.9,85.6,2739.1,84.9,2736.3,82.1"/>
		</g>
	</g>
	<path class="st9" d="M2626.2,75c0-80.9,60.5-147.7,138.8-157.6c-6.6-0.8-13.2-1.3-20-1.3c-87.7,0-158.8,71.1-158.8,158.8
		s71.1,158.8,158.8,158.8c6.8,0,13.5-0.4,20-1.3C2686.8,222.7,2626.2,155.9,2626.2,75z"/>
	<circle class="st10" cx="2745" cy="75" r="171.4"/>
	<circle class="st10" cx="2745" cy="75" r="182"/>
	<g>
		<g>
			<defs>
				<circle id="SVGID_15_" cx="2745" cy="75" r="158.8"/>
			</defs>
			<clipPath id="SVGID_16_">
				<use xlink:href="#SVGID_15_"  style="overflow:visible;"/>
			</clipPath>
			<circle class="st11" cx="2859.5" cy="75" r="158.8"/>
		</g>
		<g>
			<defs>
				<circle id="SVGID_17_" cx="2745" cy="75" r="158.8"/>
			</defs>
			<clipPath id="SVGID_18_">
				<use xlink:href="#SVGID_17_"  style="overflow:visible;"/>
			</clipPath>
			<circle class="st12" cx="2879.2" cy="75" r="158.8"/>
		</g>
		<g>
			<defs>
				<circle id="SVGID_19_" cx="2745" cy="75" r="158.8"/>
			</defs>
			<clipPath id="SVGID_20_">
				<use xlink:href="#SVGID_19_"  style="overflow:visible;"/>
			</clipPath>
			<circle class="st13" cx="2987.4" cy="75" r="158.8"/>
		</g>
	</g>
</g>
<g id="moon">
	<g>
		<defs>
			<circle id="SVGID_21_" cx="2470.1" cy="74.9" r="42.9"/>
		</defs>
		<clipPath id="SVGID_22_">
			<use xlink:href="#SVGID_21_"  style="overflow:visible;"/>
		</clipPath>
		<circle class="st14" cx="2470.1" cy="74.9" r="42.9"/>
	</g>
	<g>
		<defs>
			<circle id="SVGID_23_" cx="2470.1" cy="74.9" r="42.9"/>
		</defs>
		<clipPath id="SVGID_24_">
			<use xlink:href="#SVGID_23_"  style="overflow:visible;"/>
		</clipPath>
		<path class="st15" d="M2438,74.9c0-21.9,16.4-39.9,37.5-42.6c-1.8-0.2-3.6-0.3-5.4-0.3c-23.7,0-42.9,19.2-42.9,42.9
			s19.2,42.9,42.9,42.9c1.8,0,3.6-0.1,5.4-0.3C2454.4,114.8,2438,96.8,2438,74.9z"/>
	</g>
	<g>
		<defs>
			<circle id="SVGID_25_" cx="2470.1" cy="74.9" r="42.9"/>
		</defs>
		<clipPath id="SVGID_26_">
			<use xlink:href="#SVGID_25_"  style="overflow:visible;"/>
		</clipPath>
		<path class="st16" d="M2492.2,32.7c0.3,0.3-0.5,1.6-0.7,1.8c-0.5,0.5-1.2,1-1.8,1.5c-0.4,0.3-1,0.6-1.4,0.7
			c-0.3,0.1-0.6,0.1-0.9,0.2c-0.3,0.1-0.7,0.1-0.9,0.3c-0.5,0.6-0.7,1.4-1.3,2c-0.4,0.4-1.4,1-2,1.1c-0.8,0.2-1.7,0.2-2.5,0.4
			c-0.3,0.1-0.6,0.2-0.9,0.2c-0.3,0-0.5,0-0.8,0s-0.6,0.2-0.9,0.2c-0.3,0-0.6,0.1-0.9,0.1c-0.3,0.1-0.6,0-0.9,0
			c-0.3,0-0.5,0.1-0.7,0.2c-0.3,0.1-0.6,0-0.9,0.1c-0.4,0.1-0.6,0.3-1,0.5s-0.8,0-1.2,0.2c-0.3,0.1-0.8,0.3-1,0.5
			c-0.6,0.4-1.1,1-1.7,1.4c-0.6,0.4-1.4,0.6-2.2,0.7c-0.4,0.1-0.8,0.2-1.2,0.4c-0.4,0.1-0.8,0.1-1.1,0.2c-0.8,0.2-1.5,0.6-2.2,0.8
			c-0.8,0.2-1.5,0.5-2.2,0.8c-0.8,0.4-1.8,0.4-2.7,0.7c-0.7,0.2-1.4,0.4-2,0.5c-0.4,0.1-0.7,0.1-1,0.3c-0.4,0.2-0.9,0.4-1.2,0.6
			c-0.3,0.2-0.4,0.6-0.7,0.9c-0.4,0.4-0.7,0.5-1.2,0.7c-0.8,0.3-1.4,0.9-2.3,1c-0.3,0.1-0.7-0.1-1,0s-0.6,0.3-0.9,0.4
			c-0.3,0.1-0.4,0.1-0.7,0.1c-0.4,0.1-0.7,0.3-1,0.6c-0.6,0.6-0.6,1.1-0.6,1.9c0,0.6-0.2,1.5,0.1,2c0.3,0.7,1.5,1,1.7,1.8
			c0.2,0.7-0.1,1.4-0.5,2c-0.5,0.7-0.6,1.5-0.9,2.3c-0.1,0.3-0.1,0.4-0.1,0.7c0,0.4-0.2,0.8-0.2,1.2c0,0.6-0.2,1.1-0.2,1.7
			c0.1,0.8,0.8,0.9,1.5,0.9c0.6,0,1.2,0,1.8-0.1c1-0.3,2.1-0.5,3.1-0.6c1.3-0.1,2.6,0,3.9,0c1.1,0,2.3-0.1,3.3,0
			c0.8,0.1,1.6,0.5,2.3,0.9c0.2,0.2,0.4,0.4,0.7,0.5c0.4,0.1,1,0,1.4,0c0.6,0,1-0.1,1.6-0.2c0.5-0.1,0.9,0,1.4-0.3
			c0.8-0.4,1.5-0.8,2.2-1.3c0.5-0.3,0.9-0.3,1.4-0.3c0.8,0,1.5-0.1,2.3,0c1.2,0.1,2.3,0.8,3.3,1.3c0.3,0.2,0.7,0.3,1,0.4
			c0.7,0.2,1,0,1.6-0.3c0.8-0.4,1.9-0.7,2.8-0.5c1,0.1,2.1,0.2,3,0.6c0.3,0.1,0.5,0.3,0.8,0.4c0.3,0.2,0.8,0.3,1.1,0.5
			c0.5,0.4,1.2,1.5,1.2,2.1c0,0.4-0.5,0.7-0.6,1.1c-0.2,0.5-0.2,0.9-0.6,1.3c-0.2,0.2-0.5,0.4-0.6,0.7c-0.2,0.4-0.3,1-0.4,1.4
			c0,0.2-0.1,0.6,0,0.8c0.1,0.5,0.5,0.7,1,0.9c0.4,0.2,0.8,0.3,1.3,0.4s1,0.5,1.5,0.7s1,0.4,1.5,0.7c0.3,0.2,0.7,0.5,1,0.8
			c0.4,0.5,0.5,1.1,0.8,1.6c0.4,0.6,0.7,1.4,0.7,2.1c0,1.2-0.6,2-1.1,3.1c-0.1,0.3-0.2,0.6-0.4,0.9c-0.1,0.2-0.4,0.4-0.4,0.6
			c-0.1,0.5,0.4,0.6,0.8,0.7c0.6,0.2,1.3,0.4,2,0.6c1,0.3,1.9,0.3,2.9,0c1.2-0.4,2.6-0.8,3.5-1.7c0.5-0.5,1.1-0.9,1.4-1.5
			c0.3-0.5,0.4-1,0.6-1.5c0.4-0.8,0.7-1.7,0.9-2.5c0.3-1.2,0.4-2.4,0.2-3.6c-0.2-1.1-0.7-2-1-3.1c-0.6-2.1-0.4-3.9,1.1-5.5
			c0.3-0.3,0.4-0.7,0.7-1s0.7-0.6,1-0.9c0.3-0.4,0.6-0.9,0.8-1.3c0.5-0.9,0.9-1.3,1.8-1.8c0.6-0.3,1.4-0.3,2-0.6
			c0.6-0.3,1-1.3,1.3-1.8c0.3-0.6,0.6-1.1,1-1.7c0.3-0.4,0.6-0.8,0.9-1.2c0.4-0.6,0.9-1.1,1.1-1.9c0.2-0.9,0.4-1.8,0-2.6
			c-0.4-1.1-0.7-2-1.4-2.9c-0.8-1-2-1.6-2.8-2.6c-0.4-0.5-0.6-1.2-0.9-1.8c-0.5-0.8-1-1.6-1.5-2.4c-1.2-2-2.9-3.8-4.3-5.7
			c-1.1-1.3-2.1-2.5-3.4-3.5c-0.7-0.6-1.7-0.8-2.5-1.2s-1.6-0.9-2.4-1.3c-0.8-0.4-1.9-0.7-2.5-1.4"/>
	</g>
	<g>
		<defs>
			<circle id="SVGID_27_" cx="2470.1" cy="74.9" r="42.9"/>
		</defs>
		<clipPath id="SVGID_28_">
			<use xlink:href="#SVGID_27_"  style="overflow:visible;"/>
		</clipPath>
		<path class="st17" d="M2418.8,67.8c0,0.6,0.1,1,0.4,1.5c0.2,0.2,0.3,0.4,0.5,0.6c0.3,0.3,0.4,0.6,0.7,0.9c0.8,0.9,1.7,1.8,2.5,2.7
			c0.3,0.4,0.6,0.8,0.9,1.2c0.3,0.5,0.6,1.2,1.1,1.4c0.6,0.3,1.4,0.2,2-0.1c0.6-0.4,1.1-0.6,1.8-0.6s1.5-0.1,2.2,0.1
			c0.6,0.2,1.1,0.6,1.6,1c1.1,0.9,1.5,2.3,2.6,3.2c0.5,0.4,1,0.5,1.5,0.8s0.9,0.5,1.4,0.7c0.7,0.3,1.2,0.8,1.9,0.8
			c0.8,0.1,1.2,0.1,1.6,0.9c0.4,0.8,0.7,1.2,0.7,2.2c0,0.7,0,1.4,0,2.1c0,1.1-0.2,2.1-0.2,3.2s0,2.2,0,3.3c0,1.2,0.4,1.9,1.1,2.8
			c0.4,0.6,0.8,1.2,1.1,1.8c0.3,0.7,0.9,1,1.5,1.4c0.6,0.3,1.4,0.5,1.9,1c0.4,0.4,0.7,1.1,1.4,1.3c0.3,0.1,0.8,0,1.2,0
			c0.6,0,0.8,0.1,1.4,0.3c0.6,0.3,1.2,0.7,1.8,1c0.3,0.2,0.6,0.3,0.9,0.4c0.3,0.1,0.6,0.3,0.9,0.4c0.5,0.1,1.3,0,1.8,0
			c0.8,0,1.7,0,2.5,0c0.3,0,0.6,0,0.9,0c0.3,0,0.6-0.2,1-0.2c0.7,0,1.1-0.2,1.7-0.5c0.6-0.2,0.8-0.6,1.3-1c0.6-0.5,1.3-1,1.9-1.4
			c1.3-0.9,2,1.1,1.9,2.1c-0.1,0.5-0.5,1-0.8,1.5c-0.4,0.6-0.7,1.2-0.9,1.8c-0.2,0.5-0.1,1.1-0.3,1.7c-0.2,0.5-0.5,0.8-0.9,1.2
			c-0.4,0.5-0.8,1-1.3,1.5c-0.3,0.2-0.2,0.5-0.4,0.8c-0.2,0.4-0.6,0.7-1,0.8c-0.4,0.1-1.2,0.2-1.5,0.4c-0.5,0.4-0.6,1.6-0.1,2
			c0.2,0.2,0.5,0.3,0.7,0.6c0.1,0.2,0.1,0.5,0.1,0.8c0,0.4-0.2,0.8-0.2,1.2c-0.1,1.5,1.8,2,2.9,2.4c0.7,0.2,1.6,0.4,2.4,0.5
			c0.5,0.1,1,0,1.5,0c0.9,0,2.8,0,2.3,1.5c-0.3,0.8-1.9,1.5-2.6,1.7c-1.2,0.3-2.3,0.5-3.5,0.5c-2.2,0-4.4,0-6.6,0
			c-1.9,0-3.7,0.1-5.6-0.4c-1.1-0.3-2-0.7-3-1.2c-1.3-0.6-2.6-1.1-4-1.6c-2.2-0.8-4.5-1.4-6.7-2.4c-0.5-0.2-1-0.3-1.5-0.6
			c-0.6-0.3-1-0.6-1.6-0.8c-1.3-0.5-2.3-1.3-3.2-2.4c-1-1.2-1.9-2.6-2.8-4c-0.3-0.5-0.6-1-1-1.5c-0.6-0.8-1.4-1.4-2.1-2.1
			c-1.1-1.1-1.8-2.2-2.4-3.6c-0.5-1.2-1.1-2.5-1.8-3.7c-0.4-0.6-0.9-1.1-1.2-1.7c-0.2-0.5-0.4-1.1-0.7-1.6c-0.6-1.2-0.9-2.5-1.3-3.7
			c-0.3-0.8-0.4-1.5-0.6-2.3c-0.2-0.8-0.6-1.6-0.8-2.5c-0.4-1.2-0.5-2.4-0.7-3.7c-0.3-2.3-0.7-4.6-0.7-6.9c0-1,0-2.1,0-3.1
			c0-0.5,0-0.9,0.2-1.5c0.1-0.5,0.2-0.9,0.2-1.4c0-0.4,0.1-0.9,0.3-1.3c0.1-0.3,0.3-0.6,0.4-1c0.1-0.5,0-0.7,0.4-1"/>
	</g>
	<g>
		<defs>
			<circle id="SVGID_29_" cx="2470.1" cy="74.9" r="42.9"/>
		</defs>
		<clipPath id="SVGID_30_">
			<use xlink:href="#SVGID_29_"  style="overflow:visible;"/>
		</clipPath>
		<circle class="st18" cx="2501" cy="74.9" r="42.9"/>
	</g>
	<g>
		<defs>
			<circle id="SVGID_31_" cx="2470.1" cy="74.9" r="42.9"/>
		</defs>
		<clipPath id="SVGID_32_">
			<use xlink:href="#SVGID_31_"  style="overflow:visible;"/>
		</clipPath>
		<circle class="st19" cx="2506.4" cy="74.9" r="42.9"/>
	</g>
	<g>
		<defs>
			<circle id="SVGID_33_" cx="2470.1" cy="74.9" r="42.9"/>
		</defs>
		<clipPath id="SVGID_34_">
			<use xlink:href="#SVGID_33_"  style="overflow:visible;"/>
		</clipPath>
		<circle class="st20" cx="2535.6" cy="74.9" r="42.9"/>
	</g>
</g>
<g id="sun" class="st21">
	<circle class="st22" cx="181" cy="75" r="654"/>
	<circle class="st23" cx="181" cy="75" r="280"/>
	<circle class="st24" cx="181" cy="75" r="166"/>
	<circle class="st25" cx="181" cy="75" r="106"/>
	<circle class="st26" cx="181" cy="75" r="72"/>
	<circle class="st27" cx="181" cy="75" r="63"/>
	<circle class="st28" cx="181" cy="75" r="40"/>
</g>
<g id="limpet3" class="st29">
	<path class="st30" d="M658.7,123.4c-2.7,4.7-36.4,6.3-61.6,5.4c-25.1-0.9-52.1-2.9-75-0.8c-9.8,0.9-17.4,2.5-26.8,3.5
		c-16.1,1.8-35.7,1.8-54.4,1.8c-168.8,0.1-337.5,0.2-506.3,0.3c-21.5,0-43.1,0-64.2,0.8c-25.6,0.9-50,2.8-75.9,3.3
		c-47.2,1-93.4-2.7-140.8-3.5c-33.9-0.6-68,0.3-101.9,1c-121.2,2.6-244.3,2.8-364.8-0.7c79.1-2.8,159-4.8,239.3-6.1
		c39.2-0.6,78.5-1.1,117.3-2.3c64.1-2.1,127.6-6.4,192.4-5.2c39.8,0.7,78.1,3.5,118.1,3.8c36.6,0.3,72.6-1.5,108.5-3
		c97.1-3.9,197.5-4.9,296.4-3.1c34.8,0.6,70.2,1.6,104.5,0.4c28.2-1,55.6-3.6,84.2-3.1c14.1,0.3,27.5,1.3,41.3,1.9
		c57.8,2.6,124.1-1.8,174.9,3.9"/>
	
		<linearGradient id="SVGID_35_" gradientUnits="userSpaceOnUse" x1="1753.7438" y1="2645.2275" x2="1722.496" y2="2676.4753" gradientTransform="matrix(0.7071 0.7071 -0.7071 0.7071 1292.3657 -2985.9595)">
		<stop  offset="0" style="stop-color:#00FFFF"/>
		<stop  offset="0.1143" style="stop-color:#00E3F2"/>
		<stop  offset="0.3074" style="stop-color:#00BADF"/>
		<stop  offset="0.4967" style="stop-color:#009AD0"/>
		<stop  offset="0.6786" style="stop-color:#0084C5"/>
		<stop  offset="0.85" style="stop-color:#0076BE"/>
		<stop  offset="1" style="stop-color:#0071BC"/>
	</linearGradient>
	<polygon class="st31" points="664.8,126.2 677.6,124.5 664.8,122.9 668.8,117.7 663.6,121.7 661.9,108.8 660.3,121.7 655.1,117.7 
		659.1,122.9 612,124.5 659.1,126.2 655.1,131.4 660.3,127.4 661.9,140.3 663.6,127.4 668.8,131.4 	"/>
	<g>
		<rect x="676.6" y="113.6" class="st32" width="11.2" height="21.4"/>
		<rect x="665.4" y="113.6" class="st33" width="11.2" height="21.4"/>
		<rect x="665.4" y="120.1" class="st34" width="11.2" height="8.2"/>
		<rect x="676.6" y="120.1" class="st35" width="11.2" height="8.2"/>
		<polygon class="st36" points="662.8,115.4 662.8,123.7 662.8,124.9 662.8,133.2 665.4,135 665.4,124.5 665.4,124.1 665.4,113.6 		
			"/>
		<polygon class="st35" points="662.8,120.7 662.8,123.9 662.8,124.4 662.8,127.6 665.4,128.3 665.4,124.2 665.4,124.1 665.4,120.1 
					"/>
		<polygon class="st35" points="675.7,126.3 675.7,124.3 675.7,124 675.7,121.9 672,121.5 672,124.1 672,124.2 672,126.8 		"/>
		<rect x="676.6" y="113.6" class="st32" width="11.2" height="21.4"/>
		<rect x="665.4" y="113.6" class="st33" width="11.2" height="21.4"/>
		<rect x="665.4" y="120.1" class="st34" width="11.2" height="8.2"/>
		<rect x="676.6" y="120.1" class="st35" width="11.2" height="8.2"/>
		<polygon class="st34" points="662.8,115.4 662.8,123.7 662.8,124.9 662.8,133.2 665.4,135 665.4,124.5 665.4,124.1 665.4,113.6 		
			"/>
		<polygon class="st37" points="662.8,120.7 662.8,123.9 662.8,124.4 662.8,127.6 665.4,128.3 665.4,124.2 665.4,124.1 665.4,120.1 
					"/>
		<polygon class="st35" points="675.7,126.3 675.7,124.3 675.7,124 675.7,121.9 672,121.5 672,124.1 672,124.2 672,126.8 		"/>
		<g>
			<polygon class="st36" points="696.6,133.2 696.6,124.9 696.6,123.7 696.6,115.4 693.5,113.6 693.5,124.1 693.5,124.5 693.5,135 
							"/>
			<polygon class="st38" points="696.6,124.2 693.5,120.1 693.5,128.3 			"/>
			<rect x="687.9" y="113.6" class="st33" width="0.6" height="21.4"/>
			<rect x="688.5" y="113.6" class="st32" width="5" height="21.4"/>
			<rect x="688.5" y="120" class="st35" width="5" height="8.2"/>
		</g>
		<g>
			<g>
				<polygon class="st36" points="676.1,117.9 676.1,115.7 673.9,114.6 666.4,114.6 666.4,115.7 665.8,116.1 665.8,116.3 
					665.8,117.3 665.8,117.6 666.4,117.9 666.4,119.1 673.9,119.1 				"/>
				<path class="st39" d="M667.4,117.1c-0.4,0.3-1,0.3-1.3,0.1c-0.3-0.3-0.2-0.7,0.3-1c0.4-0.3,1-0.3,1.3-0.1
					C667.9,116.4,667.8,116.8,667.4,117.1z"/>
				<path class="st0" d="M667.2,116.9c-0.3,0.2-0.6,0.2-0.8,0s-0.1-0.5,0.2-0.6s0.6-0.2,0.8,0C667.6,116.5,667.5,116.8,667.2,116.9z
					"/>
				<polyline class="st40" points="674.9,115.1 673.6,116 673.6,117.3 675.1,118.5 				"/>
				<line class="st40" x1="676.1" y1="116.6" x2="673.6" y2="116.6"/>
			</g>
			<g>
				<polygon class="st36" points="676.1,130.7 676.1,132.8 673.9,134 666.4,134 666.4,132.8 665.8,132.5 665.8,132.2 665.8,131.3 
					665.8,131 666.4,130.6 666.4,129.4 673.9,129.4 				"/>
				<path class="st39" d="M667.4,131.4c-0.4-0.3-1-0.3-1.3-0.1c-0.3,0.3-0.2,0.7,0.3,1c0.4,0.3,1,0.3,1.3,0.1
					C667.9,132.2,667.8,131.7,667.4,131.4z"/>
				<path class="st0" d="M667.2,131.6c-0.3-0.2-0.6-0.2-0.8,0s-0.1,0.5,0.2,0.6s0.6,0.2,0.8,0C667.6,132.1,667.5,131.8,667.2,131.6z
					"/>
				<polyline class="st40" points="674.9,133.5 673.6,132.6 673.6,131.3 675.1,130.1 				"/>
				<line class="st40" x1="676.1" y1="132" x2="673.6" y2="132"/>
			</g>
		</g>
		<g>
			<polygon class="st41" points="677.7,127.3 678.4,127.3 678.8,126.8 678.4,126.3 677.7,126.3 677.4,126.8 			"/>
			<g>
				<g>
					<polygon class="st41" points="678.9,127.8 679.6,127.8 679.9,127.3 679.6,126.8 678.9,126.8 678.5,127.3 					"/>
					<polygon class="st41" points="678.9,126.7 679.6,126.7 679.9,126.2 679.6,125.7 678.9,125.7 678.5,126.2 					"/>
				</g>
			</g>
		</g>
		<g class="st42">
			<polygon class="st43" points="684.7,121.8 683.3,121.8 683,121.4 683,120.7 685,120.7 685,121.4 			"/>
			<polyline class="st43" points="683,123.4 683.9,122.8 684.1,123.4 684.7,123.4 685,123.2 685,122.3 683,122.3 			"/>
			<line class="st43" x1="684.2" y1="123.9" x2="684.2" y2="124.5"/>
			<polyline class="st43" points="684.7,126.3 685,126 685,126 685,125.3 684.7,125.1 683.2,125.1 682.9,125.3 682.9,125.4 
				682.9,126 683.2,126.3 684.7,126.3 684.8,126.3 			"/>
			<line class="st43" x1="684.9" y1="125.2" x2="683.1" y2="126.1"/>
			<polyline class="st43" points="682.8,127 683.9,127 684.5,127.6 685,127.6 685,126.7 684.7,126.5 			"/>
		</g>
		<polygon class="st35" points="671,127 671,124.3 671,123.9 671,121.2 669.7,120.7 669.7,124.1 669.7,124.2 669.7,127.6 		"/>
		<rect x="665.8" y="120.7" class="st35" width="3.9" height="6.9"/>
		<g>
			<rect x="681.1" y="114.9" class="st0" width="0.5" height="3.5"/>
			<rect x="681.1" y="130" class="st0" width="0.5" height="3.5"/>
		</g>
	</g>
	<rect x="679.6" y="112" class="st44" width="2.7" height="23"/>
	<g>
		<path class="st45" d="M669.3,112.3c0.9,10.6,10.1,1.6,10.1,1.6v-1.6v-1.6C679.4,110.7,670.2,101.7,669.3,112.3z"/>
		<path class="st45" d="M692.9,112.3c-0.9-10.6-10.1-1.6-10.1-1.6v1.6v1.6C682.8,113.9,692,122.9,692.9,112.3z"/>
		<path class="st44" d="M670.7,116.5c0,0-2.2-1.3,8.2-3.2l0.1,1C679,114.4,673.1,119.8,670.7,116.5z"/>
		<path class="st44" d="M691.5,116.5c0,0,2.2-1.3-8.2-3.2l-0.1,1C683.2,114.4,689.1,119.8,691.5,116.5z"/>
		<g>
			<path class="st45" d="M679.9,111.5c0,0,2.2,9.5-6.3,17.1l-0.5-3.1l-2.9,1c0,0,11.8-13.3,8.9-15.6
				C676,108.6,679.9,111.5,679.9,111.5z"/>
			<path class="st45" d="M682.3,111.5c0,0-2.2,9.5,6.3,17.1l0.5-3.1l2.9,1c0,0-11.8-13.3-8.9-15.6
				C686.2,108.6,682.3,111.5,682.3,111.5z"/>
		</g>
		<path class="st46" d="M682.1,114.7H680c-1.2,0-2.2-1-2.2-2.2v-0.2c0-1.2,1-2.2,2.2-2.2h2.1c1.2,0,2.2,1,2.2,2.2v0.2
			C684.4,113.7,683.4,114.7,682.1,114.7z"/>
	</g>
</g>
<g id="limpet2" class="st29">
	<g class="st47">
		<path class="st48" d="M691.9,34.2c-2.7,4.7-36.4,6.3-61.6,5.4c-25.1-0.9-52.1-2.9-75-0.8c-9.8,0.9-17.4,2.5-26.8,3.5
			c-16.1,1.8-35.7,1.8-54.4,1.8c-168.8,0.1-337.5,0.2-506.3,0.3c-21.5,0-43.1,0-64.2,0.8c-25.6,0.9-50,2.8-75.9,3.3
			c-47.2,1-93.4-2.7-140.8-3.5c-33.9-0.6-68,0.3-101.9,1c-121.2,2.6-244.3,2.8-364.8-0.7c79.1-2.8,159-4.8,239.3-6.1
			c39.2-0.6,78.5-1.1,117.3-2.3c64.1-2.1,127.6-6.4,192.4-5.2c39.8,0.7,78.1,3.5,118.1,3.8c36.6,0.3,72.6-1.5,108.5-3
			c97.1-3.9,197.5-4.9,296.4-3.1C327,30,362.4,31,396.7,29.8c28.2-1,55.6-3.6,84.2-3.1c14.1,0.3,27.5,1.3,41.3,1.9
			c57.8,2.6,124.1-1.8,174.9,3.9"/>
	</g>
	
		<linearGradient id="SVGID_36_" gradientUnits="userSpaceOnUse" x1="1713.8994" y1="2557.7871" x2="1661.9158" y2="2609.7708" gradientTransform="matrix(0.7071 0.7071 -0.7071 0.7071 1292.3657 -2985.9595)">
		<stop  offset="0" style="stop-color:#00FFFF"/>
		<stop  offset="0.1143" style="stop-color:#00E3F2"/>
		<stop  offset="0.3074" style="stop-color:#00BADF"/>
		<stop  offset="0.4967" style="stop-color:#009AD0"/>
		<stop  offset="0.6786" style="stop-color:#0084C5"/>
		<stop  offset="0.85" style="stop-color:#0076BE"/>
		<stop  offset="1" style="stop-color:#0071BC"/>
	</linearGradient>
	<polygon class="st49" points="700.3,37.3 721.7,34.6 700.3,31.8 707,23.1 698.3,29.8 695.5,8.4 692.8,29.8 684.1,23.1 690.8,31.8 
		612.4,34.6 690.8,37.3 684.1,46 692.8,39.3 695.5,60.7 698.3,39.3 707,46 	"/>
	<g>
		<rect x="719.9" y="16.3" class="st32" width="18.7" height="35.6"/>
		<rect x="701.2" y="16.3" class="st33" width="18.7" height="35.6"/>
		<rect x="701.2" y="27.1" class="st34" width="18.7" height="13.6"/>
		<rect x="720.1" y="27.1" class="st35" width="18.6" height="13.6"/>
		<polygon class="st36" points="697,19.3 697,33.1 697,35.1 697,49 701.2,51.9 701.2,34.4 701.2,33.8 701.2,16.3 		"/>
		<polygon class="st35" points="697,28.2 697,33.6 697,34.3 697,39.6 701.2,40.8 701.2,34 701.2,33.8 701.2,27.1 		"/>
		<polygon class="st35" points="718.4,37.6 718.4,34.1 718.4,33.6 718.4,30.2 712.3,29.5 712.3,33.8 712.3,34 712.3,38.3 		"/>
		<rect x="719.9" y="16.3" class="st32" width="18.7" height="35.6"/>
		<rect x="701.2" y="16.3" class="st33" width="18.7" height="35.6"/>
		<rect x="701.2" y="27.1" class="st34" width="18.7" height="13.6"/>
		<rect x="720.1" y="27.1" class="st35" width="18.6" height="13.6"/>
		<polygon class="st34" points="697,19.3 697,33.1 697,35.1 697,49 701.2,51.9 701.2,34.4 701.2,33.8 701.2,16.3 		"/>
		<polygon class="st37" points="697,28.2 697,33.6 697,34.3 697,39.6 701.2,40.8 701.2,34 701.2,33.8 701.2,27.1 		"/>
		<polygon class="st35" points="718.4,37.6 718.4,34.1 718.4,33.6 718.4,30.2 712.3,29.5 712.3,33.8 712.3,34 712.3,38.3 		"/>
		<g>
			<polygon class="st36" points="753.1,49 753.1,35.1 753.1,33.1 753.1,19.3 748.1,16.3 748.1,33.8 748.1,34.4 748.1,51.9 			"/>
			<polygon class="st38" points="753.1,33.9 748,27.1 748,40.8 			"/>
			<rect x="738.7" y="16.3" class="st33" width="0.9" height="35.6"/>
			<rect x="739.7" y="16.3" class="st32" width="8.4" height="35.6"/>
			<rect x="739.8" y="27.1" class="st35" width="8.3" height="13.6"/>
		</g>
		<g>
			<g>
				<polygon class="st36" points="719.2,23.5 719.2,19.9 715.5,18 703,18 703,19.9 702,20.5 702,20.9 702,22.5 702,23 703,23.6 
					703,25.5 715.5,25.5 				"/>
				<path class="st39" d="M704.6,22.2c-0.7,0.5-1.7,0.6-2.1,0.1c-0.5-0.4-0.3-1.2,0.4-1.7s1.7-0.6,2.1-0.1
					C705.5,21,705.3,21.7,704.6,22.2z"/>
				<path class="st0" d="M704.3,21.9c-0.4,0.3-1,0.4-1.3,0.1s-0.2-0.8,0.3-1.1c0.4-0.3,1-0.4,1.3-0.1
					C704.9,21.1,704.8,21.6,704.3,21.9z"/>
				<polyline class="st50" points="717.1,18.8 715,20.3 714.9,22.5 717.5,24.4 				"/>
				<line class="st50" x1="719.2" y1="21.3" x2="714.9" y2="21.3"/>
			</g>
			<g>
				<polygon class="st36" points="719.2,44.7 719.2,48.3 715.5,50.3 703,50.3 703,48.4 702,47.8 702,47.3 702,45.7 702,45.3 
					703,44.7 703,42.7 715.5,42.7 				"/>
				<path class="st39" d="M704.6,46c-0.7-0.5-1.7-0.6-2.1-0.1s-0.3,1.2,0.4,1.7s1.7,0.6,2.1,0.1S705.3,46.5,704.6,46z"/>
				<path class="st0" d="M704.3,46.3c-0.4-0.3-1-0.4-1.3-0.1c-0.3,0.3-0.2,0.8,0.3,1.1c0.4,0.3,1,0.4,1.3,0.1
					C704.9,47.1,704.8,46.6,704.3,46.3z"/>
				<polyline class="st50" points="717.1,49.4 715,48 714.9,45.8 717.5,43.8 				"/>
				<line class="st50" x1="719.2" y1="47" x2="714.9" y2="47"/>
			</g>
		</g>
		<g>
			<polygon class="st41" points="721.8,39.1 723,39.1 723.6,38.3 723,37.5 721.8,37.5 721.2,38.3 			"/>
			<g>
				<g>
					<polygon class="st41" points="723.7,40 724.9,40 725.5,39.2 724.9,38.3 723.7,38.3 723.1,39.2 					"/>
					<polygon class="st41" points="723.7,38.2 724.9,38.2 725.5,37.4 724.9,36.6 723.7,36.6 723.1,37.4 					"/>
				</g>
			</g>
		</g>
		<g class="st42">
			<polygon class="st51" points="733.5,29.9 731.1,29.9 730.6,29.4 730.6,28.2 734,28.2 734,29.4 			"/>
			<polyline class="st51" points="730.6,32.7 732,31.7 732.4,32.6 733.4,32.6 734,32.3 734,30.8 730.6,30.8 			"/>
			<line class="st51" x1="732.6" y1="33.6" x2="732.6" y2="34.6"/>
			<polyline class="st51" points="733.5,37.4 734,37 734,37 734,35.9 733.5,35.5 731,35.5 730.5,35.9 730.5,35.9 730.5,37 731,37.4 
				733.5,37.4 733.6,37.4 			"/>
			<line class="st51" x1="733.7" y1="35.7" x2="730.7" y2="37.2"/>
			<polyline class="st51" points="730.2,38.7 732.1,38.7 733,39.7 734,39.7 734,38.1 733.4,37.7 			"/>
		</g>
		<polygon class="st35" points="710.7,38.7 710.7,34.2 710.7,33.6 710.7,29.1 708.5,28.1 708.5,33.8 708.5,34 708.5,39.7 		"/>
		<rect x="702" y="28.1" class="st35" width="6.5" height="11.5"/>
		<g>
			<rect x="727.5" y="18.6" class="st0" width="0.8" height="5.9"/>
			<rect x="727.5" y="43.8" class="st0" width="0.8" height="5.9"/>
		</g>
	</g>
	<rect x="725" y="13.7" class="st44" width="4.4" height="38.3"/>
	<g>
		<path class="st45" d="M707.8,14.2c1.4,17.6,16.8,2.7,16.8,2.7v-2.7v-2.7C724.6,11.5,709.3-3.4,707.8,14.2z"/>
		<path class="st45" d="M747.1,14.2c-1.4-17.6-16.8-2.7-16.8-2.7v2.7v2.7C730.3,16.9,745.6,31.8,747.1,14.2z"/>
		<path class="st44" d="M710.1,21.2c0,0-3.6-2.1,13.6-5.3l0.1,1.7C723.9,17.7,714.1,26.7,710.1,21.2z"/>
		<path class="st44" d="M744.7,21.2c0,0,3.6-2.1-13.6-5.3l-0.1,1.7C731,17.7,740.7,26.7,744.7,21.2z"/>
		<g>
			<path class="st45" d="M725.4,12.8c0,0,3.7,15.9-10.5,28.5l-0.8-5.1l-4.9,1.6c0,0,19.6-22.2,14.7-26C719,8,725.4,12.8,725.4,12.8z
				"/>
			<path class="st45" d="M729.4,12.8c0,0-3.7,15.9,10.5,28.5l0.8-5.1l4.9,1.6c0,0-19.6-22.2-14.7-26S729.4,12.8,729.4,12.8z"/>
		</g>
		<path class="st46" d="M729.2,18.1h-3.5c-2,0-3.7-1.7-3.7-3.7V14c0-2,1.7-3.7,3.7-3.7h3.5c2,0,3.7,1.7,3.7,3.7v0.4
			C732.8,16.5,731.2,18.1,729.2,18.1z"/>
	</g>
</g>
<g id="limpet1">
	<path class="st30" d="M-590.5,76c2.2-7.9,28.6-10.2,48.3-8.6s40.7,5.2,58.7,1.8c7.7-1.4,13.7-4,21.1-5.7c12.6-2.8,28-2.8,42.6-2.7
		c132.1,1.1,264.3,2.2,396.4,3.3c16.8,0.1,33.8,0.3,50.3-0.8c20-1.3,39.2-4.3,59.5-5c37-1.3,73.1,5.3,110.2,7
		c26.6,1.2,53.2,0,79.8-1c94.9-3.4,191.3-2.9,285.6,4c-62,4.1-124.6,6.9-187.4,8.5c-30.7,0.7-61.5,1.2-91.9,3
		c-50.2,3-100,9.7-150.7,7.3c-31.1-1.5-61.1-6.5-92.4-7.3c-28.7-0.7-56.9,2.1-85,4.2c-76.1,5.8-154.7,6.8-232.1,2.9
		c-27.2-1.3-54.9-3.3-81.8-1.4c-22.1,1.5-43.6,5.6-66,4.5c-11-0.5-21.5-2.3-32.3-3.5c-45.2-4.7-97.2,2-136.9-7.9"/>
	
		<linearGradient id="SVGID_37_" gradientUnits="userSpaceOnUse" x1="1582.1569" y1="2734.8557" x2="1476.7964" y2="2840.2161" gradientTransform="matrix(0.7071 0.7071 -0.7071 0.7071 1292.3657 -2985.9595)">
		<stop  offset="0" style="stop-color:#00FFFF"/>
		<stop  offset="0.1143" style="stop-color:#00E3F2"/>
		<stop  offset="0.3074" style="stop-color:#00BADF"/>
		<stop  offset="0.4967" style="stop-color:#009AD0"/>
		<stop  offset="0.6786" style="stop-color:#0084C5"/>
		<stop  offset="0.85" style="stop-color:#0076BE"/>
		<stop  offset="1" style="stop-color:#0071BC"/>
	</linearGradient>
	<polygon class="st52" points="486.6,72.2 530,66.6 486.6,61 500.2,43.4 482.6,57 477.1,13.6 471.5,57 453.9,43.4 467.5,61 
		308.6,66.6 467.5,72.2 453.9,89.8 471.5,76.2 477.1,119.6 482.6,76.2 500.2,89.8 	"/>
	<g>
		<rect x="526.6" y="29.6" class="st32" width="37.9" height="72.2"/>
		<rect x="488.7" y="29.6" class="st33" width="37.9" height="72.2"/>
		<rect x="488.7" y="51.4" class="st34" width="37.9" height="27.7"/>
		<rect x="526.7" y="51.5" class="st35" width="37.7" height="27.7"/>
		<polygon class="st36" points="480.1,35.6 480.1,63.7 480.1,67.7 480.1,95.8 488.6,101.8 488.6,66.3 488.6,65.1 488.6,29.6 		"/>
		<polygon class="st35" points="480.1,53.8 480.1,64.5 480.1,66.1 480.1,76.8 488.6,79.1 488.6,65.5 488.6,65.1 488.6,51.5 		"/>
		<polygon class="st35" points="523.4,72.6 523.4,65.7 523.4,64.7 523.4,57.8 511.1,56.3 511.1,65.1 511.1,65.4 511.1,74.1 		"/>
		<rect x="526.6" y="29.6" class="st32" width="37.9" height="72.2"/>
		<rect x="488.7" y="29.6" class="st33" width="37.9" height="72.2"/>
		<rect x="488.7" y="51.4" class="st34" width="37.9" height="27.7"/>
		<rect x="526.7" y="51.5" class="st35" width="37.7" height="27.7"/>
		<polygon class="st34" points="480.1,35.6 480.1,63.7 480.1,67.7 480.1,95.8 488.6,101.8 488.6,66.3 488.6,65.1 488.6,29.6 		"/>
		<polygon class="st37" points="480.1,53.8 480.1,64.5 480.1,66.1 480.1,76.8 488.6,79.1 488.6,65.5 488.6,65.1 488.6,51.5 		"/>
		<polygon class="st35" points="523.4,72.6 523.4,65.7 523.4,64.7 523.4,57.8 511.1,56.3 511.1,65.1 511.1,65.4 511.1,74.1 		"/>
		<g>
			<polygon class="st36" points="593.8,95.8 593.8,67.7 593.8,63.7 593.8,35.6 583.6,29.6 583.6,65.1 583.6,66.3 583.6,101.8 			"/>
			<polygon class="st38" points="593.8,65.3 583.5,51.5 583.5,79.1 			"/>
			<rect x="564.6" y="29.7" class="st33" width="1.9" height="72.2"/>
			<rect x="566.6" y="29.6" class="st32" width="17" height="72.2"/>
			<rect x="566.6" y="51.5" class="st35" width="16.9" height="27.7"/>
		</g>
		<g>
			<g>
				<polygon class="st36" points="525,44.2 525,36.9 517.6,33 492.2,33 492.2,36.8 490.2,38 490.2,38.9 490.2,42.2 490.2,43.1 
					492.2,44.3 492.2,48.3 517.6,48.3 				"/>
				<path class="st39" d="M495.5,41.6c-1.4,1-3.4,1.1-4.3,0.3c-0.9-0.9-0.5-2.4,0.9-3.5s3.4-1.1,4.3-0.3
					C497.3,39,496.9,40.6,495.5,41.6z"/>
				<path class="st0" d="M494.9,41c-0.9,0.6-2.1,0.7-2.7,0.2c-0.6-0.6-0.3-1.5,0.6-2.2s2.1-0.7,2.7-0.2
					C496,39.4,495.8,40.3,494.9,41z"/>
				<polyline class="st53" points="520.8,34.7 516.5,37.7 516.3,42.1 521.6,46.1 				"/>
				<line class="st53" x1="525" y1="39.7" x2="516.4" y2="39.7"/>
			</g>
			<g>
				<polygon class="st36" points="525,87.2 525,94.5 517.6,98.4 492.2,98.4 492.2,94.6 490.2,93.4 490.2,92.5 490.2,89.2 
					490.2,88.3 492.2,87.1 492.2,83.1 517.6,83.1 				"/>
				<path class="st39" d="M495.5,89.8c-1.4-1-3.4-1.1-4.3-0.3c-0.9,0.9-0.5,2.4,0.9,3.5s3.4,1.1,4.3,0.3
					C497.3,92.4,496.9,90.9,495.5,89.8z"/>
				<path class="st0" d="M494.9,90.4c-0.9-0.6-2.1-0.7-2.7-0.2c-0.6,0.6-0.3,1.5,0.6,2.2c0.9,0.6,2.1,0.7,2.7,0.2
					C496,92,495.8,91.1,494.9,90.4z"/>
				<polyline class="st53" points="520.8,96.7 516.5,93.8 516.3,89.4 521.6,85.4 				"/>
				<line class="st53" x1="525" y1="91.8" x2="516.4" y2="91.7"/>
			</g>
		</g>
		<g>
			<polygon class="st41" points="530.3,75.8 532.7,75.8 533.9,74.1 532.7,72.4 530.3,72.4 529.2,74.1 			"/>
			<g>
				<g>
					<polygon class="st41" points="534.2,77.6 536.5,77.6 537.7,75.9 536.5,74.2 534.2,74.2 533,75.9 					"/>
					<polygon class="st41" points="534.2,74 536.5,74 537.7,72.3 536.5,70.6 534.2,70.6 533,72.3 					"/>
				</g>
			</g>
		</g>
		<g class="st42">
			<polygon class="st54" points="554,57.2 549.1,57.2 548.2,56.1 548.2,53.7 554.9,53.7 554.9,56.1 			"/>
			<polyline class="st54" points="548.2,62.7 551,60.8 551.8,62.6 553.8,62.6 554.9,62 554.9,59 548.2,59 			"/>
			<line class="st54" x1="552.2" y1="64.5" x2="552.2" y2="66.6"/>
			<polyline class="st54" points="553.9,72.4 554.9,71.6 554.9,71.5 554.9,69.2 553.9,68.5 548.9,68.5 547.9,69.2 547.9,69.3 
				547.9,71.6 548.9,72.4 553.9,72.4 554.1,72.4 			"/>
			<line class="st54" x1="554.5" y1="68.9" x2="548.3" y2="72"/>
			<polyline class="st54" points="547.4,74.9 551.1,74.9 553,76.9 554.9,76.9 554.9,73.8 553.7,73 			"/>
		</g>
		<polygon class="st35" points="507.7,75 507.7,65.9 507.7,64.6 507.7,55.5 503.4,53.5 503.4,65 503.4,65.4 503.4,76.9 		"/>
		<rect x="490.2" y="53.5" class="st35" width="13.2" height="23.4"/>
		<g>
			<rect x="541.9" y="34.3" class="st0" width="1.6" height="11.9"/>
			<rect x="541.9" y="85.2" class="st0" width="1.6" height="11.9"/>
		</g>
	</g>
	<g>
		<g>
			<path class="st55" d="M468.5,97.2c1.8-1.1,3.6-2.3,5.5-3.3c2.9-1.5,4.5-1.2,7.3,0.9c2.1,1.5,3.7,2.8,6.4,3.4
				c5.1,1,8.7-1.3,12.5-4.3c2.4-1.9,4.6-3.2,7.7-3.2c3.9,0.1,5.3,1.6,7.7,4.4c1.3,1.6,2.4,2.6,4.5,3c2.4,0.5,5.7-0.2,7.9-1
				c3.6-1.3,6.8-5.7,10.6-5.6c1.1,0,1.1-1.6,0-1.6c-2.7-0.1-4.2,1-6.3,2.6c-2.5,2-4.5,3.2-7.7,3.8c-4,0.7-6-1.2-8.8-3.6
				c-3.6-3.2-8-4.7-12.8-2.6c-3.3,1.4-5.4,4.6-8.7,5.9c-5.5,2.3-9-0.3-13.2-3.5c-4.6-3.5-9.4,0.9-13.6,3.4
				C466.8,96.3,467.6,97.8,468.5,97.2L468.5,97.2z"/>
		</g>
	</g>
	<rect x="536.7" y="24.3" class="st44" width="9" height="77.6"/>
	<g>
		<path class="st45" d="M502,25.4c2.9,35.7,34,5.5,34,5.5v-5.5v-5.5C536,19.8,504.9-10.4,502,25.4z"/>
		<path class="st45" d="M581.5,25.4c-2.9-35.7-34-5.5-34-5.5v5.5v5.5C547.5,30.9,578.6,61.1,581.5,25.4z"/>
		<path class="st44" d="M506.6,39.6c0,0-7.3-4.2,27.6-10.8l0.3,3.5C534.5,32.3,514.7,50.7,506.6,39.6z"/>
		<path class="st44" d="M576.7,39.6c0,0,7.3-4.2-27.6-10.8l-0.3,3.5C548.9,32.3,568.7,50.7,576.7,39.6z"/>
		<g>
			<path class="st45" d="M537.6,22.5c0,0,7.4,32.1-21.4,57.7l-1.7-10.3l-9.9,3.2c0,0,39.8-45,29.9-52.7S537.6,22.5,537.6,22.5z"/>
			<path class="st45" d="M545.8,22.5c0,0-7.4,32.1,21.4,57.7l1.7-10.3l9.9,3.2c0,0-39.8-45-29.9-52.7
				C558.7,12.8,545.8,22.5,545.8,22.5z"/>
		</g>
		<path class="st46" d="M545.2,33.3h-7.1c-4.1,0-7.4-3.3-7.4-7.4V25c0-4.1,3.3-7.4,7.4-7.4h7.1c4.1,0,7.4,3.3,7.4,7.4v0.8
			C552.7,29.9,549.3,33.3,545.2,33.3z"/>
	</g>
	<g>
		<path class="st45" d="M447.5,84.8l-69.4,24.7l12.6,35.5l69.4-24.7l11.3-11.7l-0.3-1L464,87.7l-0.3-1L447.5,84.8z M462,97.2
			c1.2-0.4,2.5,0.2,3,1.4c0.4,1.2-0.2,2.5-1.4,3c-1.2,0.4-2.5-0.2-3-1.4C460.2,99,460.8,97.6,462,97.2z"/>
		<g>
			<path class="st55" d="M390.1,117.1c-0.4-1.3,0.4-3.8,2-4.3c-0.1-0.6-0.2-1.1-0.3-1.7c-1.4,0.3-2.1-0.5-3.5,0
				c-0.7,0.2-1.3,0.8-1.1,1.3l0,0l-0.3-0.4c-0.1,0-0.2,0.5-0.3,0.5l0,0c-0.2-0.7,0.6-1.7,1.6-2c1.5-0.5,2.3,0.5,3.6,0.2
				c-0.2-0.5-0.4-1.9,0.6-2.2c0.3-0.1,0.7,0.1,0.9,0.5c0.3,0.7-0.1,1.7-0.8,1.9c0.2,0.6,0.3,1.1,0.4,1.8c0.2,0,0.5-0.1,0.7-0.2
				c0.4-0.1,0.6-0.3,0.7-0.5c0-0.1,0.1-0.1,0.1-0.1c0.1,0,0.2,0,0.2,0.1v0.1c-0.2,0.4-0.5,0.6-0.9,0.7c-0.3,0.1-0.6,0.2-0.8,0.2
				c0.1,1.1,0.5,4.2-1.2,4.8C390.7,118.1,390.3,117.7,390.1,117.1z M392.2,113.2c-1.5,0.5-2.2,2.8-1.8,3.9c0.2,0.5,0.5,0.7,1.1,0.5
				C392.6,117.1,392.3,114.2,392.2,113.2z M392.3,110.6c0.3-0.1,0.8-0.7,0.6-1.5c-0.1-0.2-0.2-0.4-0.5-0.3
				C391.8,109.1,392.1,110.2,392.3,110.6z"/>
			<path class="st55" d="M394.2,110.3c0.2-0.1,0.2,0,0.3,0.1l0,0l0.3,1.5c0-1.2,0.2-1.9,0.6-2c0.8-0.3,1,1.6,0.8,1.7
				c-0.5,0.2-0.5-1.5-0.7-1.4c-0.1,0-0.4,0.3-0.4,2.2c0,1.8,0.2,1.8-0.1,1.9C394.5,114.5,393.7,110.4,394.2,110.3z"/>
			<path class="st55" d="M396.8,112.5c-0.5-1.4,0.1-3.2,0.8-3.4c0.3-0.1,0.7,0.1,0.9,0.6c0,0.1,0,0.2-0.1,0.2
				c-0.2,0.1-0.3-0.6-0.7-0.4c-0.5,0.2-0.7,3.8,0.2,3.5c0.5-0.2,0.6-1.3,0.3-2.4c0-0.1,0-0.2,0.1-0.2c0,0,0.1,0.1,0.8-0.2
				c0.2-0.1,0.4-0.2,0.4-0.3l0.1-0.1c0.1,0,0.2,0,0.2,0.1c0.1,0.2-0.3,0.5-0.7,0.6c-0.2,0.1-0.4,0.1-0.6,0.1
				c0.4,1.3,0.1,2.4-0.6,2.7C397.5,113.4,397,113.1,396.8,112.5z"/>
			<path class="st55" d="M400.7,108.3c-0.1,0-0.3,0.3-0.3,2.1c0,1.8,0.2,1.9,0,2c-0.5,0.2-1.2-3.9-0.8-4c0.1-0.1,0.2,0,0.3,0.1l0,0
				l0.2,1.4c0-1.2,0.2-1.8,0.5-1.9s0.5,0.2,0.8,0.8c0.1,0.2,0.2,0.5,0.2,0.8c0-1.4,0.2-2.1,0.6-2.2c1.2-0.4,1.3,3.5,1.4,3.4
				c0,0,0.2-0.4,0.3-1.2c0.1-0.6,0.2-1.1,0.1-1.1c0-0.1,0.1-0.1,0.1-0.1c0.1,0,0.2,0,0.2,0.1c0,0,0,0,0,0.1c0,0-0.2,1.5-0.4,2.1
				c-0.1,0.3-0.2,0.5-0.3,0.5c-1.2,0.4-0.9-3.6-1.4-3.4c-0.1,0-0.4,0.3-0.4,2.2c0,1.9,0.2,1.8-0.1,1.9
				C401.1,112.1,400.9,108.3,400.7,108.3z"/>
			<path class="st55" d="M404.7,107.8c-0.1,0-0.3,0-0.3-0.2c0-0.1,0-0.3,0.2-0.3c0.1,0,0.3,0,0.3,0.2
				C404.9,107.6,404.9,107.8,404.7,107.8z M405.7,110.5c-0.1,0-0.3,0-0.3-0.2c0-0.1,0-0.3,0.2-0.3c0.1,0,0.3,0,0.3,0.2
				C405.9,110.3,405.8,110.5,405.7,110.5z"/>
			<path class="st55" d="M399.1,122.4c0.6,1.2,0,2.4-0.8,3l0.3,0.6c1.4,2.7,1.2,5.3-0.7,6.4c-1,0.5-2,0.3-2.5-0.6
				c-0.5-1.1-0.1-2.3,0.7-2.7c0.6-0.3,1.2-0.4,1.8,0.3c0.1,0.1-0.6-0.1-0.8-0.1c-0.1,0,0.5,0.7,0.4,0.7c-0.9-0.9-2.3,0.6-1.7,1.7
				c0.3,0.6,1,0.8,1.7,0.5c1.8-0.9,1-4-0.1-6.2c-1,0.4-1.8,0.3-2.6,0.1c-1-0.1-2.1-0.2-3,0.3c-0.8,0.4-1.6,1.6-1.3,2.5
				c0.1,0.2-0.4-0.3-0.5-0.7c0-0.1-0.2,1-0.3,0.8c-0.5-1.1,0.6-2.6,1.9-3.2c1.1-0.5,2.5-0.5,3.5-0.3c0.8,0.1,1.2,0.2,2.2-0.1
				c-0.4-0.9-1.1-2.8,0.4-3.5c0.3-0.2,0.7-0.1,1,0.1C398.8,121.9,399,122.1,399.1,122.4z M398.6,122.6c-0.2-0.4-0.5-0.5-0.8-0.4
				c-0.9,0.4-0.2,1.9,0.2,2.7c0.6-0.5,0.8-1,0.7-1.8C398.8,122.9,398.7,122.7,398.6,122.6z"/>
			<path class="st55" d="M405.2,124.8c0,0,0.1,0.4,0,1.9c-0.1,1.4-0.2,2.1-0.6,2.2c-1.8,0.9-2.1-5.4-2.8-5c-0.1,0.1-0.6,0.5-0.2,3.4
				c0.3,2.9,0.6,2.8,0.3,3c-0.8,0.4-3.5-8.3-2.7-8.7c0.1-0.1,0.3,0,0.3,0.1l0,0l1.5,4.9c-0.2-1.9,0-2.9,0.6-3.2c2-1,2.4,5.2,2.8,5
				c0,0,0.1,0,0.2-0.6c0.1-0.8,0.1-3,0.1-3c0-0.1,0.1-0.2,0.1-0.2h0.1C405.1,124.6,405.1,124.7,405.2,124.8z"/>
			<path class="st55" d="M405.7,121.5c0.3-0.2,0.9,0,1.1,0.5c0.6,1.2,0,3.2-0.9,3.8c0.1,0.2,0.1,0.3,0.2,0.4c0.4,0.7,0.8,1,1.2,0.8
				c0.7-0.4,1.1-1.9,1.1-3.9c0-0.1,0.1-0.2,0.1-0.2c0.1-0.1,0.3,0,0.3,0.1v0.1c0.1,2.2-0.4,3.9-1.4,4.4
				C404.6,128.9,403.7,122.5,405.7,121.5z M405.8,125.2c0.5-0.4,0.7-1.2,0.7-1.6c0.1-0.7,0-1.3-0.2-1.5c-0.2-0.3-0.4-0.2-0.4-0.2
				C405.6,122.1,405.3,123.5,405.8,125.2z"/>
			<path class="st55" d="M415.4,125.3c-0.9-1.8-0.1-5.8,2.3-7c-0.3-0.9-0.5-1.7-0.7-2.5c-2.1,0.8-3.3-0.3-5.4,0.7
				c-1,0.5-1.8,1.4-1.5,2.3l0,0c0,0-0.5-0.6-0.6-0.6c-0.1,0.1-0.3,0.8-0.3,0.8l0,0c-0.4-1,0.6-2.7,2-3.4c2.2-1.1,3.6,0.3,5.6-0.4
				c-0.3-0.8-1-2.8,0.4-3.5c0.5-0.2,1.1,0,1.4,0.5c0.5,1,0.2,2.6-0.9,3.1c0.4,0.8,0.6,1.7,0.9,2.6c0.3-0.1,0.7-0.3,1.1-0.4
				c0.6-0.3,0.9-0.6,1-1c0-0.1,0.1-0.1,0.1-0.2c0.1-0.1,0.3,0,0.4,0.1c0,0.1,0,0.1,0,0.2c-0.2,0.6-0.7,1-1.3,1.3
				c-0.4,0.2-0.8,0.4-1.2,0.5c0.4,1.7,1.6,6.2-0.9,7.5C416.6,126.7,415.8,126.1,415.4,125.3z M417.8,118.9c-2.2,1.1-2.8,4.7-2,6.2
				c0.3,0.7,0.9,1,1.7,0.5C419.3,124.8,418.2,120.4,417.8,118.9z M417.5,115c0.4-0.2,1.2-1.2,0.7-2.3c-0.2-0.3-0.4-0.6-0.8-0.4
				C416.5,112.7,417.2,114.3,417.5,115z"/>
			<path class="st55" d="M423.4,116.3c0,0.4,0,0.7,0,1c0,0.7-0.1,2.2-0.7,2.5c-1.4,0.7-2.2-3.3-2.6-5.4c0-0.1,0.1-0.3,0.2-0.3
				c0.7-0.3,2,5.3,2.2,5.3c0.1-0.1,0.3-0.8,0.4-1.9c0-1.3-0.1-2.8-0.4-4.2c0-0.1,0-0.2,0.1-0.3c0.9-0.4,2.1,5.6,2.2,5.3
				c0.1,0,0.4-0.8,0.4-3.7c0-0.1,0-0.2,0.1-0.2c0.1-0.1,0.3,0,0.4,0.1v0.1c0.1,3.8-0.4,4-0.7,4.2C424.1,119.2,423.7,117,423.4,116.3
				z"/>
			<path class="st55" d="M426.2,111.2c0.3-0.2,0.9,0,1.1,0.5c0.6,1.2,0,3.2-0.9,3.8c0.1,0.2,0.1,0.3,0.2,0.4c0.4,0.7,0.8,1,1.2,0.8
				c0.7-0.4,1.1-1.9,1.1-3.9c0-0.1,0.1-0.2,0.1-0.2c0.1-0.1,0.3,0,0.3,0.1v0.1c0.1,2.2-0.4,3.9-1.4,4.4
				C425.1,118.7,424.2,112.2,426.2,111.2z M426.3,114.9c0.5-0.4,0.7-1.2,0.7-1.6c0.1-0.7,0-1.3-0.2-1.5c-0.2-0.3-0.4-0.2-0.4-0.2
				C426.1,111.8,425.8,113.2,426.3,114.9z"/>
			<path class="st55" d="M427.5,107.6c0-0.1,0.2-0.4,0.3-0.5c0.9-0.4,2.4,8.4,3,8.1c0,0,0.2-0.2,0.3-1.1c0.1-0.6,0.1-1.5,0.1-2.5
				c0-0.1,0.1-0.2,0.1-0.2c0.1-0.1,0.3,0,0.3,0.1v0.1c0.1,3.6-0.4,4-0.6,4.2C429.6,116.4,429,112.6,427.5,107.6z"/>
			<path class="st55" d="M446.2,110.7c-0.8,2.2-3,2.4-4.3,1.7c-1.5-0.8-3.1-2.3-4.3-3.3c-0.1,0.1-0.2,0.1-0.3,0.2
				c-0.2,0.1-0.4,0.2-0.5,0.2l0.7,2.6c0,0.1,0,0.2-0.1,0.3c-0.5,0.2-0.9-1.2-1.3-2.7c-0.4,0-0.7-0.2-0.9-0.5c-0.2-0.4-0.1-1,0.4-1.3
				c-0.5-1.6-0.3-2.4-0.1-2.4c0.1-0.1,0.3,0,0.3,0.1l0,0l0.5,2.1c0.4-0.1,1.2,0.1,1.7,0.4c2.5-1.6,0.5-6.2-2.7-4.6
				c-0.6,0.3-1.2,0.8-1.6,1.2c-0.8,1-1,3.1,0.4,3.9c0,0-0.4,0.2-0.7,0.2c-0.1,0,0.5,0.6,0.4,0.6c-0.7-0.1-1.3-1.2-1.5-1.8
				c-0.4-1.9,0.9-3.6,2.7-4.5c1.7-0.9,3.6-0.6,4.5,1c0.8,1.7,0.3,3.3-1.1,4.4c1.1,0.9,2.3,2.4,3.7,3c1.6,0.7,2.7-0.6,3.3-1.4
				c0.1-0.1-0.1,1-0.1,1.3C445.3,111.6,446.2,110.7,446.2,110.7z M435.9,109.3l-0.2-0.6c-0.1,0.1-0.2,0.2-0.1,0.3
				C435.7,109.2,435.8,109.3,435.9,109.3z M437.2,108.9C437.2,108.8,437.2,108.8,437.2,108.9c-0.3-0.2-0.5-0.3-0.6-0.3l0.1,0.5
				C436.8,109,437,108.9,437.2,108.9z"/>
			<path class="st55" d="M445.5,104.5L445.5,104.5c0.1,3.8-0.4,4.1-0.6,4.3c-0.4,0.2-0.7-0.1-1-0.7c0-0.1-0.1-0.1-0.1-0.2
				c0,1.2-0.5,1.7-0.9,1.9c-0.6,0.3-1.5,0-1.9-0.9c-1.1-2.1-0.4-5,0.8-5.5c0.9-0.4,1.5,0.7,1.5,0.7c0.1,0.1,0,0.3-0.1,0.3
				c-0.1,0.1-0.2,0-0.3-0.1c0,0-0.4-0.7-0.9-0.5c-1,0.5-0.6,3.8,0.1,5c0.2,0.4,0.5,0.5,0.7,0.4c0.3-0.1,0.9-1,0.1-3.9
				c0-0.1,0-0.2,0.1-0.3c0.3-0.2,0.6,0.1,0.8,0.5c0.4,0.9,0.7,2.5,0.8,2.7l0,0c0.1,0,0.4-0.8,0.4-3.7c0-0.1,0.1-0.2,0.1-0.2h0.1
				C445.4,104.3,445.5,104.4,445.5,104.5z"/>
			<path class="st55" d="M446.1,99.4l-1.3,0.7c0.9,3.6,2,7.2,2.2,7.1c0.1,0,0.4-0.8,0.4-3.7c0-0.1,0-0.2,0.1-0.2
				c0.1-0.1,0.3,0,0.4,0.1v0.1c0.1,3.8-0.4,4-0.7,4.2c-1.5,0.7-2.4-4-3.2-7.1l-1.1,0.5c-0.4,0.2-0.6-0.3-0.2-0.5l1.2-0.6
				c-0.1-0.2-0.1-0.7,0.1-0.8c0.3-0.2,0.6,0.2,0.7,0.4l1.3-0.7C446.2,98.7,446.4,99.2,446.1,99.4z"/>
			<path class="st55" d="M447.7,105.6c-0.3-0.6-0.6-2.1-0.2-2.3c0.1-0.1,0.3,0,0.3,0.1c0.1,0.1,0,0.9,0.1,1.4
				c0.1,0.2,0.1,0.4,0.2,0.6c0.3,0.6,0.7,0.8,1.1,0.6c0.9-0.5,0.8-1.9,0.1-3c-0.8-1.3-2.4-2.2-1.9-2.5c0.1-0.1,0.2,0,0.3,0.1
				c0.8,0.6,1.9,0.9,2.6,2.1c0.6,1.1,0.4,3.1-0.9,3.8C449.2,106.6,448.3,106.9,447.7,105.6z"/>
		</g>
		<g>
			<path class="st55" d="M399.3,138.6c2.2-1.4,4.5-2.8,6.8-4.1l6.9-3.9c4.6-2.6,9.4-5,14.1-7.4c4.8-2.3,9.6-4.6,14.6-6.5
				c4.9-1.9,10-3.9,15.3-4.6l-1.9,0.5c-0.6,0.2-1.3,0.3-1.9,0.6c-1.2,0.5-2.5,0.8-3.7,1.4c-1.2,0.5-2.5,0.9-3.7,1.5l-3.6,1.6
				c-4.8,2.2-9.6,4.5-14.4,6.8l-14.3,7.1L399.3,138.6z"/>
		</g>
	</g>
	<g>
		<g>
			<path class="st55" d="M464.3,98.4c1.6-0.4,3.1-0.9,4.5-1.7c-0.4-0.4-0.7-0.7-1.1-1.1c-0.9,1.4-2.5,2.1-4,2.6
				c-1,0.4-0.6,1.7,0.4,1.6c1.2-0.2,2.3-1,3.5-0.9c-0.2-0.5-0.4-0.9-0.6-1.4c-0.7,0.9-1.5,1.4-2.6,1.6c-1,0.2-0.6,1.8,0.4,1.6
				c1.3-0.3,2.5-1,3.3-2.1c0.5-0.6,0.1-1.3-0.6-1.4c-1.4-0.2-2.6,0.7-3.9,0.9c0.1,0.5,0.3,1.1,0.4,1.6c1.9-0.7,3.8-1.6,5-3.4
				c0.5-0.7-0.4-1.5-1.1-1.1c-1.3,0.7-2.7,1.2-4.2,1.5C462.9,97.1,463.3,98.7,464.3,98.4L464.3,98.4z"/>
		</g>
	</g>
</g>
</svg>
