<?xml version="1.0" encoding="UTF-8" standalone="no"?>
<!DOCTYPE svg PUBLIC "-//W3C//DTD SVG 1.1//EN" "http://www.w3.org/Graphics/SVG/1.1/DTD/svg11.dtd">
<svg width="100%" height="100%" viewBox="0 0 1024 1024" version="1.1" xmlns="http://www.w3.org/2000/svg" xmlns:xlink="http://www.w3.org/1999/xlink" xml:space="preserve" xmlns:serif="http://www.serif.com/" style="fill-rule:evenodd;clip-rule:evenodd;stroke-linejoin:round;stroke-miterlimit:1.41421;">
    <g transform="matrix(2.14183,0,0,2.03956,-229.178,-589.184)">
        <path d="M346.048,288.878C477.982,288.878 585.096,401.362 585.096,539.912C585.096,678.461 477.982,790.946 346.048,790.946C214.114,790.946 107.001,678.461 107.001,539.912C107.001,401.362 214.114,288.878 346.048,288.878ZM346.048,336.574C452.915,336.574 539.677,427.687 539.677,539.912C539.677,652.137 452.915,743.249 346.048,743.249C239.182,743.249 152.42,652.137 152.42,539.912C152.42,427.687 239.182,336.574 346.048,336.574Z"/>
    </g>
    <g id="core_1_" transform="matrix(2.20405,0,0,2.20405,-584.513,-622.423)">
        <path d="M333.4,382.9C335.9,382.9 337.9,384.9 337.9,387.4C337.9,389.9 335.9,391.9 333.4,391.9C330.9,391.9 328.9,389.9 328.9,387.4C328.9,384.9 330.9,382.9 333.4,382.9ZM665.2,384.4C667.7,384.4 669.7,386.4 669.7,388.9C669.7,391.4 667.7,393.4 665.2,393.4C662.7,393.4 660.7,391.4 660.7,388.9C660.7,386.4 662.7,384.4 665.2,384.4ZM335.2,364.1L355.5,346L359.3,350.3L351.8,357L362.9,369.5L357.5,374.3L346.4,361.8L338.9,368.5L335.2,364.1ZM358.6,342.8L364.5,338.7L369.1,345.3L381.8,336.5L377.2,329.9L383.1,325.8L395.9,344.3L390,348.4L385.4,341.7L372.7,350.5L377.3,357.2L371.4,361.3L358.6,342.8ZM389.1,323L411.4,311.9L413.7,316.6L397.4,324.7L398.8,327.6L414.2,320L416.4,324.4L401,332L402.6,335.2L419,327.1L421.4,331.9L399,343L389.1,323ZM424.9,306.1L447.7,299.5L449.2,304.6L432.9,309.3L434.1,313.4L449.6,308.9L451,313.9L435.5,318.4L437.7,325.9L431.1,327.8L424.9,306.1ZM453.1,298.6L459.9,297.8L461,308.1C461.3,310.5 461.5,311.9 461.7,312.5C462,313.5 462.8,314.1 464.1,314.1C465.3,314.1 467,314 469.4,313.8C471.8,313.5 473.5,313.3 474.5,313C475.9,312.6 476.6,311.7 476.6,310.3C476.6,309.1 476.5,307.8 476.4,306.3L475.3,296L482.1,295.2L483.2,305.5C483.5,309.1 483.7,311.4 483.6,312.6C483.5,314.5 482.8,316 481.4,317C480.3,317.8 478.5,318.4 475.9,318.8C474.7,319 472.8,319.2 470.2,319.5C466.4,319.9 463.6,320.1 462,320.1C460.8,320.1 459.8,320 459,319.8C458.2,319.6 457.6,319.2 457,318.8C456.2,318.1 455.7,317.3 455.4,316.2C455,315 454.8,313.5 454.5,311.7L454.1,308.8L453.1,298.6ZM488.3,295.3L513.2,295.9L513.1,301.2L494.9,300.8L494.8,304L512,304.4L511.9,309.3L494.7,308.9L494.6,312.5L512.9,312.9L512.8,318.3L487.8,317.7L488.3,295.3ZM518.3,296.3L525.4,297.3L523,313.9L538.8,316.2L538,321.9L515,318.5L518.3,296.3ZM547.8,324L554.7,302.6L570.5,307.7C574.2,308.9 576.4,309.7 577,309.9C577.7,310.2 578.4,310.7 578.8,311.2C579.3,311.8 579.6,312.4 579.8,313.1C580,313.8 580,314.5 579.8,315.2C579.6,316 579.4,317 579,318.1C578.4,319.8 577.9,321 577.5,321.6C576.8,322.5 575.9,323 574.7,323.1C574.3,323.1 573.8,323.1 573,323C574.3,323.5 575.2,324.3 575.6,325.1C575.8,325.5 575.8,325.9 575.8,326.3C575.8,326.7 575.7,327.3 575.5,328.1C575.4,328.5 575.1,329.3 574.7,330.5L574.1,332.5L567.7,330.4L568.1,329.3C568.5,328 568.8,327.1 568.8,326.5C568.9,325.7 568.6,325 568,324.7C567.6,324.5 566.7,324.1 565.2,323.6L556,320.6L554.2,326L547.8,324ZM557.8,315.4L567,318.4C568.4,318.8 569.2,319.1 569.4,319.1C570.3,319.3 571,319.3 571.4,318.8C571.7,318.5 572,317.9 572.2,317.1C572.4,316.4 572.5,315.8 572.5,315.4C572.5,314.8 572,314.3 571.2,314C570.9,313.9 570,313.6 568.6,313.1L559.4,310.1L557.8,315.4ZM598.3,345L598.3,340.7L585,333.9L581.6,336.4L574.6,332.8L595.4,318.2L604.9,323L605.2,348.4L598.3,345ZM598.4,335.3L598.4,325.7L597.2,325.1L589.5,330.7L598.4,335.3ZM615.3,328.1L637.6,343.8L634.3,348.5L626.1,342.7L616.5,356.4L610.6,352.3L620.2,338.6L612,332.8L615.3,328.1ZM630.4,357.9L635.3,362.4C634.5,363.2 634.2,363.9 634.4,364.4C634.5,364.7 634.6,364.9 634.8,365.2C635,365.4 635.4,365.8 635.9,366.4C636.2,366.7 637.1,367.5 638.7,369C640.9,371 642.1,372.1 642.5,372.4C643.2,372.9 643.7,373.2 644,373.3C644.4,373.4 645,373.1 645.5,372.5C645.9,372.1 646.1,371.7 646,371.4C646,370.9 645.5,370.3 644.6,369.4C644,368.8 642.7,367.6 640.8,365.6C638.8,363.6 637.5,362.3 636.9,361.8C635.3,360.3 634.4,359.1 634,358.1C633.5,356.9 633.6,355.7 634.3,354.5C634.7,353.8 635.2,353 636.1,352.1C637.8,350.2 639.4,349.2 640.8,349.1C641.9,349 643,349.4 644.3,350.2C645.4,350.9 647.8,353 651.6,356.3C654,358.5 655.6,360.1 656.5,361.1C657.6,362.5 658.3,363.7 658.4,364.6C658.6,366 657.9,367.5 656.4,369.1C656.2,369.3 656,369.6 655.6,369.9L650.7,365.4C651,365 651.3,364.7 651.4,364.5C651.7,363.9 651.6,363.3 651,362.7C650.5,362.1 649.1,360.9 647,358.9C644.9,357 643.5,355.9 643,355.6C642.4,355.3 641.9,355.5 641.3,356.1C640.8,356.7 640.7,357.3 641,357.8C641.3,358.3 643,360 646.1,363C648.9,365.7 650.7,367.5 651.4,368.3C652.1,369.2 652.6,369.9 652.8,370.6C653.1,371.3 653.1,372 653,372.7C652.8,373.8 652.1,375 650.8,376.5C649.3,378.1 648,379.1 646.9,379.5C645.8,379.9 644.6,379.8 643.4,379.2C642.2,378.6 639.5,376.4 635.2,372.5C632.6,370.2 630.8,368.4 629.8,367.2C628.5,365.8 627.8,364.5 627.6,363.5C627.4,362.4 627.7,361.3 628.4,360.3C628.7,359.8 629.2,359.2 629.7,358.6L630.4,357.9ZM497.5,282.4C369.2,282.4 265.2,386.4 265.2,514.7C265.2,643 369.2,747 497.5,747C625.8,747 729.8,643 729.8,514.7C729.8,386.4 625.8,282.4 497.5,282.4ZM497.5,289.4C621.9,289.4 722.8,390.3 722.8,514.7C722.8,639.1 621.9,740 497.5,740C373.1,740 272.2,639.1 272.2,514.8C272.2,390.5 373.1,289.4 497.5,289.4ZM497.5,322.8C391.2,322.8 305.1,409 305.1,515.2C305.1,621.5 391.3,707.6 497.5,707.6C603.8,707.6 689.9,621.4 689.9,515.2C689.9,408.9 603.8,322.8 497.5,322.8ZM497.5,329.3C600.2,329.3 683.4,412.5 683.4,515.2C683.4,617.9 600.2,701.1 497.5,701.1C394.8,701.1 311.6,617.9 311.6,515.2C311.6,412.6 394.9,329.3 497.5,329.3ZM301.6,436.1L298.9,441.6C298,441.2 297.4,440.9 297.1,440.8C295.8,440.1 294.9,439.4 294.3,438.6C293.7,437.8 293.5,436.7 293.8,435.3C294.1,433.8 295.1,431.4 296.7,428.2C298.5,424.6 299.7,422.2 300.5,421.1C301.2,420 301.8,419.2 302.3,418.6C302.8,418 303.4,417.6 304,417.4C304.8,417.1 305.7,417.1 306.7,417.4C307.7,417.7 309.6,418.5 312.2,419.8C314.8,421.1 316.5,422 317.3,422.6C318.5,423.5 319.2,424.5 319.4,425.6C319.5,426.5 319.3,427.7 318.8,429.2C318.3,430.8 317,433.4 315.1,437.2C314,439.5 313.1,441 312.5,442C311.6,443.4 310.8,444.3 310.1,444.8C309.2,445.4 308.2,445.5 307.1,445.2C306.3,445 305.5,444.7 304.6,444.2C304.4,444.1 304.1,443.9 303.6,443.7L306.3,438.2C306.7,438.4 307.1,438.5 307.2,438.6C307.8,438.8 308.2,438.7 308.6,438.4C309.1,437.9 310.1,436.2 311.5,433.5C312.4,431.6 313,430.3 313.3,429.5C313.6,428.6 313.4,427.8 312.7,427.2C312.1,426.7 311.1,426.1 309.6,425.3C308.1,424.5 307,424.1 306.3,424C305.4,423.8 304.7,424.2 304.1,425.1C303.6,425.8 302.9,427.1 301.9,429.1C300.9,431.2 300.2,432.6 299.9,433.4C299.6,434.2 299.7,434.7 300,435.1C300.2,435.3 300.7,435.6 301.6,436.1ZM306.7,460.9C305.6,464.9 304.7,467.7 304,469.2C303.1,471.4 301.6,472.4 299.6,472.4C298.2,472.4 296.1,472 293.1,471.1C290.1,470.2 288,469.5 286.9,468.8C285.2,467.8 284.5,466.1 284.9,463.8C285.1,462.2 285.8,459.3 287,455.1C288.2,450.9 289.1,448.1 289.7,446.6C290.6,444.4 292.1,443.4 294.1,443.4C295.5,443.4 297.6,443.8 300.6,444.7C303.6,445.6 305.7,446.3 306.9,447C308.6,448 309.3,449.7 308.9,452C308.6,453.7 307.9,456.6 306.7,460.9ZM301.8,459C302.6,456.1 303.1,454.3 303.1,453.6C303.1,452.8 302.8,452.2 302.2,451.8C301.6,451.4 300.3,450.9 298.5,450.4C297.3,450.1 296.4,449.9 295.9,449.9C294.9,449.9 294.1,450.4 293.6,451.6C293.2,452.4 292.7,454.1 292,456.6C291.3,459.1 290.9,460.8 290.7,461.7C290.5,462.9 290.9,463.8 291.8,464.3C292.3,464.6 293.1,464.9 294.2,465.2C295.6,465.6 296.6,465.8 297.2,465.9C298.2,466 298.9,465.9 299.4,465.5C299.8,465.2 300.3,464.3 300.7,463C300.8,462.5 301.2,461.2 301.8,459ZM302.4,476L301.4,482.3L286.7,479.9L284.4,493.9L279.4,493.1L282.7,472.7L302.4,476ZM299.1,497.1L298.9,503.5L284,503.1L283.6,517.3L278.5,517.2L279.1,496.6L299.1,497.1ZM299.4,533C299.7,537.2 299.8,540.1 299.7,541.7C299.6,544.1 298.6,545.6 296.7,546.2C295.4,546.7 293.2,547 290.1,547.2C287,547.4 284.8,547.4 283.4,547.1C281.5,546.7 280.3,545.4 279.8,543.1C279.5,541.5 279.1,538.6 278.8,534.2C278.5,529.9 278.4,526.9 278.5,525.3C278.6,522.9 279.6,521.4 281.5,520.8C282.8,520.3 285,520 288.1,519.8C291.2,519.6 293.5,519.6 294.8,519.9C296.7,520.3 297.9,521.6 298.4,523.9C298.8,525.5 299.1,528.5 299.4,533ZM294.2,533C294,530 293.8,528.1 293.6,527.5C293.3,526.7 292.8,526.3 292.1,526.1C291.4,525.9 290.1,525.9 288.1,526.1C286.9,526.2 286,526.3 285.4,526.5C284.4,526.8 283.9,527.6 283.8,528.8C283.7,529.7 283.8,531.5 284,534C284.2,536.5 284.4,538.3 284.6,539.2C284.8,540.4 285.5,541.1 286.5,541.3C287.1,541.4 287.9,541.4 289.1,541.3C290.5,541.2 291.5,541.1 292.1,541C293.1,540.8 293.7,540.4 294,539.9C294.3,539.4 294.4,538.5 294.4,537.1C294.5,536.5 294.4,535.2 294.2,533ZM293.1,569.2L294.4,575.2C293.5,575.4 292.8,575.6 292.5,575.7C291.1,576 289.9,576 288.9,575.8C287.9,575.5 287.1,574.8 286.4,573.5C285.7,572.1 285,569.7 284.2,566.2C283.3,562.3 282.8,559.7 282.7,558.3C282.5,557 282.5,556 282.6,555.2C282.7,554.4 282.9,553.8 283.2,553.2C283.7,552.4 284.3,551.9 285.3,551.5C286.3,551.1 288.2,550.6 291.1,549.9C293.9,549.3 295.8,549 296.8,548.9C298.3,548.8 299.5,549.1 300.3,549.9C301,550.5 301.5,551.5 302.1,553C302.7,554.6 303.4,557.4 304.3,561.6C304.8,564.1 305.2,565.8 305.3,566.9C305.5,568.5 305.4,569.7 305.1,570.6C304.7,571.6 304,572.4 303,572.8C302.3,573.1 301.4,573.4 300.4,573.6C300.2,573.6 299.9,573.7 299.3,573.8L298,567.8C298.5,567.7 298.8,567.6 299,567.5C299.6,567.3 299.9,567 299.9,566.5C300,565.8 299.7,563.9 299,560.9C298.6,558.8 298.2,557.4 297.9,556.7C297.6,555.8 296.9,555.3 296,555.3C295.2,555.3 294,555.4 292.4,555.8C290.7,556.2 289.6,556.5 289,556.8C288.2,557.2 287.9,557.9 288,559C288.1,559.9 288.3,561.3 288.8,563.5C289.3,565.8 289.7,567.3 290,568.1C290.3,568.9 290.6,569.3 291.2,569.4C291.5,569.5 292.2,569.3 293.1,569.2ZM296.2,601L298.7,598.1L293.8,585.9L290,585.6L287.4,579.1L309.9,581.5L313.4,590.3L298.8,607.4L296.2,601ZM302,594.5L307.6,588.1L307.1,587L298.6,586.3L302,594.5ZM300.1,610L317.6,600.3L324.8,613.2C326.5,616.2 327.5,618 327.7,618.6C328,619.3 328.1,619.9 328.1,620.6C328.1,621.3 327.9,621.9 327.6,622.4C327.3,623 326.8,623.4 326.3,623.8C325.7,624.2 325,624.7 324,625.2C322.6,626 321.5,626.5 320.9,626.6C319.9,626.8 319,626.5 318.2,625.9C317.9,625.7 317.6,625.3 317.2,624.8C317.7,626 317.9,626.9 317.6,627.7C317.5,628.1 317.3,628.4 317,628.6C316.7,628.9 316.3,629.2 315.7,629.6C315.4,629.8 314.7,630.1 313.8,630.7L312.2,631.6L309.3,626.4L310.2,625.9C311.2,625.3 312,624.9 312.4,624.5C313,624 313.2,623.4 313,622.8C312.9,622.4 312.5,621.6 311.8,620.4L307.6,612.9L303.2,615.4L300.1,610ZM311.8,610.3L316,617.8C316.6,618.9 317,619.6 317.2,619.8C317.7,620.5 318.2,620.9 318.7,620.8C319.1,620.8 319.6,620.6 320.3,620.2C320.9,619.9 321.3,619.6 321.5,619.3C321.8,618.9 321.8,618.3 321.5,617.6C321.4,617.4 321,616.6 320.3,615.4L316.1,607.9L311.8,610.3ZM330.7,623.5L343.6,641.5L339.8,644.2L330.4,631.1L328.1,632.8L337,645.3L333.4,647.9L324.5,635.4L321.9,637.3L331.3,650.5L327.4,653.3L314.5,635.2L330.7,623.5ZM359.7,658.5C362.7,661.4 364.7,663.5 365.7,664.8C367.2,666.6 367.4,668.4 366.5,670.2C365.8,671.4 364.4,673.1 362.3,675.4C360.1,677.6 358.5,679.1 357.3,679.8C355.6,680.8 353.8,680.6 351.9,679.2C350.6,678.2 348.4,676.2 345.3,673.2C342.2,670.2 340.1,668.1 339.1,666.8C337.6,665 337.4,663.2 338.3,661.4C339,660.2 340.4,658.5 342.5,656.3C344.7,654 346.4,652.6 347.5,651.9C349.2,650.9 351,651.1 352.9,652.5C354.3,653.5 356.5,655.5 359.7,658.5ZM355.8,662C353.6,659.9 352.2,658.6 351.6,658.3C350.9,657.9 350.2,657.9 349.5,658.2C348.8,658.6 347.9,659.4 346.5,660.8C345.6,661.7 345.1,662.4 344.8,662.9C344.3,663.8 344.4,664.7 345.2,665.7C345.8,666.4 347,667.7 348.8,669.5C350.7,671.3 352,672.5 352.7,673C353.7,673.8 354.6,673.8 355.5,673.3C356,673 356.6,672.4 357.5,671.6C358.5,670.6 359.2,669.8 359.5,669.3C360.1,668.5 360.3,667.8 360.2,667.2C360.1,666.7 359.6,665.9 358.6,664.9C358.3,664.5 357.4,663.5 355.8,662ZM378.9,689.8L383.9,693.3C383.4,694.1 383,694.7 382.8,695C382,696.2 381.1,697 380.2,697.5C379.3,698 378.2,698 376.9,697.5C375.5,697 373.2,695.7 370.3,693.7C367,691.4 364.8,689.9 363.8,689C362.8,688.2 362.1,687.5 361.6,686.9C361.1,686.3 360.8,685.7 360.7,685C360.5,684.1 360.6,683.2 361,682.3C361.4,681.3 362.5,679.6 364.2,677.2C365.8,674.8 367,673.3 367.7,672.6C368.7,671.5 369.8,670.9 371,670.9C371.9,670.9 373,671.2 374.5,672C376,672.8 378.5,674.3 382,676.7C384.1,678.1 385.5,679.2 386.4,679.9C387.6,680.9 388.4,681.9 388.8,682.7C389.2,683.7 389.2,684.7 388.8,685.8C388.5,686.5 388.1,687.3 387.5,688.2C387.4,688.3 387.2,688.7 386.8,689.1L381.8,685.6C382.1,685.2 382.2,684.9 382.3,684.7C382.6,684.2 382.6,683.7 382.3,683.3C381.9,682.7 380.4,681.5 377.8,679.8C376.1,678.6 374.8,677.8 374.1,677.5C373.2,677.1 372.4,677.2 371.7,677.8C371.1,678.3 370.4,679.3 369.4,680.6C368.4,682 367.8,683 367.6,683.7C367.3,684.5 367.6,685.3 368.4,686C369,686.6 370.3,687.5 372,688.7C373.9,690 375.3,690.9 376,691.3C376.7,691.7 377.3,691.7 377.7,691.5C377.9,691 378.4,690.5 378.9,689.8ZM403.5,704.2L408.8,707.2C408.4,708.1 408.1,708.7 407.9,709C407.2,710.3 406.4,711.2 405.6,711.7C404.7,712.3 403.6,712.4 402.3,712C400.8,711.6 398.5,710.6 395.3,708.8C391.8,706.9 389.5,705.5 388.3,704.7C387.2,704 386.4,703.3 385.9,702.8C385.4,702.2 385,701.6 384.8,701C384.5,700.2 384.6,699.3 384.9,698.3C385.2,697.3 386.1,695.5 387.6,692.9C389,690.4 390,688.8 390.6,688C391.5,686.8 392.5,686.1 393.7,686C394.6,685.9 395.8,686.2 397.2,686.7C398.7,687.3 401.4,688.6 405.1,690.7C407.3,691.9 408.9,692.9 409.7,693.5C411,694.4 411.9,695.3 412.3,696C412.8,697 412.9,698 412.6,699C412.4,699.8 412,700.6 411.5,701.5C411.4,701.7 411.2,702 410.9,702.5L405.6,699.5C405.8,699.1 406,698.8 406,698.6C406.2,698 406.2,697.6 405.8,697.2C405.3,696.7 403.7,695.6 401,694.1C399.2,693.1 397.9,692.4 397.1,692.1C396.2,691.7 395.4,691.9 394.7,692.6C394.2,693.2 393.5,694.2 392.7,695.6C391.9,697.1 391.4,698.2 391.2,698.8C391,699.7 391.3,700.4 392.2,701C392.9,701.5 394.2,702.3 396.1,703.3C398.1,704.4 399.6,705.2 400.3,705.5C401,705.8 401.6,705.8 402.1,705.5C402.7,705.5 403.1,705 403.5,704.2ZM429.1,723.8L428.7,720L416.4,715.3L413.6,717.8L407.1,715.3L424.2,700.4L433,703.8L435.6,726.2L429.1,723.8ZM428.3,715.2L427.4,706.7L426.3,706.3L420,712L428.3,715.2ZM439.3,720.2L445,721.6C444.8,722.6 444.8,723.2 445.1,723.6C445.3,723.8 445.5,723.9 445.7,724C446,724.1 446.4,724.3 447.1,724.4C447.4,724.5 448.5,724.8 450.4,725.2C452.9,725.8 454.4,726.1 454.8,726.2C455.6,726.3 456.1,726.3 456.4,726.2C456.8,726.1 457.1,725.6 457.2,724.9C457.3,724.4 457.3,724 457.1,723.8C456.9,723.5 456.2,723.1 455.2,722.9C454.5,722.7 452.9,722.3 450.6,721.6C448.2,720.9 446.6,720.5 445.9,720.3C444,719.8 442.8,719.3 442.1,718.7C441.2,718 440.8,717 440.7,715.8C440.7,715.1 440.8,714.2 441,713.2C441.5,711 442.3,709.5 443.4,708.8C444.2,708.3 445.2,708 446.6,708.1C447.8,708.2 450.6,708.7 454.9,709.7C457.7,710.4 459.7,710.9 460.8,711.3C462.3,711.9 463.3,712.5 463.8,713.2C464.5,714.2 464.7,715.6 464.2,717.6C464.2,717.8 464.1,718.1 464,718.6L458.3,717.2C458.4,716.7 458.4,716.4 458.4,716.2C458.4,715.6 458,715.2 457.3,715C456.7,714.8 455.1,714.4 452.5,713.8C450,713.2 448.5,712.9 448,713C447.4,713 447.1,713.4 446.9,714.1C446.7,714.8 446.9,715.3 447.4,715.5C447.8,715.7 449.9,716.3 453.6,717.3C457,718.2 459.1,718.8 460,719.2C460.9,719.6 461.6,720 462.1,720.4C462.6,720.8 462.9,721.3 463.2,721.9C463.5,722.8 463.5,724.1 463.1,725.8C462.7,727.7 462.1,729.1 461.4,729.8C460.7,730.6 459.7,731 458.5,731C457.3,731.1 454.2,730.5 449.3,729.3C446.3,728.6 444.1,728 442.8,727.5C441.2,726.9 440.1,726.3 439.5,725.6C438.9,724.8 438.6,723.9 438.7,722.8C438.7,722.3 438.9,721.6 439,720.9L439.3,720.2ZM468.4,712.7L474.7,713.6L472,733.4L465.8,732.5L468.4,712.7ZM491.3,714.8C495.5,715 498.4,715.2 500,715.5C502.3,715.9 503.7,717.1 504.1,719C504.4,720.3 504.5,722.5 504.3,725.7C504.2,728.8 503.9,731 503.5,732.3C502.9,734.2 501.4,735.2 499.1,735.4C497.5,735.5 494.5,735.5 490.2,735.3C485.9,735.1 482.9,734.9 481.3,734.6C479,734.2 477.6,733 477.2,731.1C476.9,729.8 476.8,727.6 477,724.4C477.1,721.3 477.4,719.1 477.8,717.8C478.4,715.9 479.9,714.9 482.2,714.7C483.8,714.5 486.8,714.5 491.3,714.8ZM490.6,720C487.5,719.9 485.7,719.9 485,720C484.2,720.2 483.7,720.6 483.4,721.3C483.2,722 483,723.3 482.9,725.2C482.8,726.4 482.9,727.3 483,727.9C483.2,728.9 483.9,729.5 485.1,729.7C486,729.9 487.7,730 490.3,730.1C492.9,730.2 494.6,730.2 495.5,730.2C496.7,730.1 497.5,729.6 497.8,728.6C498,728.1 498.1,727.2 498.1,726C498.2,724.6 498.2,723.5 498.1,722.9C498,721.9 497.7,721.2 497.3,720.9C496.9,720.6 496,720.3 494.6,720.2C494.2,720.2 492.8,720 490.6,720ZM505.9,715.2L516.5,713.9L528.7,727.4L529.3,727.3L527.4,712.5L533.6,711.8L536,731.7L525.5,733L513.3,719.4L512.6,719.5L514.5,734.3L508.3,735L505.9,715.2ZM535.5,711.2L556.9,705.5L558.1,710L542.5,714.2L543.2,717L558,713.1L559.1,717.3L544.3,721.2L545.1,724.3L560.8,720.1L562,724.7L540.5,730.4L535.5,711.2ZM558.5,705.7L568.8,701.5L579.2,711.3L579.8,697L590,692.8L597.6,711.3L592,713.6L586.5,699.7L585.6,700.1L584.3,716.8L579.6,718.7L567,707.7L566,708.1L571.8,721.9L566.2,724.2L558.5,705.7ZM598.3,686.9L603.6,683.3L611.9,695.6L623.7,687.6L626.6,691.8L609.5,703.5L598.3,686.9ZM617.3,674L622.4,670.1L634.5,686L629.4,689.9L617.3,674ZM638.4,683.2L624.9,668.4L635.5,658.7C637.8,656.6 639.1,655.4 639.6,655.1C640.6,654.3 641.5,653.8 642.2,653.7C643,653.6 643.8,653.7 644.5,654.1C645.2,654.5 645.8,655.1 646.4,655.8C647.2,656.7 647.7,657.4 647.9,658C648.3,659 648.1,660 647.5,661.1C648.3,660.6 648.9,660.3 649.4,660.3C650.6,660.1 651.9,660.8 653.3,662.4C654.4,663.6 655,664.7 655.2,665.6C655.3,666.4 655.1,667.2 654.6,668C654.2,668.7 653.3,669.6 651.9,670.9L649,673.6L638.4,683.2ZM634.5,670.5L640.8,664.7C642.2,663.4 643,662.6 643.1,662.3C643.3,661.8 643.2,661.3 642.7,660.8C642.2,660.2 641.6,660.1 641.1,660.3C640.9,660.4 640.1,661.1 638.7,662.4L632.4,668.2L634.5,670.5ZM639.5,675.8L645.9,670C647.1,668.9 647.8,668.3 648,668.1C648.6,667.5 648.9,667 648.9,666.6C648.9,666.3 648.7,665.9 648.3,665.5C647.7,664.9 647.2,664.7 646.6,665C646.4,665.1 645.4,666 643.7,667.6L637.3,673.4L639.5,675.8ZM644.6,650.2L659.1,633.4L662.7,636.5L652.2,648.7L654.4,650.6L664.4,639L667.7,641.9L657.7,653.5L660.1,655.6L670.7,643.3L674.3,646.4L659.8,663.3L644.6,650.2ZM676.6,643.2L659.7,632.5L667.6,620.1C669.5,617.2 670.6,615.5 671,615C671.4,614.4 672,614 672.6,613.7C673.2,613.4 673.8,613.2 674.4,613.3C675.1,613.3 675.7,613.5 676.2,613.8C676.9,614.1 677.6,614.6 678.5,615.1C679.9,616 680.8,616.7 681.2,617.2C681.8,618 682,618.9 681.8,619.9C681.7,620.2 681.6,620.7 681.3,621.3C682.1,620.3 682.9,619.7 683.7,619.6C684.1,619.5 684.4,619.6 684.8,619.7C685.2,619.8 685.7,620 686.3,620.4C686.6,620.6 687.2,621 688.2,621.6L689.8,622.6L686.6,627.7L685.7,627.1C684.7,626.5 683.9,626 683.4,625.9C682.7,625.6 682.1,625.7 681.7,626.2C681.4,626.5 680.9,627.2 680.2,628.4L675.6,635.6L679.9,638.3L676.6,643.2ZM671.4,632.7L676,625.5C676.7,624.4 677.1,623.8 677.2,623.6C677.6,622.8 677.7,622.2 677.4,621.8C677.2,621.5 676.8,621.1 676.1,620.7C675.5,620.3 675.1,620.1 674.7,620.1C674.2,620 673.7,620.3 673.2,620.9C673,621.1 672.6,621.8 671.8,623L667.2,630.2L671.4,632.7ZM700.2,598.5L696.4,598.8L691.4,611L693.9,613.9L691.3,620.3L676.8,603L680.4,594.2L702.9,592.1L700.2,598.5ZM691.6,599L683.1,599.7L682.6,600.8L688.2,607.2L691.6,599ZM703.6,589.2L684.4,583.6L688.4,569.8C689.3,566.9 689.8,565.1 690,564.6C690.4,563.4 690.9,562.5 691.5,562C692.1,561.5 692.9,561.2 693.7,561.2C694.5,561.2 695.3,561.4 696.2,561.6C697.3,561.9 698.1,562.3 698.7,562.7C699.5,563.3 699.9,564.3 699.9,565.5C700.3,564.7 700.7,564.1 701.1,563.8C702,563 703.5,563 705.5,563.6C707.1,564.1 708.2,564.6 708.8,565.3C709.3,565.9 709.6,566.7 709.6,567.7C709.6,568.5 709.3,569.8 708.8,571.6L707.7,575.4L703.6,589.2ZM693.6,580.2L696,572C696.5,570.2 696.8,569.1 696.7,568.7C696.7,568.2 696.3,567.8 695.5,567.6C694.7,567.4 694.2,567.5 693.9,568C693.8,568.2 693.4,569.2 692.9,571.1L690.5,579.3L693.6,580.2ZM700.6,582.2L703,573.9C703.4,572.4 703.7,571.5 703.8,571.2C704,570.3 704,569.7 703.8,569.4C703.6,569.2 703.3,569 702.8,568.8C702,568.6 701.4,568.7 701.1,569.3C701,569.5 700.6,570.7 699.9,573L697.5,581.3L700.6,582.2ZM691.8,557.3L692.9,551.3L701.9,553C704,553.4 705.3,553.5 705.9,553.5C706.9,553.5 707.5,552.9 707.9,551.9C708.2,550.9 708.6,549.4 709,547.3C709.4,545.2 709.6,543.7 709.7,542.8C709.7,541.5 709.2,540.7 707.9,540.3C706.9,540 705.8,539.7 704.5,539.5L695.5,537.8L696.6,531.8L705.6,533.5C708.7,534.2 710.8,534.7 711.7,535C713.3,535.5 714.3,536.6 714.9,538C715.3,539.1 715.3,540.8 715,543.2C714.9,544.3 714.6,546 714.1,548.3C713.5,551.7 712.9,554 712.4,555.4C712.1,556.4 711.7,557.3 711.3,557.8C710.9,558.4 710.5,558.9 709.9,559.2C709.1,559.7 708.3,559.9 707.3,559.9C706.2,559.9 704.8,559.7 703.2,559.4L700.7,559L691.8,557.3ZM697,531.2L696.9,520.5L711.7,509.8L711.7,509.2L696.8,509.5L696.7,503.3L716.7,503.1L716.8,513.7L702,524.3L702,525L716.9,524.7L717,530.9L697,531.2ZM696.3,501.7L693.7,477.6L698.8,477L699.8,485.8L714.6,484.2L715.3,490.6L700.5,492.2L701.5,501.1L696.3,501.7ZM693.9,477.5L692.3,471.6L701.2,469.2C703.2,468.6 704.5,468.2 705,467.9C705.9,467.5 706.2,466.7 706.1,465.5C706,464.5 705.6,462.9 705.1,460.9C704.5,458.8 704.1,457.4 703.7,456.5C703.2,455.3 702.3,454.8 701,455C700,455.2 698.8,455.4 697.6,455.8L688.7,458.2L687.1,452.3L696,449.9C699.1,449.1 701.2,448.7 702.1,448.5C703.8,448.3 705.2,448.7 706.3,449.8C707.1,450.6 707.9,452.2 708.7,454.4C709,455.4 709.5,457.1 710.1,459.3C711,462.6 711.6,465 711.7,466.4C711.8,467.5 711.9,468.4 711.8,469.1C711.7,469.8 711.5,470.4 711.2,471C710.7,471.8 710,472.4 709.1,472.8C708.1,473.3 706.8,473.7 705.3,474.2L702.8,474.9L693.9,477.5ZM704.7,442.7L686.3,450.6L680.5,437.1C679.1,433.9 678.4,432 678.2,431.4C678,430.7 677.9,430 678,429.4C678.1,428.7 678.3,428.1 678.7,427.6C679.1,427.1 679.6,426.6 680.1,426.3C680.7,425.9 681.5,425.5 682.5,425.1C684,424.5 685.1,424.1 685.8,424.1C686.8,424 687.7,424.4 688.4,425.1C688.6,425.3 688.9,425.7 689.3,426.3C688.9,425.1 688.9,424.1 689.2,423.3C689.4,423 689.6,422.7 689.9,422.4C690.2,422.2 690.7,421.9 691.3,421.6C691.6,421.4 692.3,421.2 693.3,420.7L695,420L697.4,425.5L696.4,425.9C695.3,426.4 694.5,426.8 694.1,427.1C693.5,427.5 693.2,428.1 693.4,428.7C693.5,429.1 693.8,430 694.3,431.2L697.7,439.1L702.4,437.1L704.7,442.7ZM693,441.1L689.6,433.2C689.1,432 688.8,431.3 688.7,431.1C688.3,430.3 687.9,429.9 687.3,429.9C686.9,429.9 686.4,430 685.7,430.3C685.1,430.6 684.6,430.8 684.4,431.1C684,431.5 684,432 684.2,432.8C684.3,433.1 684.6,433.8 685.1,435.1L688.5,443L693,441.1Z" style="fill-rule:nonzero;"/>
    </g>
    <g transform="matrix(2.20405,0,0,2.20405,-584.513,-622.423)">
        <path d="M527.5,565.8C533.2,560.7 539.5,559.6 543.9,559.6C549.6,559.6 555.6,556.8 560.1,552.1C566.9,545 565.3,529.2 557.5,525.6C555.8,524.8 554.4,523.6 554.4,523C554.4,522.3 556.6,517.9 559.3,513.3C562,508.7 564.6,503.5 565.1,501.9C566,499 566,499 563.5,502.1C555.9,511.8 540.4,537.4 524.5,566.5C520.8,573.2 520.7,573.6 523.6,570.3C525.4,568.2 526.9,566.5 527.5,565.8ZM487.6,675.5C482.7,673.2 480.1,670.1 478.2,664.1C477.3,661.2 473.6,655.9 469.6,651.5C465.7,647.3 460.4,641.1 457.7,637.6C453.3,631.9 452.1,631.1 445.9,629.8C442.1,629 431.4,628.4 422,628.4C396.5,628.4 397.9,626.4 424.1,625.3C436.5,624.8 447.3,624 448.1,623.4C451,621.6 447.2,617.3 441.6,615.9C432.6,613.6 398,601.9 398.5,601.4C398.8,601.1 409.5,603.1 422.3,605.9C435.1,608.7 446.2,610.9 446.9,610.9C447.6,610.9 448.2,610.1 448.2,609C448.2,607.9 444.3,605.2 439.1,602.6C426.3,596.2 392.3,575.9 390.4,573.6C389.5,572.5 398.8,576.8 410.9,583.1C430.8,593.4 442.9,598.4 447.8,598.4C450.3,598.4 446.7,592.7 437.5,581.7C404.3,542.3 399.8,532.1 401.1,498.4C402.1,472.2 404.4,456.8 410,438.8L414.7,423.7L411.4,416.4C409.6,412.4 407.2,408.1 406,406.9C403.2,403.8 398.5,404.1 396.8,407.4C393.6,413.4 396.5,439.2 401.4,448.7C402.4,450.7 403.1,453.8 402.9,455.7C402.5,458.8 402.2,458.5 399,452.5C389.5,434.3 384.8,409.9 388.1,396C390.3,386.7 396.3,380.9 403.6,380.9C409.5,380.9 411.1,382.3 422.2,397.1C428,404.8 431.1,405.8 441.1,403C481.9,391.6 517.1,391.2 552.2,401.7C566.5,406 568.6,405.7 574.4,399.4C577.1,396.5 579.3,393.7 579.3,393.1C579.3,392.6 581.6,389.6 584.5,386.5C588.7,381.9 590.5,380.9 594,380.9C605.8,380.9 611.3,390.3 611,410.3C610.9,421.5 610.3,424.2 605.9,436.6C603.2,444.2 599.8,452.6 598.3,455.4L595.7,460.4L595.6,455.3C595.6,452.5 596.4,450.4 596.9,448.9C598,445.4 603.1,428.2 603.1,419.7C603.1,408.9 602.2,406.1 598.5,405.2C594.5,404.2 590.4,408.1 586.8,416.3C583.7,423.5 583.8,424.3 589.3,441.6C594.7,458.7 598.5,490.1 597.7,510.4C596.8,534.6 592,544.2 563.7,578.5C553.2,591.2 548.9,597.2 549.7,598C551.4,599.7 564.9,594.6 584.5,584.7C596.7,578.5 607,573.5 607.5,573.5C610,573.5 604.1,577.3 580.9,590.4C547.3,609.4 548.9,608.4 550.4,609.9C551.3,610.8 559.2,609.6 575.2,606.1C588.1,603.3 598.9,601.2 599.1,601.4C599.5,601.8 574.1,610.6 560.9,614.6C555.3,616.3 551.1,618.4 549.9,620L548,622.7L568.3,624.1C579.5,624.9 590.8,625.6 593.5,625.7C596.2,625.8 598,626.2 597.5,626.8C597,627.3 586.3,628.1 573.9,628.5C561.4,628.9 549.7,629.9 547.8,630.6C545.9,631.3 542.1,635.2 539.2,639.2C536.3,643.2 531.4,649.1 528.2,652.4C525,655.7 521.3,661.2 519.9,664.8C516.2,674 512.7,676.2 500.9,676.7C494.5,677 490.1,676.7 487.6,675.5M467.3,555C456.3,535.1 443.8,514.6 436.6,504.7C430.5,496.3 431.5,500.6 438.3,512.4C441,517 443.1,521.4 443.1,522.1C443.1,522.8 441.7,524 440,524.6C435.4,526.4 432.7,532.6 433.3,540.2C434.2,551.4 441,557.3 454.9,559C464.2,560.1 468.2,562.1 472.5,567.7C474.3,570.1 476,572.1 476.2,572.1C476.6,572.2 472.5,564.5 467.3,555Z" style="fill-rule:nonzero;"/>
    </g>
</svg>
