<?xml version="1.0" encoding="utf-8"?>
<!-- Generator: Adobe Illustrator 21.1.0, SVG Export Plug-In . SVG Version: 6.00 Build 0)  -->
<svg version="1.1" xmlns="http://www.w3.org/2000/svg" xmlns:xlink="http://www.w3.org/1999/xlink" x="0px" y="0px"
	 viewBox="0 0 364 364" style="enable-background:new 0 0 364 364;" xml:space="preserve">
<style type="text/css">
	.st0{fill:#0071BC;}
	.st1{fill:#39B54A;}
	.st2{opacity:0.58;fill:#F2F2F2;enable-background:new    ;}
	.st3{opacity:0.1;fill:#00FFFF;enable-background:new    ;}
	.st4{opacity:0.11;enable-background:new    ;}
	.st5{opacity:0.21;fill:#FFFFFF;enable-background:new    ;}
</style>
<g id="water_1_">
	<circle id="water" class="st0" cx="182" cy="182" r="158.8"/>
</g>
<g id="continents_1_">
	<path class="st1" d="M339.8,199.5c-1.1,0.1-2.3,0-3.4,0.1c-2.6,0.1-5.1,1-7.7,1.1c-5.7,0.3-11.5-0.2-17.2-0.1
		c-3.3,0.1-4.7,1.6-7.6,3c-2.9,1.3-6.3,2.4-9.4,2.4c-3.4,0-7.1-0.7-9.6-3.2c-2.3-2.3-2.3-5.4-2.8-8.5c-0.6-3.8-2.3-6.7-5.3-9.3
		c-2.2-2-5.4-2.4-7.8-4.3c-2.3-1.8-4.3-4.1-7.4-3.6c-3,0.5-4.7,3.1-8.1,2.5c-3.3-0.6-4.5-5-7.5-5.3c-3.8-0.5-3.1,7.4-3.1,9.8
		c0,5.4,2.5,9.7-1.3,14.5c-1.5,1.9-3.6,2.2-5.6,3.5c-2.2,1.4-3.7,3.1-5.7,4.8c-3.2,2.9-6.1,3.9-7.4,8.1c-0.9,3.1-1.3,7.7-3.7,9.8
		c-2.5,2.1-6.2,1.9-9.2,2.9c-2.7,0.8-5.4,2.1-8.2,2.5c-5,0.6-9.7-0.6-14.7,0.7c-3.9,1-8.2,1-9.4,5.6c-0.8,3.2,0,5.8,2.9,7.4
		c2.9,1.7,5.5,3.3,8.5,4.4c3.4,1.2,3.2,4.1,3.2,7.2c0,1.8-0.3,3.7,0.2,5.5c0.9,3.2,4.8,4.8,7.5,6.1c3.1,1.5,5.4,0.6,8.7,0.5
		c3.2-0.1,5.3,3.3,8.1,4.8c3,1.6,6.6,2.7,9.7,4.2c3.1,1.5,10.2,0.8,12,4.1c-1.6,3.9-4.6,7.5-7.3,10.6c-2.3,2.7-6,6.1-7.1,9.7
		c-1.2,3.9,1.8,7.8,3.1,11.2c1.2,3.2,2.1,6,2,9.4c0,2.1-0.4,4.5,0.2,6.6c0.4,1.7,1.6,3.1,2.4,4.6C289.8,313.7,333,262.1,339.8,199.5
		z"/>
	<path class="st1" d="M179.5,119.4c3,3.3,7.4,2.4,11.6,2.3c4.3-0.1,12.1-4.5,15.9-1.7c2,1.5,1.1,5.1,2.1,7.1c1.7,3.2,6,1.4,8.6,2.2
		c2.5,0.8,4.8,3,7,4.1c2.4,1.2,4.7,1.1,7.4,1c12.2-0.3,20.7-10.3,32.1-13.2c5.4-1.3,10.7-3.3,16.1-5c2.3-0.7,5.2-2.5,7.6-2.8
		c4.2-0.4,5.3,4.2,7.4,7c3.8,5,8.8,5.5,14.8,5.5c3.3,0,7.1-0.5,10.4,0.2c3.4,0.8,5.8,2.4,8.9,4c1.1,0.6,2.2,1.1,3.3,1.6
		c-14.9-44.6-49-80.3-92.4-97.5c-0.3,0.9-0.5,1.8-0.5,3c-0.2,4.4-4,9.9-6.8,13.2c-3.5,3.9-7.9,5.7-11.6,9c-1.9,1.6-4.8,2.3-6.4,4.2
		c-2.1,2.4-1.6,6-3.6,8.5c-1.4,1.9-3.3,3.4-4.8,5.3c-1.6,2-3.7,2.7-5.8,4.2c-4.8,3.2-9.8,6.1-13.7,10.5c-0.8,0.9-1.4,2.2-2.4,3
		c-1.4,1.3-2.7,1.5-4,3c-1.8,2-2,4.7-3.1,7.1c-0.9,2.2-3.7,4.2-3.1,6.8C174.8,113.8,178.3,118,179.5,119.4z"/>
	<path class="st1" d="M111,309.2c-0.5-4-1.3-4.9-3.9-7.3c-1.4-1.4-3.2-5.7-5.5-6c-2.1-0.3-4.3,2.1-6.2,2.6c-3.8,1-7,0.6-8.6-3
		c-1.1-2.4-2.8-5.1-3.2-7.6c-0.4-2.6,0.1-5.6,0.1-8.2c0-4.1-0.8-8.7,1-12.5c1-2.1,2.5-3.6,3.1-5.9c1.1-4.2,2.2-8.8,2.2-13.2
		c0-3.5,0-7,0-10.5c0-3.7,0.5-8.3-4.2-8.5c-4.1-0.2-7.7,0.5-11.6-1c-3.2-1.2-5.9-1.9-8.5-4.2c-3.5-3-5.6-6.5-7.1-10.8
		c-2.1-6.4-1.2-13.2-1.3-19.8c-0.1-6.4,3.1-8.8,6.9-13.2c6.1-6.9,2.6-14.5,2.6-22.6c0-7.4,0-14.8,0-22.2c0-4.6-0.4-7.8,2.1-11.8
		c1.4-2.1,3.4-5.1,1.6-7.5c-1.4-1.9-4.6-1.6-6.6-2.5c-4.2-1.8-8.3-5.9-11.7-8.9c-0.5-1.2-1.3-2.2-2.4-2.8c-0.5-0.1-1.1-0.3-1.6-0.4
		c-1-0.6-1.4-0.8-2.1-1.5c-14.5,24-22.9,52.1-22.9,82.1c0,62.1,35.6,115.8,87.5,141.9c0.8-1.7,1.5-3.4,1.2-5.2
		C111.5,315.5,111.4,312.4,111,309.2z"/>
	<path class="st1" d="M180.6,156c-1.8-1.1-4-1.8-5.7-2.9c-1.5-1-2.8-2.5-4.2-3.6c-1.4-1-2.6-2.4-3.9-3.5c-2.5-2-2.5-4-3.9-6.7
		c-1-2-2.7-3.5-3.7-5.5c-0.9-1.8-1.4-3.1-2.7-4.7c-3.3-4.2-7.8-5.8-12.1-8.9c-3.6-2.6-2.7-6.3-2.7-10.4c0-2.2-0.5-5,0.1-7.1
		c0.5-1.9,2.1-4.3,3.1-6.1c1.1-2,2.1-3.2,2.2-5.6c0.1-1.5,0-3.2-0.1-4.7c0-1.6-0.5-2.3-0.8-3.7c-0.4-1.4-0.1-2.8-0.5-4.2
		c-0.5-1.8-1.9-4-4-3.9c-2.2,0.1-4.3,3.3-5.3,4.9c-1.4,2.2-2.8,4.4-4.2,6.6c-1.7,2.8-3.2,4.2-5.6,6.4c-1.8,1.6-2.8,2.7-4.9,3.6
		c-2.6,1.2-3.4,2-4.6,4.6c-2.1,4.5-3.1,9.7-3.8,14.6c-0.9,6.1,3.3,9,7.7,12.1c2.1,1.4,3.1,2.1,2.1,4.8c-0.8,2.2-1.9,4.9-3.1,6.9
		c-2,3.5-8.6,7.1-5.5,11.5c1.6,2.2,4.3,2.9,6.9,2.8c2.7-0.1,4.8-2.6,7.5-2.2l3.3-2c-4,2.4-6.7,4.6-9.5,8.2c-2.3,2.9-6.5,5.3-7.9,8.8
		c-1.4,3.4,1.9,7.2,3.7,10c0.9,1.4,2.4,2.4,3.2,3.8c1.5,2.5,1,5.6,1,8.4c0,3.7-0.6,7.4-2.8,10.5c-1,1.4-2.2,1.8-3.5,2.8
		c-2.2,1.7-2.4,3.7-1.8,6.4c0.6,3.1,1.8,5.8,3.1,8.6c0.9,2,1.3,3.8,2,5.8c0.5,1.6,1.8,2.8,2.7,4.3c2.1,3.8,2.8,8.3,5.1,12.1
		c2.2,3.5,4.1,7.2,6.1,10.8c1.8,3.5,5,5.7,7.2,9c3.8,5.9,4.2-2.9,4.2-6.1c0-3.4-0.7-7.4,0.2-10.7c0.4-1.6,1.5-4.2,2.5-5.7
		c1.3-1.8,3.2-2.7,4.1-4.8c1.8-4.1,1.6-9.3,1.6-13.7c0-4.7-2.4-7.2-4-11.5c-0.6-1.8-1.1-3.7-2-5.3c-1.2-2.1-1.8-3-0.5-5.4
		c2-3.5,5.4-6.1,8-9s4.1-6.4,6.3-9.5c1.1-1.5,1.4-3.6,2.8-4.7c2.1-1.7,3.7-0.6,5.9-0.1c2.8,0.6,6,0.2,8.9,0.2s6.7,0.7,9.5-0.2
		c3.6-1.1,6.2-5.2,4.1-8.5C190.1,160,184.3,158.1,180.6,156z"/>
</g>
<g id="clouds_1_">
	<path class="st2" d="M181.9,193.3c-4-0.7-5.8-1.4-8.6-4.2c-6.9-0.1-12.4,2.4-12.4,9.7c0,2.2,0.3,2.4-1.2,4c-1,1.1-2.9,2.4-4.3,3
		c-3,1.1-6.2,1.4-9.2,2.6c-3.1,1.2-5.6,3.4-8.7,4.8c-3.6,1.6-6.2,2.9-5.3,7.7c1.1,6.2,14.5,7.8,19.2,6.2c3.3-1.1,6.7-1.8,9.9-3.2
		c1.7-0.7,2.8-1.7,4.7-2c2.1-0.4,2.4-0.4,3.8-2.2c1.1-1.5,2.1-2.6,2.5-4.4c0.5-2,0.1-2.4,1.7-3.7c2.6-2.1,7.4-2.4,10.5-3
		c3.8-0.7,6.6-0.8,8.4-4.7c1.2-2.6,0.7-5.5-1-7.8C189,192.2,186.1,194,181.9,193.3z"/>
	<path class="st2" d="M303.7,145.2c3.9-1.2,8.7-2.2,12.3-4.3c4.2-2.6,7.6-8.1,10.8-11.8c1.3-1.5,2.2-3.5,2.8-5.7
		c-21.1-53.2-70.1-92.2-129-99.1c0.3,2.1-0.6,3-2.1,4.6c-1.7,1.8-3,3.8-4.6,5.7c-7,7.8-9.1,16.7-9.1,27c0,3.3-0.6,7.2-0.1,10.5
		c0.7,4.7,6.2,6.1,10.4,6.4c6.4,0.4,12.9-0.1,19.1-1c2.8-0.4,5.7,0,8.5-0.1c3.2-0.1,4.6-0.5,5.2,3.1c0.5,2.8-0.5,5.7,0.1,8.4
		c0.6,2.8,2.4,4.6,4.4,6.4c3.3,3,6.8,4.1,8.5,8.6c1.8,4.9,0.3,9.9-2.9,13.5c-1.4,1.6-3.4,4-5.2,5.2c-1.6,1.1-3.7,1.7-5,3.2
		c-1.4,1.7-2.2,2.7-3.9,4.2c-2.4,2-2.7,4.1-3.4,7.1c-1,4.5-0.9,8.8-2.8,13c-0.9,2-1.4,4.9-2.6,6.7c-1.1,1.6-4.3,2.5-4.3,4.8
		c0,3.5,7.2,5.2,9.6,5.3c5.9,0.3,12-0.1,17.9-0.1c2.3,0,5.8,0.7,7.9-0.6c1.9-1.1,2.7-2.4,4.9-3.2c4.5-1.8,8.6-4.3,12.8-6.7
		c4-2.3,8.2-4.9,12.4-6.6c3.1-1.3,6-3.8,9.5-4C291.5,145.4,298.2,146.9,303.7,145.2z"/>
	<path class="st2" d="M165.8,117.5c-2.5,0-5,0-7.5,0c-4.8,0-8.9-1.4-12.7-4.2c-2.9-2.2-6.8-3.9-10.5-4.3c-4.3-0.5-8.5,2-12.5,3.2
		c-3,0.9-5.6,1-8.8,1c-9,0.1-14.8-2.6-21.6-8.4l-14.7,1c-3.9,4.2-10.2,0.2-14.6,2.2c-2.5,1.1-2.4,3.2-3.6,5.2c-1.2,1.9-2.9,3-5,3.9
		c-5.9,2.6-12.2,2.1-18.3,2.4c-3.6,8.5-6.6,17.4-8.7,26.6c0.2,0.2,0.4,0.3,0.6,0.4c2,1.3,4.9,1.4,7.2,2.1c4.1,1.3,7.3,1.3,11.6,1.3
		c3.2,0,11.1-1.4,12.8,2.1c2.2,4.6-2.6,7.1-5.3,9.5c-3.8,3.3-1.9,8.4-0.7,12.6c1.1,4.1,1.9,8.4,1.8,12.6c-0.1,3.7-1,10.8,3.3,12.6
		c2.7,1.1,4.3-0.7,6.1-2.2c2.2-1.9,4-4.3,7.2-4.9c2.6-0.5,3.7,0.1,5.5,1.9c1.3,1.2,2.4,4.1,4.2,4.3c2.1-2.3,4-4.5,6.5-6.4
		c2.2-1.8,4-2.5,5.8-4.7c3.1-3.8,5.6-8.1,7.8-12.4c2-3.9,3.3-8,8.1-9c2.4-0.5,5.2-0.4,7.7-0.3c2.5,0.1,4,1.8,6.3,2.3
		c2.5,0.5,5.8-0.1,8.4-0.1c3.7,0.1,6.8-0.3,10.4-1.3c3-0.9,6-1.3,9.1-1.9c3.1-0.6,7-2,4.3-5.6c-2.5-3.3-5.6-5.8-6-10.3
		c-0.4-3.7,1.2-9.2,4.5-11.5c1.1-0.7,2.5-0.7,3.5-1.6c0.7-0.6,0.9-1.5,1.5-2.2c1.5-1.7,3.4-2.7,5.3-3.9c3.2-2,7.2-5.2,9.2-8.5
		C177.3,115.7,169,117.5,165.8,117.5z"/>
	<path class="st2" d="M252.4,241.7c-4.4-0.3-6.7,4.5-9.8,6.5c-1.6,1-4.4,2.3-6.3,2.9c-2.6,0.8-5.4-0.3-8,0.4c-3.9,1-7.6,3.1-11,5.1
		c-3.6,2.2-7.2,5.9-11.5,5.6c-4.7-0.3-9-2.1-13.5-3.3c-4.4-1.1-11.9-0.8-16.1,0.6c-3.9,1.3-7.3,3.9-10.9,5.6
		c-2.4,1.2-4.6,2.5-6.9,3.8c-2.2,1.2-3.9,0.9-6,1.7c-3.8,1.3-6.9,4.5-10.8,5.6c-5,1.4-9.7,1.5-14.8,1.5c-2.5,0-4.8,0.1-7.2-0.3
		c-2.3-0.4-3.2-1.2-5,0.8c-3.3,3.7-5.9,7.8-9.3,11.4c-2.7,2.9-3.8,6.7-6.3,9.6c-3.3,3.9-7.2,6.8-12.2,7.8c-0.7,0.1-1.4,0.3-2.1,0.5
		c17.2,13.3,37.1,23.2,58.9,28.6c-0.2-1.2-0.5-2.4-0.7-3.4c-0.8-3.8-0.9-9.2,2.1-11.9c3.2-2.9,6.7-3.8,10.8-4.7
		c4.5-0.9,7.7-0.9,9.9-5.5c1.9-3.7,4.9-6.2,7-9.7c2.3-4,6.4-7.6,11.2-7.5c4.5,0.1,8.4,1.7,12.2,3.9c3.3,1.9,10.8,2.8,14.2,0.8
		c1.8-1.1,2.4-3.4,4.1-4.7c1.9-1.4,4.3-1.7,6.2-3.1c3.1-2.4,5.9-5.4,8.8-7.9c2.3-1.9,3.6-2,4.1-5c0.3-2.3-0.4-5.1,1.1-7.2
		c1.1-1.5,3.6-2.9,5.1-4.1c1.6-1.3,3.4-2.2,4.8-3.8c1.6-1.8,2.4-3.7,4.3-5.2s3.2-2.7,4.7-4.5c1.6-1.9,3.6-3.8,3-6.6
		C255.9,243.9,254.6,241.9,252.4,241.7z"/>
</g>
<g id="glow_1_">
	<circle class="st3" cx="182" cy="182" r="171.4"/>
	<circle class="st3" cx="182" cy="182" r="182"/>
</g>
<g id="shadows">
	<path class="st4" d="M239.2,33.8c-59.4,23-101.6,80.6-101.6,148.2s42.1,125.2,101.6,148.2c59.4-23,101.6-80.6,101.6-148.2
		S298.7,56.8,239.2,33.8z"/>
	<path class="st4" d="M249.1,38c-54.2,25.3-91.7,80.2-91.7,144s37.5,118.7,91.7,144c54.2-25.3,91.7-80.2,91.7-144
		S303.3,63.3,249.1,38z"/>
	<path class="st4" d="M265.6,182c0,39.1,14.2,74.9,37.6,102.6c23.4-27.7,37.6-63.5,37.6-102.6s-14.2-74.9-37.6-102.6
		C279.8,107.1,265.6,142.9,265.6,182z"/>
	<path class="st5" d="M63.2,182c0-80.9,60.5-147.7,138.8-157.6c-6.6-0.8-13.2-1.3-20-1.3c-87.7,0-158.8,71.1-158.8,158.8
		S94.3,340.7,182,340.7c6.8,0,13.5-0.4,20-1.3C123.8,329.7,63.2,262.9,63.2,182z"/>
</g>
</svg>
