<?xml version="1.0" encoding="utf-8"?>
<!-- Generator: Adobe Illustrator 21.1.0, SVG Export Plug-In . SVG Version: 6.00 Build 0)  -->
<svg version="1.1" id="Layer_1" xmlns="http://www.w3.org/2000/svg" xmlns:xlink="http://www.w3.org/1999/xlink" x="0px" y="0px"
   viewBox="0 0 1188.3 137.1" style="enable-background:new 0 0 1188.3 137.1;" xml:space="preserve">
<style type="text/css">
  .st0{opacity:0.16;fill:#00FFFF;enable-background:new    ;}
  .st1{fill:url(#SVGID_1_);}
  .st2{fill:#4D4D4D;}
  .st3{fill:#7D6B53;}
  .st4{fill:#655243;}
  .st5{fill:#161616;}
  .st6{fill:#383838;}
  .st7{fill:#4F4034;}
  .st8{fill:#292929;}
  .st9{fill:#808080;}
  .st10{fill:#1A1A1A;}
  .st11{fill:none;stroke:#1A1A1A;stroke-width:0.6193;stroke-miterlimit:10;}
  .st12{fill:#312732;}
  .st13{opacity:0.39;}
  .st14{fill:none;stroke:#F2F2F2;stroke-width:0.6644;stroke-miterlimit:10;}
  .st15{fill:#FFFFFF;}
  .st16{fill:#7D0000;}
  .st17{fill:#C40000;}
  .st18{fill:#FF0000;}
</style>
<g id="limpet1">
  <path class="st0" d="M4,68.1c2.2-7.9,28.6-10.2,48.3-8.6S93,64.7,111,61.3c7.7-1.4,13.7-4,21.1-5.7c12.6-2.8,28-2.8,42.6-2.7
    C306.8,54,439,55.1,571.1,56.2c16.8,0.1,33.8,0.3,50.3-0.8c20-1.3,39.2-4.3,59.5-5c37-1.3,73.1,5.3,110.2,7c26.6,1.2,53.2,0,79.8-1
    c94.9-3.4,191.3-2.9,285.6,4c-62,4.1-124.6,6.9-187.4,8.5c-30.7,0.7-61.5,1.2-91.9,3c-50.2,3-100,9.7-150.7,7.3
    c-31.1-1.5-61.1-6.5-92.4-7.3c-28.7-0.7-56.9,2.1-85,4.2C473,81.9,394.4,82.9,317,79c-27.2-1.3-54.9-3.3-81.8-1.4
    c-22.1,1.5-43.6,5.6-66,4.5c-11-0.5-21.5-2.3-32.3-3.5c-45.2-4.7-97.2,2-136.9-7.9"/>

    <linearGradient id="SVGID_1_" gradientUnits="userSpaceOnUse" x1="1742.5699" y1="1664.942" x2="1637.2094" y2="1770.3025" gradientTransform="matrix(0.7071 0.7071 -0.7071 0.7071 1016.9018 -2350.7517)">
    <stop  offset="0" style="stop-color:#00FFFF"/>
    <stop  offset="0.1143" style="stop-color:#00E3F2"/>
    <stop  offset="0.3074" style="stop-color:#00BADF"/>
    <stop  offset="0.4967" style="stop-color:#009AD0"/>
    <stop  offset="0.6786" style="stop-color:#0084C5"/>
    <stop  offset="0.85" style="stop-color:#0076BE"/>
    <stop  offset="1" style="stop-color:#0071BC"/>
  </linearGradient>
  <polygon class="st1" points="1081.1,64.3 1124.5,58.7 1081.1,53.1 1094.7,35.5 1077.1,49.1 1071.6,5.7 1066,49.1 1048.4,35.5
    1062,53.1 903.1,58.7 1062,64.3 1048.4,81.9 1066,68.3 1071.6,111.7 1077.1,68.3 1094.7,81.9   "/>
  <g>
    <rect x="1121.1" y="21.7" class="st2" width="37.9" height="72.2"/>
    <rect x="1083.2" y="21.7" class="st3" width="37.9" height="72.2"/>
    <rect x="1083.2" y="43.5" class="st4" width="37.9" height="27.7"/>
    <rect x="1121.2" y="43.6" class="st5" width="37.7" height="27.7"/>
    <polygon class="st6" points="1074.6,27.7 1074.6,55.8 1074.6,59.8 1074.6,87.9 1083.1,93.9 1083.1,58.4 1083.1,57.2 1083.1,21.7
          "/>
    <polygon class="st5" points="1074.6,45.9 1074.6,56.6 1074.6,58.2 1074.6,68.9 1083.1,71.2 1083.1,57.6 1083.1,57.2 1083.1,43.6
          "/>
    <polygon class="st5" points="1117.9,64.7 1117.9,57.8 1117.9,56.8 1117.9,49.9 1105.6,48.4 1105.6,57.2 1105.6,57.5 1105.6,66.2
          "/>
    <rect x="1121.1" y="21.7" class="st2" width="37.9" height="72.2"/>
    <rect x="1083.2" y="21.7" class="st3" width="37.9" height="72.2"/>
    <rect x="1083.2" y="43.5" class="st4" width="37.9" height="27.7"/>
    <rect x="1121.2" y="43.6" class="st5" width="37.7" height="27.7"/>
    <polygon class="st4" points="1074.6,27.7 1074.6,55.8 1074.6,59.8 1074.6,87.9 1083.1,93.9 1083.1,58.4 1083.1,57.2 1083.1,21.7
          "/>
    <polygon class="st7" points="1074.6,45.9 1074.6,56.6 1074.6,58.2 1074.6,68.9 1083.1,71.2 1083.1,57.6 1083.1,57.2 1083.1,43.6
          "/>
    <polygon class="st5" points="1117.9,64.7 1117.9,57.8 1117.9,56.8 1117.9,49.9 1105.6,48.4 1105.6,57.2 1105.6,57.5 1105.6,66.2
          "/>
    <g>
      <polygon class="st6" points="1188.3,87.9 1188.3,59.8 1188.3,55.8 1188.3,27.7 1178.1,21.7 1178.1,57.2 1178.1,58.4 1178.1,93.9
              "/>
      <polygon class="st8" points="1188.3,57.4 1178,43.6 1178,71.2       "/>
      <rect x="1159.1" y="21.8" class="st3" width="1.9" height="72.2"/>
      <rect x="1161.1" y="21.7" class="st2" width="17" height="72.2"/>
      <rect x="1161.1" y="43.6" class="st5" width="16.9" height="27.7"/>
    </g>
    <g>
      <g>
        <polygon class="st6" points="1119.5,36.3 1119.5,29 1112.1,25.1 1086.7,25.1 1086.7,28.9 1084.7,30.1 1084.7,31 1084.7,34.3
          1084.7,35.2 1086.7,36.4 1086.7,40.4 1112.1,40.4         "/>
        <path class="st9" d="M1090,33.7c-1.4,1-3.4,1.1-4.3,0.3c-0.9-0.9-0.5-2.4,0.9-3.5s3.4-1.1,4.3-0.3
          C1091.8,31.1,1091.4,32.7,1090,33.7z"/>
        <path class="st10" d="M1089.4,33.1c-0.9,0.6-2.1,0.7-2.7,0.2c-0.6-0.6-0.3-1.5,0.6-2.2c0.9-0.7,2.1-0.7,2.7-0.2
          C1090.5,31.5,1090.3,32.4,1089.4,33.1z"/>
        <polyline class="st11" points="1115.3,26.8 1111,29.8 1110.8,34.2 1116.1,38.2         "/>
        <line class="st11" x1="1119.5" y1="31.8" x2="1110.9" y2="31.8"/>
      </g>
      <g>
        <polygon class="st6" points="1119.5,79.3 1119.5,86.6 1112.1,90.5 1086.7,90.5 1086.7,86.7 1084.7,85.5 1084.7,84.6
          1084.7,81.3 1084.7,80.4 1086.7,79.2 1086.7,75.2 1112.1,75.2         "/>
        <path class="st9" d="M1090,81.9c-1.4-1-3.4-1.1-4.3-0.3c-0.9,0.9-0.5,2.4,0.9,3.5s3.4,1.1,4.3,0.3
          C1091.8,84.5,1091.4,83,1090,81.9z"/>
        <path class="st10" d="M1089.4,82.5c-0.9-0.6-2.1-0.7-2.7-0.2c-0.6,0.6-0.3,1.5,0.6,2.2c0.9,0.6,2.1,0.7,2.7,0.2
          C1090.5,84.1,1090.3,83.2,1089.4,82.5z"/>
        <polyline class="st11" points="1115.3,88.8 1111,85.9 1110.8,81.5 1116.1,77.5         "/>
        <line class="st11" x1="1119.5" y1="83.9" x2="1110.9" y2="83.8"/>
      </g>
    </g>
    <g>
      <polygon class="st12" points="1124.8,67.9 1127.2,67.9 1128.4,66.2 1127.2,64.5 1124.8,64.5 1123.7,66.2       "/>
      <g>
        <g>
          <polygon class="st12" points="1128.7,69.7 1131,69.7 1132.2,68 1131,66.3 1128.7,66.3 1127.5,68           "/>
          <polygon class="st12" points="1128.7,66.1 1131,66.1 1132.2,64.4 1131,62.7 1128.7,62.7 1127.5,64.4           "/>
        </g>
      </g>
    </g>
    <g class="st13">
      <polygon class="st14" points="1148.5,49.3 1143.6,49.3 1142.7,48.2 1142.7,45.8 1149.4,45.8 1149.4,48.2       "/>
      <polyline class="st14" points="1142.7,54.8 1145.5,52.9 1146.3,54.7 1148.3,54.7 1149.4,54.1 1149.4,51.1 1142.7,51.1       "/>
      <line class="st14" x1="1146.7" y1="56.6" x2="1146.7" y2="58.7"/>
      <polyline class="st14" points="1148.4,64.5 1149.4,63.7 1149.4,63.6 1149.4,61.3 1148.4,60.6 1143.4,60.6 1142.4,61.3
        1142.4,61.4 1142.4,63.7 1143.4,64.5 1148.4,64.5 1148.6,64.5       "/>
      <line class="st14" x1="1149" y1="61" x2="1142.8" y2="64.1"/>
      <polyline class="st14" points="1141.9,67 1145.6,67 1147.5,69 1149.4,69 1149.4,65.9 1148.2,65.1       "/>
    </g>
    <polygon class="st5" points="1102.2,67.1 1102.2,58 1102.2,56.7 1102.2,47.6 1097.9,45.6 1097.9,57.1 1097.9,57.5 1097.9,69     "/>
    <rect x="1084.7" y="45.6" class="st5" width="13.2" height="23.4"/>
    <g>
      <rect x="1136.4" y="26.4" class="st10" width="1.6" height="11.9"/>
      <rect x="1136.4" y="77.3" class="st10" width="1.6" height="11.9"/>
    </g>
  </g>
  <g>
    <g>
      <path class="st15" d="M1063,89.3c1.8-1.1,3.6-2.3,5.5-3.3c2.9-1.5,4.5-1.2,7.3,0.9c2.1,1.5,3.7,2.8,6.4,3.4
        c5.1,1,8.7-1.3,12.5-4.3c2.4-1.9,4.6-3.2,7.7-3.2c3.9,0.1,5.3,1.6,7.7,4.4c1.3,1.6,2.4,2.6,4.5,3c2.4,0.5,5.7-0.2,7.9-1
        c3.6-1.3,6.8-5.7,10.6-5.6c1.1,0,1.1-1.6,0-1.6c-2.7-0.1-4.2,1-6.3,2.6c-2.5,2-4.5,3.2-7.7,3.8c-4,0.7-6-1.2-8.8-3.6
        c-3.6-3.2-8-4.7-12.8-2.6c-3.3,1.4-5.4,4.6-8.7,5.9c-5.5,2.3-9-0.3-13.2-3.5c-4.6-3.5-9.4,0.9-13.6,3.4
        C1061.3,88.4,1062.1,89.9,1063,89.3L1063,89.3z"/>
    </g>
  </g>
  <rect x="1131.2" y="16.4" class="st16" width="9" height="77.6"/>
  <g>
    <path class="st17" d="M1096.5,17.5c2.9,35.7,34,5.5,34,5.5v-5.5V12C1130.5,11.9,1099.4-18.3,1096.5,17.5z"/>
    <path class="st17" d="M1176,17.5c-2.9-35.7-34-5.5-34-5.5v5.5V23C1142,23,1173.1,53.2,1176,17.5z"/>
    <path class="st16" d="M1101.1,31.7c0,0-7.3-4.2,27.6-10.8l0.3,3.5C1129,24.4,1109.2,42.8,1101.1,31.7z"/>
    <path class="st16" d="M1171.2,31.7c0,0,7.3-4.2-27.6-10.8l-0.3,3.5C1143.4,24.4,1163.2,42.8,1171.2,31.7z"/>
    <g>
      <path class="st17" d="M1132.1,14.6c0,0,7.4,32.1-21.4,57.7L1109,62l-9.9,3.2c0,0,39.8-45,29.9-52.7
        C1119.1,4.8,1132.1,14.6,1132.1,14.6z"/>
      <path class="st17" d="M1140.3,14.6c0,0-7.4,32.1,21.4,57.7l1.7-10.3l9.9,3.2c0,0-39.8-45-29.9-52.7
        C1153.2,4.9,1140.3,14.6,1140.3,14.6z"/>
    </g>
    <path class="st18" d="M1139.7,25.4h-7.1c-4.1,0-7.4-3.3-7.4-7.4v-0.9c0-4.1,3.3-7.4,7.4-7.4h7.1c4.1,0,7.4,3.3,7.4,7.4v0.8
      C1147.2,22,1143.8,25.4,1139.7,25.4z"/>
  </g>
  <g>
    <path class="st17" d="M1042,76.9l-69.4,24.7l12.6,35.5l69.4-24.7l11.3-11.7l-0.3-1l-7.1-19.9l-0.3-1L1042,76.9z M1056.5,89.3
      c1.2-0.4,2.5,0.2,3,1.4c0.4,1.2-0.2,2.5-1.4,3c-1.2,0.4-2.5-0.2-3-1.4C1054.7,91.1,1055.3,89.7,1056.5,89.3z"/>
    <g>
      <path class="st15" d="M984.6,109.2c-0.4-1.3,0.4-3.8,2-4.3c-0.1-0.6-0.2-1.1-0.3-1.7c-1.4,0.3-2.1-0.5-3.5,0
        c-0.7,0.2-1.3,0.8-1.1,1.3l0,0l-0.3-0.4c-0.1,0-0.2,0.5-0.3,0.5l0,0c-0.2-0.7,0.6-1.7,1.6-2c1.5-0.5,2.3,0.5,3.6,0.2
        c-0.2-0.5-0.4-1.9,0.6-2.2c0.3-0.1,0.7,0.1,0.9,0.5c0.3,0.7-0.1,1.7-0.8,1.9c0.2,0.6,0.3,1.1,0.4,1.8c0.2,0,0.5-0.1,0.7-0.2
        c0.4-0.1,0.6-0.3,0.7-0.5c0-0.1,0.1-0.1,0.1-0.1c0.1,0,0.2,0,0.2,0.1v0.1c-0.2,0.4-0.5,0.6-0.9,0.7c-0.3,0.1-0.6,0.2-0.8,0.2
        c0.1,1.1,0.5,4.2-1.2,4.8C985.2,110.2,984.8,109.8,984.6,109.2z M986.7,105.3c-1.5,0.5-2.2,2.8-1.8,3.9c0.2,0.5,0.5,0.7,1.1,0.5
        C987.1,109.2,986.8,106.3,986.7,105.3z M986.8,102.7c0.3-0.1,0.8-0.7,0.6-1.5c-0.1-0.2-0.2-0.4-0.5-0.3
        C986.3,101.2,986.6,102.3,986.8,102.7z"/>
      <path class="st15" d="M988.7,102.4c0.2-0.1,0.2,0,0.3,0.1l0,0l0.3,1.5c0-1.2,0.2-1.9,0.6-2c0.8-0.3,1,1.6,0.8,1.7
        c-0.5,0.2-0.5-1.5-0.7-1.4c-0.1,0-0.4,0.3-0.4,2.2c0,1.8,0.2,1.8-0.1,1.9C989,106.6,988.2,102.5,988.7,102.4z"/>
      <path class="st15" d="M991.3,104.6c-0.5-1.4,0.1-3.2,0.8-3.4c0.3-0.1,0.7,0.1,0.9,0.6c0,0.1,0,0.2-0.1,0.2
        c-0.2,0.1-0.3-0.6-0.7-0.4c-0.5,0.2-0.7,3.8,0.2,3.5c0.5-0.2,0.6-1.3,0.3-2.4c0-0.1,0-0.2,0.1-0.2c0,0,0.1,0.1,0.8-0.2
        c0.2-0.1,0.4-0.2,0.4-0.3l0.1-0.1c0.1,0,0.2,0,0.2,0.1c0.1,0.2-0.3,0.5-0.7,0.6c-0.2,0.1-0.4,0.1-0.6,0.1
        c0.4,1.3,0.1,2.4-0.6,2.7C992,105.5,991.5,105.2,991.3,104.6z"/>
      <path class="st15" d="M995.2,100.4c-0.1,0-0.3,0.3-0.3,2.1c0,1.8,0.2,1.9,0,2c-0.5,0.2-1.2-3.9-0.8-4c0.1-0.1,0.2,0,0.3,0.1l0,0
        l0.2,1.4c0-1.2,0.2-1.8,0.5-1.9s0.5,0.2,0.8,0.8c0.1,0.2,0.2,0.5,0.2,0.8c0-1.4,0.2-2.1,0.6-2.2c1.2-0.4,1.3,3.5,1.4,3.4
        c0,0,0.2-0.4,0.3-1.2c0.1-0.6,0.2-1.1,0.1-1.1c0-0.1,0.1-0.1,0.1-0.1c0.1,0,0.2,0,0.2,0.1c0,0,0,0,0,0.1c0,0-0.2,1.5-0.4,2.1
        c-0.1,0.3-0.2,0.5-0.3,0.5c-1.2,0.4-0.9-3.6-1.4-3.4c-0.1,0-0.4,0.3-0.4,2.2c0,1.9,0.2,1.8-0.1,1.9
        C995.6,104.2,995.4,100.4,995.2,100.4z"/>
      <path class="st15" d="M999.2,99.9c-0.1,0-0.3,0-0.3-0.2c0-0.1,0-0.3,0.2-0.3c0.1,0,0.3,0,0.3,0.2
        C999.4,99.7,999.4,99.9,999.2,99.9z M1000.2,102.6c-0.1,0-0.3,0-0.3-0.2c0-0.1,0-0.3,0.2-0.3c0.1,0,0.3,0,0.3,0.2
        C1000.4,102.4,1000.3,102.6,1000.2,102.6z"/>
      <path class="st15" d="M993.6,114.5c0.6,1.2,0,2.4-0.8,3l0.3,0.6c1.4,2.7,1.2,5.3-0.7,6.4c-1,0.5-2,0.3-2.5-0.6
        c-0.5-1.1-0.1-2.3,0.7-2.7c0.6-0.3,1.2-0.4,1.8,0.3c0.1,0.1-0.6-0.1-0.8-0.1c-0.1,0,0.5,0.7,0.4,0.7c-0.9-0.9-2.3,0.6-1.7,1.7
        c0.3,0.6,1,0.8,1.7,0.5c1.8-0.9,1-4-0.1-6.2c-1,0.4-1.8,0.3-2.6,0.1c-1-0.1-2.1-0.2-3,0.3c-0.8,0.4-1.6,1.6-1.3,2.5
        c0.1,0.2-0.4-0.3-0.5-0.7c0-0.1-0.2,1-0.3,0.8c-0.5-1.1,0.6-2.6,1.9-3.2c1.1-0.5,2.5-0.5,3.5-0.3c0.8,0.1,1.2,0.2,2.2-0.1
        c-0.4-0.9-1.1-2.8,0.4-3.5c0.3-0.2,0.7-0.1,1,0.1C993.3,114,993.5,114.2,993.6,114.5z M993.1,114.7c-0.2-0.4-0.5-0.5-0.8-0.4
        c-0.9,0.4-0.2,1.9,0.2,2.7c0.6-0.5,0.8-1,0.7-1.8C993.3,115,993.2,114.8,993.1,114.7z"/>
      <path class="st15" d="M999.7,116.9c0,0,0.1,0.4,0,1.9c-0.1,1.4-0.2,2.1-0.6,2.2c-1.8,0.9-2.1-5.4-2.8-5c-0.1,0.1-0.6,0.5-0.2,3.4
        c0.3,2.9,0.6,2.8,0.3,3c-0.8,0.4-3.5-8.3-2.7-8.7c0.1-0.1,0.3,0,0.3,0.1l0,0l1.5,4.9c-0.2-1.9,0-2.9,0.6-3.2c2-1,2.4,5.2,2.8,5
        c0,0,0.1,0,0.2-0.6c0.1-0.8,0.1-3,0.1-3c0-0.1,0.1-0.2,0.1-0.2h0.1C999.6,116.7,999.6,116.8,999.7,116.9z"/>
      <path class="st15" d="M1000.2,113.6c0.3-0.2,0.9,0,1.1,0.5c0.6,1.2,0,3.2-0.9,3.8c0.1,0.2,0.1,0.3,0.2,0.4c0.4,0.7,0.8,1,1.2,0.8
        c0.7-0.4,1.1-1.9,1.1-3.9c0-0.1,0.1-0.2,0.1-0.2c0.1-0.1,0.3,0,0.3,0.1v0.1c0.1,2.2-0.4,3.9-1.4,4.4
        C999.1,121,998.2,114.6,1000.2,113.6z M1000.3,117.3c0.5-0.4,0.7-1.2,0.7-1.6c0.1-0.7,0-1.3-0.2-1.5c-0.2-0.3-0.4-0.2-0.4-0.2
        C1000.1,114.2,999.8,115.6,1000.3,117.3z"/>
      <path class="st15" d="M1009.9,117.4c-0.9-1.8-0.1-5.8,2.3-7c-0.3-0.9-0.5-1.7-0.7-2.5c-2.1,0.8-3.3-0.3-5.4,0.7
        c-1,0.5-1.8,1.4-1.5,2.3l0,0c0,0-0.5-0.6-0.6-0.6c-0.1,0.1-0.3,0.8-0.3,0.8l0,0c-0.4-1,0.6-2.7,2-3.4c2.2-1.1,3.6,0.3,5.6-0.4
        c-0.3-0.8-1-2.8,0.4-3.5c0.5-0.2,1.1,0,1.4,0.5c0.5,1,0.2,2.6-0.9,3.1c0.4,0.8,0.6,1.7,0.9,2.6c0.3-0.1,0.7-0.3,1.1-0.4
        c0.6-0.3,0.9-0.6,1-1c0-0.1,0.1-0.1,0.1-0.2c0.1-0.1,0.3,0,0.4,0.1c0,0.1,0,0.1,0,0.2c-0.2,0.6-0.7,1-1.3,1.3
        c-0.4,0.2-0.8,0.4-1.2,0.5c0.4,1.7,1.6,6.2-0.9,7.5C1011.1,118.8,1010.3,118.2,1009.9,117.4z M1012.3,111c-2.2,1.1-2.8,4.7-2,6.2
        c0.3,0.7,0.9,1,1.7,0.5C1013.8,116.9,1012.7,112.5,1012.3,111z M1012,107.1c0.4-0.2,1.2-1.2,0.7-2.3c-0.2-0.3-0.4-0.6-0.8-0.4
        C1011,104.8,1011.7,106.4,1012,107.1z"/>
      <path class="st15" d="M1017.9,108.4c0,0.4,0,0.7,0,1c0,0.7-0.1,2.2-0.7,2.5c-1.4,0.7-2.2-3.3-2.6-5.4c0-0.1,0.1-0.3,0.2-0.3
        c0.7-0.3,2,5.3,2.2,5.3c0.1-0.1,0.3-0.8,0.4-1.9c0-1.3-0.1-2.8-0.4-4.2c0-0.1,0-0.2,0.1-0.3c0.9-0.4,2.1,5.6,2.2,5.3
        c0.1,0,0.4-0.8,0.4-3.7c0-0.1,0-0.2,0.1-0.2c0.1-0.1,0.3,0,0.4,0.1v0.1c0.1,3.8-0.4,4-0.7,4.2
        C1018.6,111.3,1018.2,109.1,1017.9,108.4z"/>
      <path class="st15" d="M1020.7,103.3c0.3-0.2,0.9,0,1.1,0.5c0.6,1.2,0,3.2-0.9,3.8c0.1,0.2,0.1,0.3,0.2,0.4c0.4,0.7,0.8,1,1.2,0.8
        c0.7-0.4,1.1-1.9,1.1-3.9c0-0.1,0.1-0.2,0.1-0.2c0.1-0.1,0.3,0,0.3,0.1v0.1c0.1,2.2-0.4,3.9-1.4,4.4
        C1019.6,110.8,1018.7,104.3,1020.7,103.3z M1020.8,107c0.5-0.4,0.7-1.2,0.7-1.6c0.1-0.7,0-1.3-0.2-1.5c-0.2-0.3-0.4-0.2-0.4-0.2
        C1020.6,103.9,1020.3,105.3,1020.8,107z"/>
      <path class="st15" d="M1022,99.7c0-0.1,0.2-0.4,0.3-0.5c0.9-0.4,2.4,8.4,3,8.1c0,0,0.2-0.2,0.3-1.1c0.1-0.6,0.1-1.5,0.1-2.5
        c0-0.1,0.1-0.2,0.1-0.2c0.1-0.1,0.3,0,0.3,0.1v0.1c0.1,3.6-0.4,4-0.6,4.2C1024.1,108.5,1023.5,104.7,1022,99.7z"/>
      <path class="st15" d="M1040.7,102.8c-0.8,2.2-3,2.4-4.3,1.7c-1.5-0.8-3.1-2.3-4.3-3.3c-0.1,0.1-0.2,0.1-0.3,0.2
        c-0.2,0.1-0.4,0.2-0.5,0.2l0.7,2.6c0,0.1,0,0.2-0.1,0.3c-0.5,0.2-0.9-1.2-1.3-2.7c-0.4,0-0.7-0.2-0.9-0.5c-0.2-0.4-0.1-1,0.4-1.3
        c-0.5-1.6-0.3-2.4-0.1-2.4c0.1-0.1,0.3,0,0.3,0.1l0,0l0.5,2.1c0.4-0.1,1.2,0.1,1.7,0.4c2.5-1.6,0.5-6.2-2.7-4.6
        c-0.6,0.3-1.2,0.8-1.6,1.2c-0.8,1-1,3.1,0.4,3.9c0,0-0.4,0.2-0.7,0.2c-0.1,0,0.5,0.6,0.4,0.6c-0.7-0.1-1.3-1.2-1.5-1.8
        c-0.4-1.9,0.9-3.6,2.7-4.5c1.7-0.9,3.6-0.6,4.5,1c0.8,1.7,0.3,3.3-1.1,4.4c1.1,0.9,2.3,2.4,3.7,3c1.6,0.7,2.7-0.6,3.3-1.4
        c0.1-0.1-0.1,1-0.1,1.3C1039.8,103.7,1040.7,102.8,1040.7,102.8z M1030.4,101.4l-0.2-0.6c-0.1,0.1-0.2,0.2-0.1,0.3
        C1030.2,101.3,1030.3,101.4,1030.4,101.4z M1031.7,101C1031.7,100.9,1031.7,100.9,1031.7,101c-0.3-0.2-0.5-0.3-0.6-0.3l0.1,0.5
        C1031.3,101.1,1031.5,101,1031.7,101z"/>
      <path class="st15" d="M1040,96.6L1040,96.6c0.1,3.8-0.4,4.1-0.6,4.3c-0.4,0.2-0.7-0.1-1-0.7c0-0.1-0.1-0.1-0.1-0.2
        c0,1.2-0.5,1.7-0.9,1.9c-0.6,0.3-1.5,0-1.9-0.9c-1.1-2.1-0.4-5,0.8-5.5c0.9-0.4,1.5,0.7,1.5,0.7c0.1,0.1,0,0.3-0.1,0.3
        c-0.1,0.1-0.2,0-0.3-0.1c0,0-0.4-0.7-0.9-0.5c-1,0.5-0.6,3.8,0.1,5c0.2,0.4,0.5,0.5,0.7,0.4c0.3-0.1,0.9-1,0.1-3.9
        c0-0.1,0-0.2,0.1-0.3c0.3-0.2,0.6,0.1,0.8,0.5c0.4,0.9,0.7,2.5,0.8,2.7l0,0c0.1,0,0.4-0.8,0.4-3.7c0-0.1,0.1-0.2,0.1-0.2h0.1
        C1039.9,96.4,1040,96.5,1040,96.6z"/>
      <path class="st15" d="M1040.6,91.5l-1.3,0.7c0.9,3.6,2,7.2,2.2,7.1c0.1,0,0.4-0.8,0.4-3.7c0-0.1,0-0.2,0.1-0.2
        c0.1-0.1,0.3,0,0.4,0.1v0.1c0.1,3.8-0.4,4-0.7,4.2c-1.5,0.7-2.4-4-3.2-7.1l-1.1,0.5c-0.4,0.2-0.6-0.3-0.2-0.5l1.2-0.6
        c-0.1-0.2-0.1-0.7,0.1-0.8c0.3-0.2,0.6,0.2,0.7,0.4l1.3-0.7C1040.7,90.8,1040.9,91.3,1040.6,91.5z"/>
      <path class="st15" d="M1042.2,97.7c-0.3-0.6-0.6-2.1-0.2-2.3c0.1-0.1,0.3,0,0.3,0.1c0.1,0.1,0,0.9,0.1,1.4
        c0.1,0.2,0.1,0.4,0.2,0.6c0.3,0.6,0.7,0.8,1.1,0.6c0.9-0.5,0.8-1.9,0.1-3c-0.8-1.3-2.4-2.2-1.9-2.5c0.1-0.1,0.2,0,0.3,0.1
        c0.8,0.6,1.9,0.9,2.6,2.1c0.6,1.1,0.4,3.1-0.9,3.8C1043.7,98.7,1042.8,99,1042.2,97.7z"/>
    </g>
    <g>
      <path class="st15" d="M993.8,130.7c2.2-1.4,4.5-2.8,6.8-4.1l6.9-3.9c4.6-2.6,9.4-5,14.1-7.4c4.8-2.3,9.6-4.6,14.6-6.5
        c4.9-1.9,10-3.9,15.3-4.6l-1.9,0.5c-0.6,0.2-1.3,0.3-1.9,0.6c-1.2,0.5-2.5,0.8-3.7,1.4c-1.2,0.5-2.5,0.9-3.7,1.5l-3.6,1.6
        c-4.8,2.2-9.6,4.5-14.4,6.8l-14.3,7.1L993.8,130.7z"/>
    </g>
  </g>
  <g>
    <g>
      <path class="st15" d="M1058.8,90.5c1.6-0.4,3.1-0.9,4.5-1.7c-0.4-0.4-0.7-0.7-1.1-1.1c-0.9,1.4-2.5,2.1-4,2.6
        c-1,0.4-0.6,1.7,0.4,1.6c1.2-0.2,2.3-1,3.5-0.9c-0.2-0.5-0.4-0.9-0.6-1.4c-0.7,0.9-1.5,1.4-2.6,1.6c-1,0.2-0.6,1.8,0.4,1.6
        c1.3-0.3,2.5-1,3.3-2.1c0.5-0.6,0.1-1.3-0.6-1.4c-1.4-0.2-2.6,0.7-3.9,0.9c0.1,0.5,0.3,1.1,0.4,1.6c1.9-0.7,3.8-1.6,5-3.4
        c0.5-0.7-0.4-1.5-1.1-1.1c-1.3,0.7-2.7,1.2-4.2,1.5C1057.4,89.2,1057.8,90.8,1058.8,90.5L1058.8,90.5z"/>
    </g>
  </g>
</g>
</svg>
