<?xml version="1.0" encoding="utf-8"?>
<!-- Generator: Adobe Illustrator 21.1.0, SVG Export Plug-In . SVG Version: 6.00 Build 0)  -->
<svg version="1.1" id="Layer_1" xmlns="http://www.w3.org/2000/svg" xmlns:xlink="http://www.w3.org/1999/xlink" x="0px" y="0px"
	 viewBox="0 0 1509.6 33.2" style="enable-background:new 0 0 1509.6 33.2;" xml:space="preserve">
<style type="text/css">
	.st0{opacity:0.85;}
	.st1{opacity:0.16;fill:#00FFFF;enable-background:new    ;}
	.st2{fill:url(#SVGID_1_);}
	.st3{fill:#4D4D4D;}
	.st4{fill:#7D6B53;}
	.st5{fill:#655243;}
	.st6{fill:#161616;}
	.st7{fill:#383838;}
	.st8{fill:#4F4034;}
	.st9{fill:#292929;}
	.st10{fill:#808080;}
	.st11{fill:#1A1A1A;}
	.st12{fill:none;stroke:#1A1A1A;stroke-width:0.1837;stroke-miterlimit:10;}
	.st13{fill:#312732;}
	.st14{opacity:0.39;}
	.st15{fill:none;stroke:#F2F2F2;stroke-width:0.197;stroke-miterlimit:10;}
	.st16{fill:#7D0000;}
	.st17{fill:#C40000;}
	.st18{fill:#FF0000;}
</style>
<g id="limpet3" class="st0">
	<path class="st1" d="M1471.7,16.3c-2.7,4.7-36.4,6.3-61.6,5.4c-25.1-0.9-52.1-2.9-75-0.8c-9.8,0.9-17.4,2.5-26.8,3.5
		c-16.1,1.8-35.7,1.8-54.4,1.8c-168.8,0.1-337.5,0.2-506.3,0.3c-21.5,0-43.1,0-64.2,0.8c-25.6,0.9-50,2.8-75.9,3.3
		c-47.2,1-93.4-2.7-140.8-3.5c-33.9-0.6-68,0.3-101.9,1C243.6,30.7,120.5,30.9,0,27.4c79.1-2.8,159-4.8,239.3-6.1
		c39.2-0.6,78.5-1.1,117.3-2.3c64.1-2.1,127.6-6.4,192.4-5.2c39.8,0.7,78.1,3.5,118.1,3.8c36.6,0.3,72.6-1.5,108.5-3
		c97.1-3.9,197.5-4.9,296.4-3.1c34.8,0.6,70.2,1.6,104.5,0.4c28.2-1,55.6-3.6,84.2-3.1c14.1,0.3,27.5,1.3,41.3,1.9
		c57.8,2.6,124.1-1.8,174.9,3.9"/>
	
		<linearGradient id="SVGID_1_" gradientUnits="userSpaceOnUse" x1="2299.9175" y1="-1843.8634" x2="2268.6694" y2="-1875.1113" gradientTransform="matrix(0.7071 0.7071 0.7071 -0.7071 1152.5217 -2912.6174)">
		<stop  offset="0" style="stop-color:#00FFFF"/>
		<stop  offset="0.1143" style="stop-color:#00E3F2"/>
		<stop  offset="0.3074" style="stop-color:#00BADF"/>
		<stop  offset="0.4967" style="stop-color:#009AD0"/>
		<stop  offset="0.6786" style="stop-color:#0084C5"/>
		<stop  offset="0.85" style="stop-color:#0076BE"/>
		<stop  offset="1" style="stop-color:#0071BC"/>
	</linearGradient>
	<polygon class="st2" points="1477.8,19.1 1490.6,17.4 1477.8,15.8 1481.8,10.6 1476.6,14.6 1474.9,1.7 1473.3,14.6 1468.1,10.6 
		1472.1,15.8 1425,17.4 1472.1,19.1 1468.1,24.3 1473.3,20.3 1474.9,33.2 1476.6,20.3 1481.8,24.3 	"/>
	<g>
		<rect x="1489.6" y="6.5" class="st3" width="11.2" height="21.4"/>
		<rect x="1478.4" y="6.5" class="st4" width="11.2" height="21.4"/>
		<rect x="1478.4" y="13" class="st5" width="11.2" height="8.2"/>
		<rect x="1489.6" y="13" class="st6" width="11.2" height="8.2"/>
		<polygon class="st7" points="1475.8,8.3 1475.8,16.6 1475.8,17.8 1475.8,26.1 1478.4,27.9 1478.4,17.4 1478.4,17 1478.4,6.5 		"/>
		<polygon class="st6" points="1475.8,13.6 1475.8,16.8 1475.8,17.3 1475.8,20.5 1478.4,21.2 1478.4,17.1 1478.4,17 1478.4,13 		"/>
		<polygon class="st6" points="1488.7,19.2 1488.7,17.2 1488.7,16.9 1488.7,14.8 1485,14.4 1485,17 1485,17.1 1485,19.7 		"/>
		<rect x="1489.6" y="6.5" class="st3" width="11.2" height="21.4"/>
		<rect x="1478.4" y="6.5" class="st4" width="11.2" height="21.4"/>
		<rect x="1478.4" y="13" class="st5" width="11.2" height="8.2"/>
		<rect x="1489.6" y="13" class="st6" width="11.2" height="8.2"/>
		<polygon class="st5" points="1475.8,8.3 1475.8,16.6 1475.8,17.8 1475.8,26.1 1478.4,27.9 1478.4,17.4 1478.4,17 1478.4,6.5 		"/>
		<polygon class="st8" points="1475.8,13.6 1475.8,16.8 1475.8,17.3 1475.8,20.5 1478.4,21.2 1478.4,17.1 1478.4,17 1478.4,13 		"/>
		<polygon class="st6" points="1488.7,19.2 1488.7,17.2 1488.7,16.9 1488.7,14.8 1485,14.4 1485,17 1485,17.1 1485,19.7 		"/>
		<g>
			<polygon class="st7" points="1509.6,26.1 1509.6,17.8 1509.6,16.6 1509.6,8.3 1506.5,6.5 1506.5,17 1506.5,17.4 1506.5,27.9 			
				"/>
			<polygon class="st9" points="1509.6,17.1 1506.5,13 1506.5,21.2 			"/>
			<rect x="1500.9" y="6.5" class="st4" width="0.6" height="21.4"/>
			<rect x="1501.5" y="6.5" class="st3" width="5" height="21.4"/>
			<rect x="1501.5" y="12.9" class="st6" width="5" height="8.2"/>
		</g>
		<g>
			<g>
				<polygon class="st7" points="1489.1,10.8 1489.1,8.6 1486.9,7.5 1479.4,7.5 1479.4,8.6 1478.8,9 1478.8,9.2 1478.8,10.2 
					1478.8,10.5 1479.4,10.8 1479.4,12 1486.9,12 				"/>
				<path class="st10" d="M1480.4,10c-0.4,0.3-1,0.3-1.3,0.1c-0.3-0.3-0.2-0.7,0.3-1c0.4-0.3,1-0.3,1.3-0.1
					C1480.9,9.3,1480.8,9.7,1480.4,10z"/>
				<path class="st11" d="M1480.2,9.8c-0.3,0.2-0.6,0.2-0.8,0s-0.1-0.5,0.2-0.6c0.3-0.1,0.6-0.2,0.8,0S1480.5,9.7,1480.2,9.8z"/>
				<polyline class="st12" points="1487.9,8 1486.6,8.9 1486.6,10.2 1488.1,11.4 				"/>
				<line class="st12" x1="1489.1" y1="9.5" x2="1486.6" y2="9.5"/>
			</g>
			<g>
				<polygon class="st7" points="1489.1,23.6 1489.1,25.7 1486.9,26.9 1479.4,26.9 1479.4,25.7 1478.8,25.4 1478.8,25.1 
					1478.8,24.2 1478.8,23.9 1479.4,23.5 1479.4,22.3 1486.9,22.3 				"/>
				<path class="st10" d="M1480.4,24.3c-0.4-0.3-1-0.3-1.3-0.1c-0.3,0.3-0.2,0.7,0.3,1c0.4,0.3,1,0.3,1.3,0.1
					C1480.9,25.1,1480.8,24.6,1480.4,24.3z"/>
				<path class="st11" d="M1480.2,24.5c-0.3-0.2-0.6-0.2-0.8,0s-0.1,0.5,0.2,0.6c0.3,0.1,0.6,0.2,0.8,0
					C1480.6,25,1480.5,24.7,1480.2,24.5z"/>
				<polyline class="st12" points="1487.9,26.4 1486.6,25.5 1486.6,24.2 1488.1,23 				"/>
				<line class="st12" x1="1489.1" y1="24.9" x2="1486.6" y2="24.9"/>
			</g>
		</g>
		<g>
			<polygon class="st13" points="1490.7,20.2 1491.4,20.2 1491.8,19.7 1491.4,19.2 1490.7,19.2 1490.4,19.7 			"/>
			<g>
				<g>
					<polygon class="st13" points="1491.9,20.7 1492.6,20.7 1492.9,20.2 1492.6,19.7 1491.9,19.7 1491.5,20.2 					"/>
					<polygon class="st13" points="1491.9,19.6 1492.6,19.6 1492.9,19.1 1492.6,18.6 1491.9,18.6 1491.5,19.1 					"/>
				</g>
			</g>
		</g>
		<g class="st14">
			<polygon class="st15" points="1497.7,14.7 1496.3,14.7 1496,14.3 1496,13.6 1498,13.6 1498,14.3 			"/>
			<polyline class="st15" points="1496,16.3 1496.9,15.7 1497.1,16.3 1497.7,16.3 1498,16.1 1498,15.2 1496,15.2 			"/>
			<line class="st15" x1="1497.2" y1="16.8" x2="1497.2" y2="17.4"/>
			<polyline class="st15" points="1497.7,19.2 1498,18.9 1498,18.9 1498,18.2 1497.7,18 1496.2,18 1495.9,18.2 1495.9,18.3 
				1495.9,18.9 1496.2,19.2 1497.7,19.2 1497.8,19.2 			"/>
			<line class="st15" x1="1497.9" y1="18.1" x2="1496.1" y2="19"/>
			<polyline class="st15" points="1495.8,19.9 1496.9,19.9 1497.5,20.5 1498,20.5 1498,19.6 1497.7,19.4 			"/>
		</g>
		<polygon class="st6" points="1484,19.9 1484,17.2 1484,16.8 1484,14.1 1482.7,13.6 1482.7,17 1482.7,17.1 1482.7,20.5 		"/>
		<rect x="1478.8" y="13.6" class="st6" width="3.9" height="6.9"/>
		<g>
			<rect x="1494.1" y="7.8" class="st11" width="0.5" height="3.5"/>
			<rect x="1494.1" y="22.9" class="st11" width="0.5" height="3.5"/>
		</g>
	</g>
	<rect x="1492.6" y="4.9" class="st16" width="2.7" height="23"/>
	<g>
		<path class="st17" d="M1482.3,5.2c0.9,10.6,10.1,1.6,10.1,1.6V5.2V3.6C1492.4,3.6,1483.2-5.4,1482.3,5.2z"/>
		<path class="st17" d="M1505.9,5.2c-0.9-10.6-10.1-1.6-10.1-1.6v1.6v1.6C1495.8,6.8,1505,15.8,1505.9,5.2z"/>
		<path class="st16" d="M1483.7,9.4c0,0-2.2-1.3,8.2-3.2l0.1,1C1492,7.3,1486.1,12.7,1483.7,9.4z"/>
		<path class="st16" d="M1504.5,9.4c0,0,2.2-1.3-8.2-3.2l-0.1,1C1496.2,7.3,1502.1,12.7,1504.5,9.4z"/>
		<g>
			<path class="st17" d="M1492.9,4.4c0,0,2.2,9.5-6.3,17.1l-0.5-3.1l-2.9,1c0,0,11.8-13.3,8.9-15.6C1489,1.5,1492.9,4.4,1492.9,4.4z
				"/>
			<path class="st17" d="M1495.3,4.4c0,0-2.2,9.5,6.3,17.1l0.5-3.1l2.9,1c0,0-11.8-13.3-8.9-15.6C1499.2,1.5,1495.3,4.4,1495.3,4.4z
				"/>
		</g>
		<path class="st18" d="M1495.1,7.6h-2.1c-1.2,0-2.2-1-2.2-2.2V5.2c0-1.2,1-2.2,2.2-2.2h2.1c1.2,0,2.2,1,2.2,2.2v0.2
			C1497.4,6.6,1496.4,7.6,1495.1,7.6z"/>
	</g>
</g>
</svg>
