<?xml version="1.0" encoding="utf-8"?>
<!-- Generator: Adobe Illustrator 21.1.0, SVG Export Plug-In . SVG Version: 6.00 Build 0)  -->
<svg version="1.1" id="Layer_1" xmlns="http://www.w3.org/2000/svg" xmlns:xlink="http://www.w3.org/1999/xlink" x="0px" y="0px"
	 viewBox="0 0 1532.9 55.1" style="enable-background:new 0 0 1532.9 55.1;" xml:space="preserve">
<style type="text/css">
	.st0{opacity:0.85;}
	.st1{opacity:0.16;}
	.st2{fill:#00FFFF;}
	.st3{fill:url(#SVGID_1_);}
	.st4{fill:#4D4D4D;}
	.st5{fill:#7D6B53;}
	.st6{fill:#655243;}
	.st7{fill:#161616;}
	.st8{fill:#383838;}
	.st9{fill:#4F4034;}
	.st10{fill:#292929;}
	.st11{fill:#808080;}
	.st12{fill:#1A1A1A;}
	.st13{fill:none;stroke:#1A1A1A;stroke-width:0.3056;stroke-miterlimit:10;}
	.st14{fill:#312732;}
	.st15{opacity:0.39;}
	.st16{fill:none;stroke:#F2F2F2;stroke-width:0.3278;stroke-miterlimit:10;}
	.st17{fill:#7D0000;}
	.st18{fill:#C40000;}
	.st19{fill:#FF0000;}
</style>
<g id="limpet2" class="st0">
	<g class="st1">
		<path class="st2" d="M1471.7,28.6c-2.7,4.7-36.4,6.3-61.6,5.4c-25.1-0.9-52.1-2.9-75-0.8c-9.8,0.9-17.4,2.5-26.8,3.5
			c-16.1,1.8-35.7,1.8-54.4,1.8c-168.8,0.1-337.5,0.2-506.3,0.3c-21.5,0-43.1,0-64.2,0.8c-25.6,0.9-50,2.8-75.9,3.3
			c-47.2,1-93.4-2.7-140.8-3.5c-33.9-0.6-68,0.3-101.9,1C243.6,43,120.5,43.2,0,39.7c79.1-2.8,159-4.8,239.3-6.1
			c39.2-0.6,78.5-1.1,117.3-2.3c64.1-2.1,127.6-6.4,192.4-5.2c39.8,0.7,78.1,3.5,118.1,3.8c36.6,0.3,72.6-1.5,108.5-3
			C872.7,23,973.1,22,1072,23.8c34.8,0.6,70.2,1.6,104.5,0.4c28.2-1,55.6-3.6,84.2-3.1c14.1,0.3,27.5,1.3,41.3,1.9
			c57.8,2.6,124.1-1.8,174.9,3.9"/>
	</g>
	
		<linearGradient id="SVGID_1_" gradientUnits="userSpaceOnUse" x1="2082.6753" y1="1469.8406" x2="2030.6917" y2="1521.8242" gradientTransform="matrix(0.7071 0.7071 -0.7071 0.7071 1042.1174 -2483.0447)">
		<stop  offset="0" style="stop-color:#00FFFF"/>
		<stop  offset="0.1143" style="stop-color:#00E3F2"/>
		<stop  offset="0.3074" style="stop-color:#00BADF"/>
		<stop  offset="0.4967" style="stop-color:#009AD0"/>
		<stop  offset="0.6786" style="stop-color:#0084C5"/>
		<stop  offset="0.85" style="stop-color:#0076BE"/>
		<stop  offset="1" style="stop-color:#0071BC"/>
	</linearGradient>
	<polygon class="st3" points="1480.1,31.7 1501.5,29 1480.1,26.2 1486.8,17.5 1478.1,24.2 1475.3,2.8 1472.6,24.2 1463.9,17.5 
		1470.6,26.2 1392.2,29 1470.6,31.7 1463.9,40.4 1472.6,33.7 1475.3,55.1 1478.1,33.7 1486.8,40.4 	"/>
	<g>
		<rect x="1499.7" y="10.7" class="st4" width="18.7" height="35.6"/>
		<rect x="1481" y="10.7" class="st5" width="18.7" height="35.6"/>
		<rect x="1481" y="21.5" class="st6" width="18.7" height="13.6"/>
		<rect x="1499.9" y="21.5" class="st7" width="18.6" height="13.6"/>
		<polygon class="st8" points="1476.8,13.7 1476.8,27.5 1476.8,29.5 1476.8,43.4 1481,46.3 1481,28.8 1481,28.2 1481,10.7 		"/>
		<polygon class="st7" points="1476.8,22.6 1476.8,28 1476.8,28.7 1476.8,34 1481,35.2 1481,28.4 1481,28.2 1481,21.5 		"/>
		<polygon class="st7" points="1498.2,32 1498.2,28.5 1498.2,28 1498.2,24.6 1492.1,23.9 1492.1,28.2 1492.1,28.4 1492.1,32.7 		"/>
		<rect x="1499.7" y="10.7" class="st4" width="18.7" height="35.6"/>
		<rect x="1481" y="10.7" class="st5" width="18.7" height="35.6"/>
		<rect x="1481" y="21.5" class="st6" width="18.7" height="13.6"/>
		<rect x="1499.9" y="21.5" class="st7" width="18.6" height="13.6"/>
		<polygon class="st6" points="1476.8,13.7 1476.8,27.5 1476.8,29.5 1476.8,43.4 1481,46.3 1481,28.8 1481,28.2 1481,10.7 		"/>
		<polygon class="st9" points="1476.8,22.6 1476.8,28 1476.8,28.7 1476.8,34 1481,35.2 1481,28.4 1481,28.2 1481,21.5 		"/>
		<polygon class="st7" points="1498.2,32 1498.2,28.5 1498.2,28 1498.2,24.6 1492.1,23.9 1492.1,28.2 1492.1,28.4 1492.1,32.7 		"/>
		<g>
			<polygon class="st8" points="1532.9,43.4 1532.9,29.5 1532.9,27.5 1532.9,13.7 1527.9,10.7 1527.9,28.2 1527.9,28.8 1527.9,46.3 
							"/>
			<polygon class="st10" points="1532.9,28.3 1527.8,21.5 1527.8,35.2 			"/>
			<rect x="1518.5" y="10.7" class="st5" width="0.9" height="35.6"/>
			<rect x="1519.5" y="10.7" class="st4" width="8.4" height="35.6"/>
			<rect x="1519.6" y="21.5" class="st7" width="8.3" height="13.6"/>
		</g>
		<g>
			<g>
				<polygon class="st8" points="1499,17.9 1499,14.3 1495.3,12.4 1482.8,12.4 1482.8,14.3 1481.8,14.9 1481.8,15.3 1481.8,16.9 
					1481.8,17.4 1482.8,18 1482.8,19.9 1495.3,19.9 				"/>
				<path class="st11" d="M1484.4,16.6c-0.7,0.5-1.7,0.6-2.1,0.1c-0.5-0.4-0.3-1.2,0.4-1.7s1.7-0.6,2.1-0.1
					C1485.3,15.4,1485.1,16.1,1484.4,16.6z"/>
				<path class="st12" d="M1484.1,16.3c-0.4,0.3-1,0.4-1.3,0.1s-0.2-0.8,0.3-1.1c0.4-0.3,1-0.4,1.3-0.1
					C1484.7,15.5,1484.6,16,1484.1,16.3z"/>
				<polyline class="st13" points="1496.9,13.2 1494.8,14.7 1494.7,16.9 1497.3,18.8 				"/>
				<line class="st13" x1="1499" y1="15.7" x2="1494.7" y2="15.7"/>
			</g>
			<g>
				<polygon class="st8" points="1499,39.1 1499,42.7 1495.3,44.7 1482.8,44.7 1482.8,42.8 1481.8,42.2 1481.8,41.7 1481.8,40.1 
					1481.8,39.7 1482.8,39.1 1482.8,37.1 1495.3,37.1 				"/>
				<path class="st11" d="M1484.4,40.4c-0.7-0.5-1.7-0.6-2.1-0.1s-0.3,1.2,0.4,1.7s1.7,0.6,2.1,0.1S1485.1,40.9,1484.4,40.4z"/>
				<path class="st12" d="M1484.1,40.7c-0.4-0.3-1-0.4-1.3-0.1c-0.3,0.3-0.2,0.8,0.3,1.1c0.4,0.3,1,0.4,1.3,0.1
					C1484.7,41.5,1484.6,41,1484.1,40.7z"/>
				<polyline class="st13" points="1496.9,43.8 1494.8,42.4 1494.7,40.2 1497.3,38.2 				"/>
				<line class="st13" x1="1499" y1="41.4" x2="1494.7" y2="41.4"/>
			</g>
		</g>
		<g>
			<polygon class="st14" points="1501.6,33.5 1502.8,33.5 1503.4,32.7 1502.8,31.9 1501.6,31.9 1501,32.7 			"/>
			<g>
				<g>
					<polygon class="st14" points="1503.5,34.4 1504.7,34.4 1505.3,33.6 1504.7,32.7 1503.5,32.7 1502.9,33.6 					"/>
					<polygon class="st14" points="1503.5,32.6 1504.7,32.6 1505.3,31.8 1504.7,31 1503.5,31 1502.9,31.8 					"/>
				</g>
			</g>
		</g>
		<g class="st15">
			<polygon class="st16" points="1513.3,24.3 1510.9,24.3 1510.4,23.8 1510.4,22.6 1513.8,22.6 1513.8,23.8 			"/>
			<polyline class="st16" points="1510.4,27.1 1511.8,26.1 1512.2,27 1513.2,27 1513.8,26.7 1513.8,25.2 1510.4,25.2 			"/>
			<line class="st16" x1="1512.4" y1="28" x2="1512.4" y2="29"/>
			<polyline class="st16" points="1513.3,31.8 1513.8,31.4 1513.8,31.4 1513.8,30.3 1513.3,29.9 1510.8,29.9 1510.3,30.3 
				1510.3,30.3 1510.3,31.4 1510.8,31.8 1513.3,31.8 1513.4,31.8 			"/>
			<line class="st16" x1="1513.5" y1="30.1" x2="1510.5" y2="31.6"/>
			<polyline class="st16" points="1510,33.1 1511.9,33.1 1512.8,34.1 1513.8,34.1 1513.8,32.5 1513.2,32.1 			"/>
		</g>
		<polygon class="st7" points="1490.5,33.1 1490.5,28.6 1490.5,28 1490.5,23.5 1488.3,22.5 1488.3,28.2 1488.3,28.4 1488.3,34.1 		
			"/>
		<rect x="1481.8" y="22.5" class="st7" width="6.5" height="11.5"/>
		<g>
			<rect x="1507.3" y="13" class="st12" width="0.8" height="5.9"/>
			<rect x="1507.3" y="38.2" class="st12" width="0.8" height="5.9"/>
		</g>
	</g>
	<rect x="1504.8" y="8.1" class="st17" width="4.4" height="38.3"/>
	<g>
		<path class="st18" d="M1487.6,8.6c1.4,17.6,16.8,2.7,16.8,2.7V8.6V5.9C1504.4,5.9,1489.1-9,1487.6,8.6z"/>
		<path class="st18" d="M1526.9,8.6c-1.4-17.6-16.8-2.7-16.8-2.7v2.7v2.7C1510.1,11.3,1525.4,26.2,1526.9,8.6z"/>
		<path class="st17" d="M1489.9,15.6c0,0-3.6-2.1,13.6-5.3l0.1,1.7C1503.7,12.1,1493.9,21.1,1489.9,15.6z"/>
		<path class="st17" d="M1524.5,15.6c0,0,3.6-2.1-13.6-5.3l-0.1,1.7C1510.8,12.1,1520.5,21.1,1524.5,15.6z"/>
		<g>
			<path class="st18" d="M1505.2,7.2c0,0,3.7,15.9-10.5,28.5l-0.8-5.1l-4.9,1.6c0,0,19.6-22.2,14.7-26
				C1498.8,2.4,1505.2,7.2,1505.2,7.2z"/>
			<path class="st18" d="M1509.2,7.2c0,0-3.7,15.9,10.5,28.5l0.8-5.1l4.9,1.6c0,0-19.6-22.2-14.7-26S1509.2,7.2,1509.2,7.2z"/>
		</g>
		<path class="st19" d="M1509,12.5h-3.5c-2,0-3.7-1.7-3.7-3.7V8.4c0-2,1.7-3.7,3.7-3.7h3.5c2,0,3.7,1.7,3.7,3.7v0.4
			C1512.6,10.9,1511,12.5,1509,12.5z"/>
	</g>
</g>
</svg>
