<?xml version="1.0" encoding="utf-8"?>
<!-- Generator: Adobe Illustrator 21.1.0, SVG Export Plug-In . SVG Version: 6.00 Build 0)  -->
<svg version="1.1" xmlns="http://www.w3.org/2000/svg" xmlns:xlink="http://www.w3.org/1999/xlink" x="0px" y="0px"
	 viewBox="0 0 85.8 85.8" style="enable-background:new 0 0 85.8 85.8;" xml:space="preserve">
<style type="text/css">
	.st0{fill:#999999;}
	.st1{opacity:0.67;fill:#666666;enable-background:new    ;}
	.st2{opacity:0.11;enable-background:new    ;}
	.st3{opacity:0.21;fill:#FFFFFF;enable-background:new    ;}
</style>
<g id="surface">
	<circle class="st0" cx="42.9" cy="42.9" r="42.9"/>
</g>
<g id="dark_patches">
	<path class="st1" d="M61.8,4.4c-0.3,0.1-0.5,0.2-0.7,0.3c-0.3,0.1-0.6,0.1-0.9,0.2C59.9,5,59.5,5,59.3,5.2c-0.5,0.6-0.7,1.4-1.3,2
		c-0.4,0.4-1.4,1-2,1.1c-0.8,0.2-1.7,0.2-2.5,0.4c-0.3,0.1-0.6,0.2-0.9,0.2c-0.3,0-0.5,0-0.8,0s-0.6,0.2-0.9,0.2
		c-0.3,0-0.6,0.1-0.9,0.1c-0.3,0.1-0.6,0-0.9,0c-0.3,0-0.5,0.1-0.7,0.2c-0.3,0.1-0.6,0-0.9,0.1c-0.4,0.1-0.6,0.3-1,0.5
		s-0.8,0-1.2,0.2c-0.3,0.1-0.8,0.3-1,0.5c-0.6,0.4-1.1,1-1.7,1.4c-0.6,0.4-1.4,0.6-2.2,0.7c-0.4,0.1-0.8,0.2-1.2,0.4
		c-0.4,0.1-0.8,0.1-1.1,0.2c-0.8,0.2-1.5,0.6-2.2,0.8c-0.8,0.2-1.5,0.5-2.2,0.8c-0.8,0.4-1.8,0.4-2.7,0.7c-0.7,0.2-1.4,0.4-2,0.5
		c-0.4,0.1-0.7,0.1-1,0.3c-0.4,0.2-0.9,0.4-1.2,0.6s-0.4,0.6-0.7,0.9c-0.4,0.4-0.7,0.5-1.2,0.7c-0.8,0.3-1.4,0.9-2.3,1
		c-0.3,0.1-0.7-0.1-1,0S21,20,20.7,20.1s-0.4,0.1-0.7,0.1c-0.4,0.1-0.7,0.3-1,0.6c-0.6,0.6-0.6,1.1-0.6,1.9c0,0.6-0.2,1.5,0.1,2
		c0.3,0.7,1.5,1,1.7,1.8c0.2,0.7-0.1,1.4-0.5,2c-0.5,0.7-0.6,1.5-0.9,2.3c-0.1,0.3-0.1,0.4-0.1,0.7c0,0.4-0.2,0.8-0.2,1.2
		c0,0.6-0.2,1.1-0.2,1.7c0.1,0.8,0.8,0.9,1.5,0.9c0.6,0,1.2,0,1.8-0.1c1-0.3,2.1-0.5,3.1-0.6c1.3-0.1,2.6,0,3.9,0
		c1.1,0,2.3-0.1,3.3,0c0.8,0.1,1.6,0.5,2.3,0.9c0.2,0.2,0.4,0.4,0.7,0.5c0.4,0.1,1,0,1.4,0c0.6,0,1-0.1,1.6-0.2
		c0.5-0.1,0.9,0,1.4-0.3c0.8-0.4,1.5-0.8,2.2-1.3c0.5-0.3,0.9-0.3,1.4-0.3c0.8,0,1.5-0.1,2.3,0c1.2,0.1,2.3,0.8,3.3,1.3
		c0.3,0.2,0.7,0.3,1,0.4c0.7,0.2,1,0,1.6-0.3c0.8-0.4,1.9-0.7,2.8-0.5c1,0.1,2.1,0.2,3,0.6c0.3,0.1,0.5,0.3,0.8,0.4
		c0.3,0.2,0.8,0.3,1.1,0.5c0.5,0.4,1.2,1.5,1.2,2.1c0,0.4-0.5,0.7-0.6,1.1c-0.2,0.5-0.2,0.9-0.6,1.3c-0.2,0.2-0.5,0.4-0.6,0.7
		c-0.2,0.4-0.3,1-0.4,1.4c0,0.2-0.1,0.6,0,0.8c0.1,0.5,0.5,0.7,1,0.9c0.4,0.2,0.8,0.3,1.3,0.4s1,0.5,1.5,0.7s1,0.4,1.5,0.7
		c0.3,0.2,0.7,0.5,1,0.8c0.4,0.5,0.5,1.1,0.8,1.6c0.4,0.6,0.7,1.4,0.7,2.1c0,1.2-0.6,2-1.1,3.1c-0.1,0.3-0.2,0.6-0.4,0.9
		c-0.1,0.2-0.4,0.4-0.4,0.6c-0.1,0.5,0.4,0.6,0.8,0.7c0.6,0.2,1.3,0.4,2,0.6c1,0.3,1.9,0.3,2.9,0c1.2-0.4,2.6-0.8,3.5-1.7
		c0.5-0.5,1.1-0.9,1.4-1.5c0.3-0.5,0.4-1,0.6-1.5c0.4-0.8,0.7-1.7,0.9-2.5c0.3-1.2,0.4-2.4,0.2-3.6c-0.2-1.1-0.7-2-1-3.1
		c-0.6-2.1-0.4-3.9,1.1-5.5c0.3-0.3,0.4-0.7,0.7-1c0.3-0.3,0.7-0.6,1-0.9c0.3-0.4,0.6-0.9,0.8-1.3c0.5-0.9,0.9-1.3,1.8-1.8
		c0.6-0.3,1.4-0.3,2-0.6s1-1.3,1.3-1.8l0.1-0.1C80.2,18.7,72.2,9.5,61.8,4.4z"/>
	<path class="st1" d="M34.5,85c0.1-0.3,0.1-0.5,0.1-0.8s0-0.6-0.1-0.8c-0.2-0.3-0.5-0.4-0.7-0.6c-0.5-0.4-0.4-1.6,0.1-2
		c0.3-0.2,1.1-0.3,1.5-0.4s0.8-0.4,1-0.8c0.2-0.3,0.1-0.6,0.4-0.8c0.5-0.5,0.9-1,1.3-1.5c0.4-0.4,0.7-0.7,0.9-1.2
		c0.2-0.6,0.1-1.2,0.3-1.7c0.2-0.6,0.5-1.2,0.9-1.8c0.3-0.5,0.7-1,0.8-1.5c0.1-1-0.6-3-1.9-2.1c-0.6,0.4-1.3,0.9-1.9,1.4
		c-0.5,0.4-0.7,0.8-1.3,1c-0.6,0.3-1,0.5-1.7,0.5c-0.4,0-0.7,0.2-1,0.2s-0.6,0-0.9,0c-0.8,0-1.7,0-2.5,0c-0.5,0-1.3,0.1-1.8,0
		c-0.3-0.1-0.6-0.3-0.9-0.4s-0.6-0.2-0.9-0.4c-0.6-0.3-1.2-0.7-1.8-1C23.8,70.1,23.6,70,23,70c-0.4,0-0.9,0.1-1.2,0
		c-0.7-0.2-1-0.9-1.4-1.3c-0.5-0.5-1.3-0.7-1.9-1c-0.6-0.4-1.2-0.7-1.5-1.4c-0.3-0.6-0.7-1.2-1.1-1.8c-0.7-0.9-1.1-1.6-1.1-2.8
		c0-1.1,0-2.2,0-3.3s0.2-2.1,0.2-3.2c0-0.7,0-1.4,0-2.1c0-1-0.3-1.4-0.7-2.2s-0.8-0.8-1.6-0.9c-0.7,0-1.2-0.5-1.9-0.8
		c-0.5-0.2-0.9-0.4-1.4-0.7s-1-0.4-1.5-0.8c-1.1-0.9-1.5-2.3-2.6-3.2c-0.5-0.4-1-0.8-1.6-1c-0.7-0.2-1.5-0.1-2.2-0.1
		c-0.6,0-1,0.1-1.5,0.4C0.4,64.2,15.1,81.1,34.5,85z"/>
</g>
<g id="shadows">
	<path class="st2" d="M58.3,2.9c-16.1,6.2-27.4,21.8-27.4,40s11.4,33.8,27.4,40c16.1-6.2,27.4-21.8,27.4-40
		C85.8,24.7,74.4,9.1,58.3,2.9z"/>
	<path class="st2" d="M61,4c-14.6,6.8-24.8,21.7-24.8,38.9s10.1,32,24.8,38.9C75.6,75,85.8,60.1,85.8,42.9S75.7,10.9,61,4z"/>
	<path class="st2" d="M65.5,42.9c0,10.6,3.8,20.2,10.1,27.7c6.3-7.5,10.1-17.1,10.1-27.7s-3.8-20.2-10.1-27.7
		C69.3,22.7,65.5,32.3,65.5,42.9z"/>
	<path class="st3" d="M48.1,85.5c-21-2.8-37.3-20.7-37.3-42.6c0-21.8,16.3-39.8,37.3-42.6c-1-0.1-1.9-0.2-2.9-0.3
		c-0.8,0-1.5,0-2.3,0C19.2,0,0,19.2,0,42.9l0,0c0,23.7,19.2,42.9,42.9,42.9c0.8,0,1.5,0,2.3-0.1C46.2,85.7,47.2,85.6,48.1,85.5z"/>
</g>
</svg>
